<?xml version="1.0" encoding="UTF-8" standalone="no"?><svg xmlns="http://www.w3.org/2000/svg" xmlns:xlink="http://www.w3.org/1999/xlink" clip-rule="evenodd" stroke-miterlimit="4.00" viewBox="0 0 644 96"><desc>SVG generated by Keynote</desc><defs></defs><g transform="matrix(1.00, 0.00, -0.00, -1.00, 0.0, 96.0)"><text xml:space="preserve" font-family="GillSans-Light" font-size="40.0" fill="#525252" transform="matrix(1.00, 0.00, -0.00, -1.00, 20.0, 66.0)">g</text><text xml:space="preserve" font-family="GillSans-Light" font-size="40.0" fill="#525252" transform="matrix(1.00, 0.00, -0.00, -1.00, 37.1, 66.0)">u</text><text xml:space="preserve" font-family="GillSans-Light" font-size="40.0" fill="#525252" transform="matrix(1.00, 0.00, -0.00, -1.00, 56.7, 66.0)">a</text><text xml:space="preserve" font-family="GillSans-Light" font-size="40.0" fill="#525252" transform="matrix(1.00, 0.00, -0.00, -1.00, 73.7, 66.0)">r</text><text xml:space="preserve" font-family="GillSans-Light" font-size="40.0" fill="#525252" transform="matrix(1.00, 0.00, -0.00, -1.00, 88.1, 66.0)">a</text><text xml:space="preserve" font-family="GillSans-Light" font-size="40.0" fill="#525252" transform="matrix(1.00, 0.00, -0.00, -1.00, 105.1, 66.0)">n</text><text xml:space="preserve" font-family="GillSans-Light" font-size="40.0" fill="#525252" transform="matrix(1.00, 0.00, -0.00, -1.00, 124.7, 66.0)">t</text><text xml:space="preserve" font-family="GillSans-Light" font-size="40.0" fill="#525252" transform="matrix(1.00, 0.00, -0.00, -1.00, 136.8, 66.0)">e</text><text xml:space="preserve" font-family="GillSans-Light" font-size="40.0" fill="#525252" transform="matrix(1.00, 0.00, -0.00, -1.00, 156.0, 66.0)">e</text><text xml:space="preserve" font-family="GillSans-Light" font-size="40.0" fill="#525252" transform="matrix(1.00, 0.00, -0.00, -1.00, 175.1, 66.0)">d</text><text xml:space="preserve" font-family="GillSans-Light" font-size="40.0" fill="#525252" transform="matrix(1.00, 0.00, -0.00, -1.00, 195.5, 66.0)"> </text><text xml:space="preserve" font-family="GillSans-Light" font-size="40.0" fill="#525252" transform="matrix(1.00, 0.00, -0.00, -1.00, 206.6, 66.0)">t</text><text xml:space="preserve" font-family="GillSans-Light" font-size="40.0" fill="#525252" transform="matrix(1.00, 0.00, -0.00, -1.00, 218.7, 66.0)">o</text><text xml:space="preserve" font-family="GillSans-Light" font-size="40.0" fill="#525252" transform="matrix(1.00, 0.00, -0.00, -1.00, 240.4, 66.0)"> </text><text xml:space="preserve" font-family="GillSans-Light" font-size="40.0" fill="#525252" transform="matrix(1.00, 0.00, -0.00, -1.00, 251.5, 66.0)">h</text><text xml:space="preserve" font-family="GillSans-Light" font-size="40.0" fill="#525252" transform="matrix(1.00, 0.00, -0.00, -1.00, 271.1, 66.0)">a</text><text xml:space="preserve" font-family="GillSans-Light" font-size="40.0" fill="#525252" transform="matrix(1.00, 0.00, -0.00, -1.00, 287.1, 66.0)">v</text><text xml:space="preserve" font-family="GillSans-Light" font-size="40.0" fill="#525252" transform="matrix(1.00, 0.00, -0.00, -1.00, 303.6, 66.0)">e</text><text xml:space="preserve" font-family="GillSans-Light" font-size="40.0" fill="#525252" transform="matrix(1.00, 0.00, -0.00, -1.00, 322.8, 66.0)"> </text><text xml:space="preserve" font-family="GillSans-Light" font-size="40.0" fill="#525252" transform="matrix(1.00, 0.00, -0.00, -1.00, 333.9, 66.0)">t</text><text xml:space="preserve" font-family="GillSans-Light" font-size="40.0" fill="#525252" transform="matrix(1.00, 0.00, -0.00, -1.00, 345.9, 66.0)">h</text><text xml:space="preserve" font-family="GillSans-Light" font-size="40.0" fill="#525252" transform="matrix(1.00, 0.00, -0.00, -1.00, 365.5, 66.0)">e</text><text xml:space="preserve" font-family="GillSans-Light" font-size="40.0" fill="#525252" transform="matrix(1.00, 0.00, -0.00, -1.00, 384.7, 66.0)"> </text><text xml:space="preserve" font-family="GillSans-Light" font-size="40.0" fill="#525252" transform="matrix(1.00, 0.00, -0.00, -1.00, 395.8, 66.0)">s</text><text xml:space="preserve" font-family="GillSans-Light" font-size="40.0" fill="#525252" transform="matrix(1.00, 0.00, -0.00, -1.00, 410.0, 66.0)">a</text><text xml:space="preserve" font-family="GillSans-Light" font-size="40.0" fill="#525252" transform="matrix(1.00, 0.00, -0.00, -1.00, 427.0, 66.0)">m</text><text xml:space="preserve" font-family="GillSans-Light" font-size="40.0" fill="#525252" transform="matrix(1.00, 0.00, -0.00, -1.00, 457.9, 66.0)">e</text><text xml:space="preserve" font-family="GillSans-Light" font-size="40.0" fill="#525252" transform="matrix(1.00, 0.00, -0.00, -1.00, 477.0, 66.0)"> </text><text xml:space="preserve" font-family="GillSans-Light" font-size="40.0" fill="#525252" transform="matrix(1.00, 0.00, -0.00, -1.00, 488.1, 66.0)">o</text><text xml:space="preserve" font-family="GillSans-Light" font-size="40.0" fill="#525252" transform="matrix(1.00, 0.00, -0.00, -1.00, 509.8, 66.0)">u</text><text xml:space="preserve" font-family="GillSans-Light" font-size="40.0" fill="#525252" transform="matrix(1.00, 0.00, -0.00, -1.00, 529.4, 66.0)">t</text><text xml:space="preserve" font-family="GillSans-Light" font-size="40.0" fill="#525252" transform="matrix(1.00, 0.00, -0.00, -1.00, 541.5, 66.0)">p</text><text xml:space="preserve" font-family="GillSans-Light" font-size="40.0" fill="#525252" transform="matrix(1.00, 0.00, -0.00, -1.00, 561.9, 66.0)">u</text><text xml:space="preserve" font-family="GillSans-Light" font-size="40.0" fill="#525252" transform="matrix(1.00, 0.00, -0.00, -1.00, 581.5, 66.0)">t</text><text xml:space="preserve" font-family="GillSans-Light" font-size="40.0" fill="#525252" transform="matrix(1.00, 0.00, -0.00, -1.00, 593.6, 66.0)"> </text><text xml:space="preserve" font-family="GillSans-Light" font-size="40.0" fill="#525252" transform="matrix(1.00, 0.00, -0.00, -1.00, 604.7, 66.0)">i</text><text xml:space="preserve" font-family="GillSans-Light" font-size="40.0" fill="#525252" transform="matrix(1.00, 0.00, -0.00, -1.00, 612.2, 66.0)">f</text><text xml:space="preserve" font-family="GillSans-Light" font-size="40.0" fill="#525252" transform="matrix(1.00, 0.00, -0.00, -1.00, 621.8, 66.0)"> </text><text xml:space="preserve" font-family="GillSans-Light" font-size="40.0" fill="#525252" transform="matrix(1.00, 0.00, -0.00, -1.00, 0.0, 11.0)">c</text><text xml:space="preserve" font-family="GillSans-Light" font-size="40.0" fill="#525252" transform="matrix(1.00, 0.00, -0.00, -1.00, 16.7, 11.0)">a</text><text xml:space="preserve" font-family="GillSans-Light" font-size="40.0" fill="#525252" transform="matrix(1.00, 0.00, -0.00, -1.00, 33.7, 11.0)">l</text><text xml:space="preserve" font-family="GillSans-Light" font-size="40.0" fill="#525252" transform="matrix(1.00, 0.00, -0.00, -1.00, 41.3, 11.0)">l</text><text xml:space="preserve" font-family="GillSans-Light" font-size="40.0" fill="#525252" transform="matrix(1.00, 0.00, -0.00, -1.00, 48.8, 11.0)">e</text><text xml:space="preserve" font-family="GillSans-Light" font-size="40.0" fill="#525252" transform="matrix(1.00, 0.00, -0.00, -1.00, 67.9, 11.0)">d</text><text xml:space="preserve" font-family="GillSans-Light" font-size="40.0" fill="#525252" transform="matrix(1.00, 0.00, -0.00, -1.00, 88.3, 11.0)"> </text><text xml:space="preserve" font-family="GillSans-Light" font-size="40.0" fill="#525252" transform="matrix(1.00, 0.00, -0.00, -1.00, 99.4, 11.0)">m</text><text xml:space="preserve" font-family="GillSans-Light" font-size="40.0" fill="#525252" transform="matrix(1.00, 0.00, -0.00, -1.00, 129.7, 11.0)">u</text><text xml:space="preserve" font-family="GillSans-Light" font-size="40.0" fill="#525252" transform="matrix(1.00, 0.00, -0.00, -1.00, 149.3, 11.0)">l</text><text xml:space="preserve" font-family="GillSans-Light" font-size="40.0" fill="#525252" transform="matrix(1.00, 0.00, -0.00, -1.00, 156.8, 11.0)">t</text><text xml:space="preserve" font-family="GillSans-Light" font-size="40.0" fill="#525252" transform="matrix(1.00, 0.00, -0.00, -1.00, 168.9, 11.0)">i</text><text xml:space="preserve" font-family="GillSans-Light" font-size="40.0" fill="#525252" transform="matrix(1.00, 0.00, -0.00, -1.00, 176.4, 11.0)">p</text><text xml:space="preserve" font-family="GillSans-Light" font-size="40.0" fill="#525252" transform="matrix(1.00, 0.00, -0.00, -1.00, 196.8, 11.0)">l</text><text xml:space="preserve" font-family="GillSans-Light" font-size="40.0" fill="#525252" transform="matrix(1.00, 0.00, -0.00, -1.00, 204.3, 11.0)">e</text><text xml:space="preserve" font-family="GillSans-Light" font-size="40.0" fill="#525252" transform="matrix(1.00, 0.00, -0.00, -1.00, 223.4, 11.0)"> </text><text xml:space="preserve" font-family="GillSans-Light" font-size="40.0" fill="#525252" transform="matrix(1.00, 0.00, -0.00, -1.00, 234.6, 11.0)">t</text><text xml:space="preserve" font-family="GillSans-Light" font-size="40.0" fill="#525252" transform="matrix(1.00, 0.00, -0.00, -1.00, 246.6, 11.0)">i</text><text xml:space="preserve" font-family="GillSans-Light" font-size="40.0" fill="#525252" transform="matrix(1.00, 0.00, -0.00, -1.00, 254.1, 11.0)">m</text><text xml:space="preserve" font-family="GillSans-Light" font-size="40.0" fill="#525252" transform="matrix(1.00, 0.00, -0.00, -1.00, 285.0, 11.0)">e</text><text xml:space="preserve" font-family="GillSans-Light" font-size="40.0" fill="#525252" transform="matrix(1.00, 0.00, -0.00, -1.00, 304.1, 11.0)">s</text><text xml:space="preserve" font-family="GillSans-Light" font-size="40.0" fill="#525252" transform="matrix(1.00, 0.00, -0.00, -1.00, 318.3, 11.0)"> </text><text xml:space="preserve" font-family="GillSans-Light" font-size="40.0" fill="#525252" transform="matrix(1.00, 0.00, -0.00, -1.00, 329.4, 11.0)">w</text><text xml:space="preserve" font-family="GillSans-Light" font-size="40.0" fill="#525252" transform="matrix(1.00, 0.00, -0.00, -1.00, 357.7, 11.0)">i</text><text xml:space="preserve" font-family="GillSans-Light" font-size="40.0" fill="#525252" transform="matrix(1.00, 0.00, -0.00, -1.00, 365.2, 11.0)">t</text><text xml:space="preserve" font-family="GillSans-Light" font-size="40.0" fill="#525252" transform="matrix(1.00, 0.00, -0.00, -1.00, 377.3, 11.0)">h</text><text xml:space="preserve" font-family="GillSans-Light" font-size="40.0" fill="#525252" transform="matrix(1.00, 0.00, -0.00, -1.00, 396.9, 11.0)"> </text><text xml:space="preserve" font-family="GillSans-Light" font-size="40.0" fill="#525252" transform="matrix(1.00, 0.00, -0.00, -1.00, 408.0, 11.0)">t</text><text xml:space="preserve" font-family="GillSans-Light" font-size="40.0" fill="#525252" transform="matrix(1.00, 0.00, -0.00, -1.00, 420.1, 11.0)">h</text><text xml:space="preserve" font-family="GillSans-Light" font-size="40.0" fill="#525252" transform="matrix(1.00, 0.00, -0.00, -1.00, 439.7, 11.0)">e</text><text xml:space="preserve" font-family="GillSans-Light" font-size="40.0" fill="#525252" transform="matrix(1.00, 0.00, -0.00, -1.00, 458.9, 11.0)"> </text><text xml:space="preserve" font-family="GillSans-Light" font-size="40.0" fill="#525252" transform="matrix(1.00, 0.00, -0.00, -1.00, 470.0, 11.0)">s</text><text xml:space="preserve" font-family="GillSans-Light" font-size="40.0" fill="#525252" transform="matrix(1.00, 0.00, -0.00, -1.00, 484.1, 11.0)">a</text><text xml:space="preserve" font-family="GillSans-Light" font-size="40.0" fill="#525252" transform="matrix(1.00, 0.00, -0.00, -1.00, 501.2, 11.0)">m</text><text xml:space="preserve" font-family="GillSans-Light" font-size="40.0" fill="#525252" transform="matrix(1.00, 0.00, -0.00, -1.00, 532.0, 11.0)">e</text><text xml:space="preserve" font-family="GillSans-Light" font-size="40.0" fill="#525252" transform="matrix(1.00, 0.00, -0.00, -1.00, 551.2, 11.0)"> </text><text xml:space="preserve" font-family="GillSans-Light" font-size="40.0" fill="#525252" transform="matrix(1.00, 0.00, -0.00, -1.00, 562.3, 11.0)">i</text><text xml:space="preserve" font-family="GillSans-Light" font-size="40.0" fill="#525252" transform="matrix(1.00, 0.00, -0.00, -1.00, 569.8, 11.0)">n</text><text xml:space="preserve" font-family="GillSans-Light" font-size="40.0" fill="#525252" transform="matrix(1.00, 0.00, -0.00, -1.00, 589.4, 11.0)">p</text><text xml:space="preserve" font-family="GillSans-Light" font-size="40.0" fill="#525252" transform="matrix(1.00, 0.00, -0.00, -1.00, 609.8, 11.0)">u</text><text xml:space="preserve" font-family="GillSans-Light" font-size="40.0" fill="#525252" transform="matrix(1.00, 0.00, -0.00, -1.00, 629.4, 11.0)">t</text></g></svg>