<?xml version="1.0" encoding="UTF-8" standalone="no"?><svg xmlns="http://www.w3.org/2000/svg" xmlns:xlink="http://www.w3.org/1999/xlink" clip-rule="evenodd" stroke-miterlimit="4.00" viewBox="0 0 281 37"><desc>SVG generated by Keynote</desc><defs></defs><g transform="matrix(1.00, 0.00, -0.00, -1.00, 0.0, 37.0)"><text xml:space="preserve" font-family="GillSans-Light" font-size="40.0" fill="#525252" transform="matrix(1.00, 0.00, -0.00, -1.00, 1.0, 11.0)">s</text><text xml:space="preserve" font-family="GillSans-Light" font-size="40.0" fill="#525252" transform="matrix(1.00, 0.00, -0.00, -1.00, 15.2, 11.0)">u</text><text xml:space="preserve" font-family="GillSans-Light" font-size="40.0" fill="#525252" transform="matrix(1.00, 0.00, -0.00, -1.00, 34.8, 11.0)">p</text><text xml:space="preserve" font-family="GillSans-Light" font-size="40.0" fill="#525252" transform="matrix(1.00, 0.00, -0.00, -1.00, 55.2, 11.0)">e</text><text xml:space="preserve" font-family="GillSans-Light" font-size="40.0" fill="#525252" transform="matrix(1.00, 0.00, -0.00, -1.00, 74.3, 11.0)">r</text><text xml:space="preserve" font-family="GillSans-Light" font-size="40.0" fill="#525252" transform="matrix(1.00, 0.00, -0.00, -1.00, 87.6, 11.0)"> </text><text xml:space="preserve" font-family="GillSans-Light" font-size="40.0" fill="#525252" transform="matrix(1.00, 0.00, -0.00, -1.00, 98.7, 11.0)">e</text><text xml:space="preserve" font-family="GillSans-Light" font-size="40.0" fill="#525252" transform="matrix(1.00, 0.00, -0.00, -1.00, 117.9, 11.0)">a</text><text xml:space="preserve" font-family="GillSans-Light" font-size="40.0" fill="#525252" transform="matrix(1.00, 0.00, -0.00, -1.00, 135.0, 11.0)">s</text><text xml:space="preserve" font-family="GillSans-Light" font-size="40.0" fill="#525252" transform="matrix(1.00, 0.00, -0.00, -1.00, 149.1, 11.0)">y</text><text xml:space="preserve" font-family="GillSans-Light" font-size="40.0" fill="#525252" transform="matrix(1.00, 0.00, -0.00, -1.00, 165.8, 11.0)"> </text><text xml:space="preserve" font-family="GillSans-Light" font-size="40.0" fill="#525252" transform="matrix(1.00, 0.00, -0.00, -1.00, 176.9, 11.0)">t</text><text xml:space="preserve" font-family="GillSans-Light" font-size="40.0" fill="#525252" transform="matrix(1.00, 0.00, -0.00, -1.00, 189.0, 11.0)">o</text><text xml:space="preserve" font-family="GillSans-Light" font-size="40.0" fill="#525252" transform="matrix(1.00, 0.00, -0.00, -1.00, 210.7, 11.0)"> </text><text xml:space="preserve" font-family="GillSans-Light" font-size="40.0" fill="#525252" transform="matrix(1.00, 0.00, -0.00, -1.00, 221.8, 11.0)">t</text><text xml:space="preserve" font-family="GillSans-Light" font-size="40.0" fill="#525252" transform="matrix(1.00, 0.00, -0.00, -1.00, 233.8, 11.0)">e</text><text xml:space="preserve" font-family="GillSans-Light" font-size="40.0" fill="#525252" transform="matrix(1.00, 0.00, -0.00, -1.00, 253.0, 11.0)">s</text><text xml:space="preserve" font-family="GillSans-Light" font-size="40.0" fill="#525252" transform="matrix(1.00, 0.00, -0.00, -1.00, 267.1, 11.0)">t</text></g></svg>