<?xml version="1.0" encoding="UTF-8" standalone="no"?><svg xmlns="http://www.w3.org/2000/svg" xmlns:xlink="http://www.w3.org/1999/xlink" clip-rule="evenodd" stroke-miterlimit="4.00" viewBox="0 0 467 73"><desc>SVG generated by Keynote</desc><defs></defs><g transform="matrix(1.00, 0.00, -0.00, -1.00, 0.0, 73.0)"><text xml:space="preserve" font-family="GillSans-Light" font-size="59.0" fill="#525252" transform="matrix(1.00, 0.00, -0.00, -1.00, 3.0, 16.0)">t</text><text xml:space="preserve" font-family="GillSans-Light" font-size="59.0" fill="#525252" transform="matrix(1.00, 0.00, -0.00, -1.00, 20.8, 16.0)">h</text><text xml:space="preserve" font-family="GillSans-Light" font-size="59.0" fill="#525252" transform="matrix(1.00, 0.00, -0.00, -1.00, 49.8, 16.0)">a</text><text xml:space="preserve" font-family="GillSans-Light" font-size="59.0" fill="#525252" transform="matrix(1.00, 0.00, -0.00, -1.00, 74.9, 16.0)">t</text><text xml:space="preserve" font-family="GillSans-Light" font-size="59.0" fill="#525252" transform="matrix(1.00, 0.00, -0.00, -1.00, 92.7, 16.0)">s</text><text xml:space="preserve" font-family="GillSans-Light" font-size="59.0" fill="#525252" transform="matrix(1.00, 0.00, -0.00, -1.00, 113.6, 16.0)"> </text><text xml:space="preserve" font-family="GillSans-Light" font-size="59.0" fill="#525252" transform="matrix(1.00, 0.00, -0.00, -1.00, 130.0, 16.0)">a</text><text xml:space="preserve" font-family="GillSans-Light" font-size="59.0" fill="#525252" transform="matrix(1.00, 0.00, -0.00, -1.00, 155.2, 16.0)">c</text><text xml:space="preserve" font-family="GillSans-Light" font-size="59.0" fill="#525252" transform="matrix(1.00, 0.00, -0.00, -1.00, 179.8, 16.0)">t</text><text xml:space="preserve" font-family="GillSans-Light" font-size="59.0" fill="#525252" transform="matrix(1.00, 0.00, -0.00, -1.00, 197.6, 16.0)">u</text><text xml:space="preserve" font-family="GillSans-Light" font-size="59.0" fill="#525252" transform="matrix(1.00, 0.00, -0.00, -1.00, 226.6, 16.0)">a</text><text xml:space="preserve" font-family="GillSans-Light" font-size="59.0" fill="#525252" transform="matrix(1.00, 0.00, -0.00, -1.00, 251.8, 16.0)">l</text><text xml:space="preserve" font-family="GillSans-Light" font-size="59.0" fill="#525252" transform="matrix(1.00, 0.00, -0.00, -1.00, 262.9, 16.0)">l</text><text xml:space="preserve" font-family="GillSans-Light" font-size="59.0" fill="#525252" transform="matrix(1.00, 0.00, -0.00, -1.00, 273.4, 16.0)">y</text><text xml:space="preserve" font-family="GillSans-Light" font-size="59.0" fill="#525252" transform="matrix(1.00, 0.00, -0.00, -1.00, 298.0, 16.0)"> </text><text xml:space="preserve" font-family="GillSans-Light" font-size="59.0" fill="#525252" transform="matrix(1.00, 0.00, -0.00, -1.00, 314.4, 16.0)">a</text><text xml:space="preserve" font-family="GillSans-Light" font-size="59.0" fill="#525252" transform="matrix(1.00, 0.00, -0.00, -1.00, 339.6, 16.0)"> </text><text xml:space="preserve" font-family="GillSans-Light" font-size="59.0" fill="#525252" transform="matrix(1.00, 0.00, -0.00, -1.00, 356.0, 16.0)">l</text><text xml:space="preserve" font-family="GillSans-Light" font-size="59.0" fill="#525252" transform="matrix(1.00, 0.00, -0.00, -1.00, 367.1, 16.0)">i</text><text xml:space="preserve" font-family="GillSans-Light" font-size="59.0" fill="#525252" transform="matrix(1.00, 0.00, -0.00, -1.00, 378.2, 16.0)">e</text><image xlink:href="../../F541D608-5868-4B97-9842-9A30E74E2A2D/assets/0F529CAEB23D77B48EA781AA755A9124.png" width="160.00" height="160.00" transform="matrix(0.37, 0.00, -0.00, -0.37, 407.0, 71.0)"></image><text xml:space="preserve" font-family="AppleColorEmoji" font-size="59.0" fill="#525252" transform="matrix(1.00, 0.00, -0.00, -1.00, 406.6, 16.0)">â˜</text></g></svg>