<?xml version="1.0" encoding="UTF-8" standalone="no"?><svg xmlns="http://www.w3.org/2000/svg" xmlns:xlink="http://www.w3.org/1999/xlink" clip-rule="evenodd" stroke-miterlimit="4.00" viewBox="0 0 608 35"><desc>SVG generated by Keynote</desc><defs></defs><g transform="matrix(1.00, 0.00, -0.00, -1.00, 0.0, 35.0)"><text xml:space="preserve" font-family="GillSans-SemiBold" font-weight="bold" font-size="33.8" fill="#525252" transform="matrix(1.00, 0.00, -0.00, -1.00, 0.4, 10.0)">s</text><text xml:space="preserve" font-family="GillSans-SemiBold" font-weight="bold" font-size="33.8" fill="#525252" transform="matrix(1.00, 0.00, -0.00, -1.00, 14.1, 10.0)">t</text><text xml:space="preserve" font-family="GillSans-SemiBold" font-weight="bold" font-size="33.8" fill="#525252" transform="matrix(1.00, 0.00, -0.00, -1.00, 26.5, 10.0)">a</text><text xml:space="preserve" font-family="GillSans-SemiBold" font-weight="bold" font-size="33.8" fill="#525252" transform="matrix(1.00, 0.00, -0.00, -1.00, 42.9, 10.0)">t</text><text xml:space="preserve" font-family="GillSans-SemiBold" font-weight="bold" font-size="33.8" fill="#525252" transform="matrix(1.00, 0.00, -0.00, -1.00, 55.4, 10.0)">e</text><text xml:space="preserve" font-family="GillSans-SemiBoldItalic" font-style="italic" font-weight="bold" font-size="33.8" fill="#525252" transform="matrix(1.00, 0.00, -0.00, -1.00, 72.9, 10.0)"> </text><text xml:space="preserve" font-family="GillSans-LightItalic" font-style="italic" font-size="33.8" fill="#525252" transform="matrix(1.00, 0.00, -0.00, -1.00, 82.3, 10.0)">(</text><text xml:space="preserve" font-family="GillSans-LightItalic" font-style="italic" font-size="33.8" fill="#525252" transform="matrix(1.00, 0.00, -0.00, -1.00, 92.5, 10.0)">s</text><text xml:space="preserve" font-family="GillSans-LightItalic" font-style="italic" font-size="33.8" fill="#525252" transform="matrix(1.00, 0.00, -0.00, -1.00, 104.4, 10.0)">h</text><text xml:space="preserve" font-family="GillSans-LightItalic" font-style="italic" font-size="33.8" fill="#525252" transform="matrix(1.00, 0.00, -0.00, -1.00, 119.9, 10.0)">o</text><text xml:space="preserve" font-family="GillSans-LightItalic" font-style="italic" font-size="33.8" fill="#525252" transform="matrix(1.00, 0.00, -0.00, -1.00, 135.1, 10.0)">u</text><text xml:space="preserve" font-family="GillSans-LightItalic" font-style="italic" font-size="33.8" fill="#525252" transform="matrix(1.00, 0.00, -0.00, -1.00, 150.6, 10.0)">l</text><text xml:space="preserve" font-family="GillSans-LightItalic" font-style="italic" font-size="33.8" fill="#525252" transform="matrix(1.00, 0.00, -0.00, -1.00, 156.6, 10.0)">d</text><text xml:space="preserve" font-family="GillSans-LightItalic" font-style="italic" font-size="33.8" fill="#525252" transform="matrix(1.00, 0.00, -0.00, -1.00, 172.5, 10.0)"> </text><text xml:space="preserve" font-family="GillSans-LightItalic" font-style="italic" font-size="33.8" fill="#525252" transform="matrix(1.00, 0.00, -0.00, -1.00, 181.9, 10.0)">b</text><text xml:space="preserve" font-family="GillSans-LightItalic" font-style="italic" font-size="33.8" fill="#525252" transform="matrix(1.00, 0.00, -0.00, -1.00, 197.8, 10.0)">e</text><text xml:space="preserve" font-family="GillSans-LightItalic" font-style="italic" font-size="33.8" fill="#525252" transform="matrix(1.00, 0.00, -0.00, -1.00, 212.9, 10.0)"> </text><text xml:space="preserve" font-family="GillSans-LightItalic" font-style="italic" font-size="33.8" fill="#525252" transform="matrix(1.00, 0.00, -0.00, -1.00, 222.3, 10.0)">t</text><text xml:space="preserve" font-family="GillSans-LightItalic" font-style="italic" font-size="33.8" fill="#525252" transform="matrix(1.00, 0.00, -0.00, -1.00, 231.8, 10.0)">r</text><text xml:space="preserve" font-family="GillSans-LightItalic" font-style="italic" font-size="33.8" fill="#525252" transform="matrix(1.00, 0.00, -0.00, -1.00, 241.0, 10.0)">e</text><text xml:space="preserve" font-family="GillSans-LightItalic" font-style="italic" font-size="33.8" fill="#525252" transform="matrix(1.00, 0.00, -0.00, -1.00, 256.2, 10.0)">a</text><text xml:space="preserve" font-family="GillSans-LightItalic" font-style="italic" font-size="33.8" fill="#525252" transform="matrix(1.00, 0.00, -0.00, -1.00, 272.4, 10.0)">t</text><text xml:space="preserve" font-family="GillSans-LightItalic" font-style="italic" font-size="33.8" fill="#525252" transform="matrix(1.00, 0.00, -0.00, -1.00, 281.9, 10.0)">e</text><text xml:space="preserve" font-family="GillSans-LightItalic" font-style="italic" font-size="33.8" fill="#525252" transform="matrix(1.00, 0.00, -0.00, -1.00, 297.0, 10.0)">d</text><text xml:space="preserve" font-family="GillSans-LightItalic" font-style="italic" font-size="33.8" fill="#525252" transform="matrix(1.00, 0.00, -0.00, -1.00, 312.9, 10.0)"> </text><text xml:space="preserve" font-family="GillSans-LightItalic" font-style="italic" font-size="33.8" fill="#525252" transform="matrix(1.00, 0.00, -0.00, -1.00, 322.3, 10.0)">a</text><text xml:space="preserve" font-family="GillSans-LightItalic" font-style="italic" font-size="33.8" fill="#525252" transform="matrix(1.00, 0.00, -0.00, -1.00, 338.5, 10.0)">s</text><text xml:space="preserve" font-family="GillSans-LightItalic" font-style="italic" font-size="33.8" fill="#525252" transform="matrix(1.00, 0.00, -0.00, -1.00, 350.5, 10.0)"> </text><text xml:space="preserve" font-family="GillSans-LightItalic" font-style="italic" font-size="33.8" fill="#525252" transform="matrix(1.00, 0.00, -0.00, -1.00, 359.9, 10.0)">i</text><text xml:space="preserve" font-family="GillSans-LightItalic" font-style="italic" font-size="33.8" fill="#525252" transform="matrix(1.00, 0.00, -0.00, -1.00, 365.9, 10.0)">f</text><text xml:space="preserve" font-family="GillSans-LightItalic" font-style="italic" font-size="33.8" fill="#525252" transform="matrix(1.00, 0.00, -0.00, -1.00, 374.3, 10.0)"> </text><text xml:space="preserve" font-family="GillSans-LightItalic" font-style="italic" font-size="33.8" fill="#525252" transform="matrix(1.00, 0.00, -0.00, -1.00, 383.7, 10.0)">i</text><text xml:space="preserve" font-family="GillSans-LightItalic" font-style="italic" font-size="33.8" fill="#525252" transform="matrix(1.00, 0.00, -0.00, -1.00, 389.7, 10.0)">t</text><text xml:space="preserve" font-family="GillSans-LightItalic" font-style="italic" font-size="33.8" fill="#525252" transform="matrix(1.00, 0.00, -0.00, -1.00, 399.2, 10.0)">)</text><text xml:space="preserve" font-family="GillSans-LightItalic" font-style="italic" font-size="33.8" fill="#525252" transform="matrix(1.00, 0.00, -0.00, -1.00, 409.4, 10.0)"> </text><text xml:space="preserve" font-family="GillSans-SemiBold" font-weight="bold" font-size="33.8" fill="#525252" transform="matrix(1.00, 0.00, -0.00, -1.00, 418.9, 10.0)">i</text><text xml:space="preserve" font-family="GillSans-SemiBold" font-weight="bold" font-size="33.8" fill="#525252" transform="matrix(1.00, 0.00, -0.00, -1.00, 427.3, 10.0)">s</text><text xml:space="preserve" font-family="GillSans-SemiBold" font-weight="bold" font-size="33.8" fill="#525252" transform="matrix(1.00, 0.00, -0.00, -1.00, 440.9, 10.0)"> </text><text xml:space="preserve" font-family="GillSans-SemiBold" font-weight="bold" font-size="33.8" fill="#525252" transform="matrix(1.00, 0.00, -0.00, -1.00, 450.3, 10.0)">i</text><text xml:space="preserve" font-family="GillSans-SemiBold" font-weight="bold" font-size="33.8" fill="#525252" transform="matrix(1.00, 0.00, -0.00, -1.00, 458.7, 10.0)">m</text><text xml:space="preserve" font-family="GillSans-SemiBold" font-weight="bold" font-size="33.8" fill="#525252" transform="matrix(1.00, 0.00, -0.00, -1.00, 487.3, 10.0)">m</text><text xml:space="preserve" font-family="GillSans-SemiBold" font-weight="bold" font-size="33.8" fill="#525252" transform="matrix(1.00, 0.00, -0.00, -1.00, 516.0, 10.0)">u</text><text xml:space="preserve" font-family="GillSans-SemiBold" font-weight="bold" font-size="33.8" fill="#525252" transform="matrix(1.00, 0.00, -0.00, -1.00, 534.3, 10.0)">t</text><text xml:space="preserve" font-family="GillSans-SemiBold" font-weight="bold" font-size="33.8" fill="#525252" transform="matrix(1.00, 0.00, -0.00, -1.00, 546.8, 10.0)">a</text><text xml:space="preserve" font-family="GillSans-SemiBold" font-weight="bold" font-size="33.8" fill="#525252" transform="matrix(1.00, 0.00, -0.00, -1.00, 563.1, 10.0)">b</text><text xml:space="preserve" font-family="GillSans-SemiBold" font-weight="bold" font-size="33.8" fill="#525252" transform="matrix(1.00, 0.00, -0.00, -1.00, 581.7, 10.0)">l</text><text xml:space="preserve" font-family="GillSans-SemiBold" font-weight="bold" font-size="33.8" fill="#525252" transform="matrix(1.00, 0.00, -0.00, -1.00, 590.1, 10.0)">e</text></g></svg>