<?xml version="1.0" encoding="UTF-8" standalone="no"?><svg xmlns="http://www.w3.org/2000/svg" xmlns:xlink="http://www.w3.org/1999/xlink" clip-rule="evenodd" stroke-miterlimit="4.00" viewBox="0 0 1024 768"><desc>SVG generated by Keynote</desc><defs></defs><g transform="matrix(1.00, 0.00, -0.00, -1.00, 0.0, 768.0)"><g><clipPath id="clip-32"><path d="M 0.0 768.0 L 1024.0 768.0 L 1024.0 0.0 L 0.0 0.0 Z M 0.0 768.0 "></path></clipPath><g clip-path="url(#clip-32)"><image xlink:href="../../293415CD-D1BA-41BB-8703-BAEDA9FFCE27/assets/D3CB8578D364082F6943B53F933CCC32.jpeg" width="1024.00" height="768.00" transform="matrix(1.00, 0.00, -0.00, -1.00, 0.0, 768.0)"></image></g></g><text xml:space="preserve" font-family="GillSans-Light" font-size="72.0" fill="#525252" transform="matrix(1.00, 0.00, -0.00, -1.00, 356.0, 628.0)">p</text><text xml:space="preserve" font-family="GillSans-Light" font-size="72.0" fill="#525252" transform="matrix(1.00, 0.00, -0.00, -1.00, 392.7, 628.0)">r</text><text xml:space="preserve" font-family="GillSans-Light" font-size="72.0" fill="#525252" transform="matrix(1.00, 0.00, -0.00, -1.00, 416.7, 628.0)">e</text><text xml:space="preserve" font-family="GillSans-Light" font-size="72.0" fill="#525252" transform="matrix(1.00, 0.00, -0.00, -1.00, 451.2, 628.0)">d</text><text xml:space="preserve" font-family="GillSans-Light" font-size="72.0" fill="#525252" transform="matrix(1.00, 0.00, -0.00, -1.00, 487.8, 628.0)">i</text><text xml:space="preserve" font-family="GillSans-Light" font-size="72.0" fill="#525252" transform="matrix(1.00, 0.00, -0.00, -1.00, 501.4, 628.0)">c</text><text xml:space="preserve" font-family="GillSans-Light" font-size="72.0" fill="#525252" transform="matrix(1.00, 0.00, -0.00, -1.00, 531.4, 628.0)">t</text><text xml:space="preserve" font-family="GillSans-Light" font-size="72.0" fill="#525252" transform="matrix(1.00, 0.00, -0.00, -1.00, 553.1, 628.0)">a</text><text xml:space="preserve" font-family="GillSans-Light" font-size="72.0" fill="#525252" transform="matrix(1.00, 0.00, -0.00, -1.00, 583.8, 628.0)">b</text><text xml:space="preserve" font-family="GillSans-Light" font-size="72.0" fill="#525252" transform="matrix(1.00, 0.00, -0.00, -1.00, 619.4, 628.0)">l</text><text xml:space="preserve" font-family="GillSans-Light" font-size="72.0" fill="#525252" transform="matrix(1.00, 0.00, -0.00, -1.00, 633.0, 628.0)">e</text><text xml:space="preserve" font-family="GillSans-SemiBold" font-weight="bold" font-size="37.7" fill="#525252" transform="matrix(1.00, 0.00, -0.00, -1.00, 32.0, 508.4)">•</text><text xml:space="preserve" font-family="GillSans-SemiBold" font-weight="bold" font-size="46.0" fill="#525252" transform="matrix(1.00, 0.00, -0.00, -1.00, 73.0, 506.0)">s</text><text xml:space="preserve" font-family="GillSans-SemiBold" font-weight="bold" font-size="46.0" fill="#525252" transform="matrix(1.00, 0.00, -0.00, -1.00, 91.6, 506.0)">i</text><text xml:space="preserve" font-family="GillSans-SemiBold" font-weight="bold" font-size="46.0" fill="#525252" transform="matrix(1.00, 0.00, -0.00, -1.00, 103.0, 506.0)">n</text><text xml:space="preserve" font-family="GillSans-SemiBold" font-weight="bold" font-size="46.0" fill="#525252" transform="matrix(1.00, 0.00, -0.00, -1.00, 127.9, 506.0)">g</text><text xml:space="preserve" font-family="GillSans-SemiBold" font-weight="bold" font-size="46.0" fill="#525252" transform="matrix(1.00, 0.00, -0.00, -1.00, 150.4, 506.0)">l</text><text xml:space="preserve" font-family="GillSans-SemiBold" font-weight="bold" font-size="46.0" fill="#525252" transform="matrix(1.00, 0.00, -0.00, -1.00, 161.8, 506.0)">e</text><text xml:space="preserve" font-family="GillSans-SemiBold" font-weight="bold" font-size="46.0" fill="#525252" transform="matrix(1.00, 0.00, -0.00, -1.00, 185.6, 506.0)"> </text><text xml:space="preserve" font-family="GillSans-SemiBold" font-weight="bold" font-size="46.0" fill="#525252" transform="matrix(1.00, 0.00, -0.00, -1.00, 198.3, 506.0)">s</text><text xml:space="preserve" font-family="GillSans-SemiBold" font-weight="bold" font-size="46.0" fill="#525252" transform="matrix(1.00, 0.00, -0.00, -1.00, 216.9, 506.0)">t</text><text xml:space="preserve" font-family="GillSans-SemiBold" font-weight="bold" font-size="46.0" fill="#525252" transform="matrix(1.00, 0.00, -0.00, -1.00, 233.9, 506.0)">a</text><text xml:space="preserve" font-family="GillSans-SemiBold" font-weight="bold" font-size="46.0" fill="#525252" transform="matrix(1.00, 0.00, -0.00, -1.00, 256.1, 506.0)">t</text><text xml:space="preserve" font-family="GillSans-SemiBold" font-weight="bold" font-size="46.0" fill="#525252" transform="matrix(1.00, 0.00, -0.00, -1.00, 273.1, 506.0)">e</text><text xml:space="preserve" font-family="GillSans-SemiBold" font-weight="bold" font-size="46.0" fill="#525252" transform="matrix(1.00, 0.00, -0.00, -1.00, 296.8, 506.0)"> </text><text xml:space="preserve" font-family="GillSans-SemiBold" font-weight="bold" font-size="46.0" fill="#525252" transform="matrix(1.00, 0.00, -0.00, -1.00, 309.6, 506.0)">t</text><text xml:space="preserve" font-family="GillSans-SemiBold" font-weight="bold" font-size="46.0" fill="#525252" transform="matrix(1.00, 0.00, -0.00, -1.00, 326.6, 506.0)">r</text><text xml:space="preserve" font-family="GillSans-SemiBold" font-weight="bold" font-size="46.0" fill="#525252" transform="matrix(1.00, 0.00, -0.00, -1.00, 344.9, 506.0)">e</text><text xml:space="preserve" font-family="GillSans-SemiBold" font-weight="bold" font-size="46.0" fill="#525252" transform="matrix(1.00, 0.00, -0.00, -1.00, 368.6, 506.0)">e</text><text xml:space="preserve" font-family="GillSans-SemiBold" font-weight="bold" font-size="46.0" fill="#525252" transform="matrix(1.00, 0.00, -0.00, -1.00, 392.4, 506.0)"> </text><text xml:space="preserve" font-family="GillSans-SemiBold" font-weight="bold" font-size="37.7" fill="#525252" transform="matrix(1.00, 0.00, -0.00, -1.00, 32.0, 435.4)">•</text><text xml:space="preserve" font-family="GillSans-SemiBold" font-weight="bold" font-size="46.0" fill="#525252" transform="matrix(1.00, 0.00, -0.00, -1.00, 73.0, 432.0)">s</text><text xml:space="preserve" font-family="GillSans-SemiBold" font-weight="bold" font-size="46.0" fill="#525252" transform="matrix(1.00, 0.00, -0.00, -1.00, 91.6, 432.0)">t</text><text xml:space="preserve" font-family="GillSans-SemiBold" font-weight="bold" font-size="46.0" fill="#525252" transform="matrix(1.00, 0.00, -0.00, -1.00, 108.6, 432.0)">a</text><text xml:space="preserve" font-family="GillSans-SemiBold" font-weight="bold" font-size="46.0" fill="#525252" transform="matrix(1.00, 0.00, -0.00, -1.00, 130.8, 432.0)">t</text><text xml:space="preserve" font-family="GillSans-SemiBold" font-weight="bold" font-size="46.0" fill="#525252" transform="matrix(1.00, 0.00, -0.00, -1.00, 147.7, 432.0)">e</text><text xml:space="preserve" font-family="GillSans-SemiBold" font-weight="bold" font-size="46.0" fill="#525252" transform="matrix(1.00, 0.00, -0.00, -1.00, 171.5, 432.0)"> </text><text xml:space="preserve" font-family="GillSans-SemiBold" font-weight="bold" font-size="46.0" fill="#525252" transform="matrix(1.00, 0.00, -0.00, -1.00, 184.3, 432.0)">i</text><text xml:space="preserve" font-family="GillSans-SemiBold" font-weight="bold" font-size="46.0" fill="#525252" transform="matrix(1.00, 0.00, -0.00, -1.00, 195.7, 432.0)">s</text><text xml:space="preserve" font-family="GillSans-SemiBold" font-weight="bold" font-size="46.0" fill="#525252" transform="matrix(1.00, 0.00, -0.00, -1.00, 214.2, 432.0)"> </text><text xml:space="preserve" font-family="GillSans-SemiBold" font-weight="bold" font-size="46.0" fill="#525252" transform="matrix(1.00, 0.00, -0.00, -1.00, 227.0, 432.0)">i</text><text xml:space="preserve" font-family="GillSans-SemiBold" font-weight="bold" font-size="46.0" fill="#525252" transform="matrix(1.00, 0.00, -0.00, -1.00, 238.4, 432.0)">m</text><text xml:space="preserve" font-family="GillSans-SemiBold" font-weight="bold" font-size="46.0" fill="#525252" transform="matrix(1.00, 0.00, -0.00, -1.00, 277.4, 432.0)">m</text><text xml:space="preserve" font-family="GillSans-SemiBold" font-weight="bold" font-size="46.0" fill="#525252" transform="matrix(1.00, 0.00, -0.00, -1.00, 316.3, 432.0)">u</text><text xml:space="preserve" font-family="GillSans-SemiBold" font-weight="bold" font-size="46.0" fill="#525252" transform="matrix(1.00, 0.00, -0.00, -1.00, 341.1, 432.0)">t</text><text xml:space="preserve" font-family="GillSans-SemiBold" font-weight="bold" font-size="46.0" fill="#525252" transform="matrix(1.00, 0.00, -0.00, -1.00, 358.1, 432.0)">a</text><text xml:space="preserve" font-family="GillSans-SemiBold" font-weight="bold" font-size="46.0" fill="#525252" transform="matrix(1.00, 0.00, -0.00, -1.00, 380.3, 432.0)">b</text><text xml:space="preserve" font-family="GillSans-SemiBold" font-weight="bold" font-size="46.0" fill="#525252" transform="matrix(1.00, 0.00, -0.00, -1.00, 405.6, 432.0)">l</text><text xml:space="preserve" font-family="GillSans-SemiBold" font-weight="bold" font-size="46.0" fill="#525252" transform="matrix(1.00, 0.00, -0.00, -1.00, 417.0, 432.0)">e</text><text xml:space="preserve" font-family="GillSans-SemiBold" font-weight="bold" font-size="46.0" fill="#525252" transform="matrix(1.00, 0.00, -0.00, -1.00, 440.7, 432.0)"> </text><text xml:space="preserve" font-family="GillSans-Light" font-size="37.7" fill="#525252" transform="matrix(1.00, 0.00, -0.00, -1.00, 32.0, 364.5)">•</text><text xml:space="preserve" font-family="GillSans-Light" font-size="46.0" fill="#525252" transform="matrix(1.00, 0.00, -0.00, -1.00, 73.0, 362.0)">m</text><text xml:space="preserve" font-family="GillSans-Light" font-size="46.0" fill="#525252" transform="matrix(1.00, 0.00, -0.00, -1.00, 107.8, 362.0)">u</text><text xml:space="preserve" font-family="GillSans-Light" font-size="46.0" fill="#525252" transform="matrix(1.00, 0.00, -0.00, -1.00, 130.3, 362.0)">t</text><text xml:space="preserve" font-family="GillSans-Light" font-size="46.0" fill="#525252" transform="matrix(1.00, 0.00, -0.00, -1.00, 144.2, 362.0)">a</text><text xml:space="preserve" font-family="GillSans-Light" font-size="46.0" fill="#525252" transform="matrix(1.00, 0.00, -0.00, -1.00, 163.8, 362.0)">t</text><text xml:space="preserve" font-family="GillSans-Light" font-size="46.0" fill="#525252" transform="matrix(1.00, 0.00, -0.00, -1.00, 177.7, 362.0)">i</text><text xml:space="preserve" font-family="GillSans-Light" font-size="46.0" fill="#525252" transform="matrix(1.00, 0.00, -0.00, -1.00, 186.3, 362.0)">o</text><text xml:space="preserve" font-family="GillSans-Light" font-size="46.0" fill="#525252" transform="matrix(1.00, 0.00, -0.00, -1.00, 211.3, 362.0)">n</text><text xml:space="preserve" font-family="GillSans-Light" font-size="46.0" fill="#525252" transform="matrix(1.00, 0.00, -0.00, -1.00, 233.8, 362.0)">s</text><text xml:space="preserve" font-family="GillSans-Light" font-size="46.0" fill="#525252" transform="matrix(1.00, 0.00, -0.00, -1.00, 250.1, 362.0)"> </text><text xml:space="preserve" font-family="GillSans-Light" font-size="46.0" fill="#525252" transform="matrix(1.00, 0.00, -0.00, -1.00, 262.9, 362.0)">a</text><text xml:space="preserve" font-family="GillSans-Light" font-size="46.0" fill="#525252" transform="matrix(1.00, 0.00, -0.00, -1.00, 282.5, 362.0)">r</text><text xml:space="preserve" font-family="GillSans-Light" font-size="46.0" fill="#525252" transform="matrix(1.00, 0.00, -0.00, -1.00, 297.8, 362.0)">e</text><text xml:space="preserve" font-family="GillSans-Light" font-size="46.0" fill="#525252" transform="matrix(1.00, 0.00, -0.00, -1.00, 319.9, 362.0)"> </text><text xml:space="preserve" font-family="GillSans-Light" font-size="46.0" fill="#525252" transform="matrix(1.00, 0.00, -0.00, -1.00, 332.6, 362.0)">d</text><text xml:space="preserve" font-family="GillSans-Light" font-size="46.0" fill="#525252" transform="matrix(1.00, 0.00, -0.00, -1.00, 356.1, 362.0)">e</text><text xml:space="preserve" font-family="GillSans-Light" font-size="46.0" fill="#525252" transform="matrix(1.00, 0.00, -0.00, -1.00, 378.1, 362.0)">s</text><text xml:space="preserve" font-family="GillSans-Light" font-size="46.0" fill="#525252" transform="matrix(1.00, 0.00, -0.00, -1.00, 394.4, 362.0)">c</text><text xml:space="preserve" font-family="GillSans-Light" font-size="46.0" fill="#525252" transform="matrix(1.00, 0.00, -0.00, -1.00, 413.6, 362.0)">r</text><text xml:space="preserve" font-family="GillSans-Light" font-size="46.0" fill="#525252" transform="matrix(1.00, 0.00, -0.00, -1.00, 430.0, 362.0)">i</text><text xml:space="preserve" font-family="GillSans-Light" font-size="46.0" fill="#525252" transform="matrix(1.00, 0.00, -0.00, -1.00, 438.7, 362.0)">b</text><text xml:space="preserve" font-family="GillSans-Light" font-size="46.0" fill="#525252" transform="matrix(1.00, 0.00, -0.00, -1.00, 462.1, 362.0)">e</text><text xml:space="preserve" font-family="GillSans-Light" font-size="46.0" fill="#525252" transform="matrix(1.00, 0.00, -0.00, -1.00, 484.2, 362.0)">d</text><text xml:space="preserve" font-family="GillSans-Light" font-size="46.0" fill="#525252" transform="matrix(1.00, 0.00, -0.00, -1.00, 507.6, 362.0)"> </text><text xml:space="preserve" font-family="GillSans-Light" font-size="46.0" fill="#525252" transform="matrix(1.00, 0.00, -0.00, -1.00, 520.4, 362.0)">w</text><text xml:space="preserve" font-family="GillSans-Light" font-size="46.0" fill="#525252" transform="matrix(1.00, 0.00, -0.00, -1.00, 552.9, 362.0)">i</text><text xml:space="preserve" font-family="GillSans-Light" font-size="46.0" fill="#525252" transform="matrix(1.00, 0.00, -0.00, -1.00, 561.6, 362.0)">t</text><text xml:space="preserve" font-family="GillSans-Light" font-size="46.0" fill="#525252" transform="matrix(1.00, 0.00, -0.00, -1.00, 575.5, 362.0)">h</text><text xml:space="preserve" font-family="GillSans-Light" font-size="46.0" fill="#525252" transform="matrix(1.00, 0.00, -0.00, -1.00, 598.0, 362.0)"> </text><text xml:space="preserve" font-family="GillSans-Light" font-size="46.0" fill="#525252" transform="matrix(1.00, 0.00, -0.00, -1.00, 610.8, 362.0)">a</text><text xml:space="preserve" font-family="GillSans-Light" font-size="46.0" fill="#525252" transform="matrix(1.00, 0.00, -0.00, -1.00, 630.4, 362.0)">c</text><text xml:space="preserve" font-family="GillSans-Light" font-size="46.0" fill="#525252" transform="matrix(1.00, 0.00, -0.00, -1.00, 649.6, 362.0)">t</text><text xml:space="preserve" font-family="GillSans-Light" font-size="46.0" fill="#525252" transform="matrix(1.00, 0.00, -0.00, -1.00, 663.5, 362.0)">i</text><text xml:space="preserve" font-family="GillSans-Light" font-size="46.0" fill="#525252" transform="matrix(1.00, 0.00, -0.00, -1.00, 672.1, 362.0)">o</text><text xml:space="preserve" font-family="GillSans-Light" font-size="46.0" fill="#525252" transform="matrix(1.00, 0.00, -0.00, -1.00, 697.0, 362.0)">n</text><text xml:space="preserve" font-family="GillSans-Light" font-size="46.0" fill="#525252" transform="matrix(1.00, 0.00, -0.00, -1.00, 719.6, 362.0)">s</text><text xml:space="preserve" font-family="GillSans-Light" font-size="37.7" fill="#525252" transform="matrix(1.00, 0.00, -0.00, -1.00, 32.0, 294.5)">•</text><text xml:space="preserve" font-family="GillSans-Light" font-size="46.0" fill="#525252" transform="matrix(1.00, 0.00, -0.00, -1.00, 73.0, 292.0)">n</text><text xml:space="preserve" font-family="GillSans-Light" font-size="46.0" fill="#525252" transform="matrix(1.00, 0.00, -0.00, -1.00, 95.6, 292.0)">e</text><text xml:space="preserve" font-family="GillSans-Light" font-size="46.0" fill="#525252" transform="matrix(1.00, 0.00, -0.00, -1.00, 117.6, 292.0)">w</text><text xml:space="preserve" font-family="GillSans-Light" font-size="46.0" fill="#525252" transform="matrix(1.00, 0.00, -0.00, -1.00, 150.2, 292.0)"> </text><text xml:space="preserve" font-family="GillSans-Light" font-size="46.0" fill="#525252" transform="matrix(1.00, 0.00, -0.00, -1.00, 162.9, 292.0)">s</text><text xml:space="preserve" font-family="GillSans-Light" font-size="46.0" fill="#525252" transform="matrix(1.00, 0.00, -0.00, -1.00, 179.2, 292.0)">t</text><text xml:space="preserve" font-family="GillSans-Light" font-size="46.0" fill="#525252" transform="matrix(1.00, 0.00, -0.00, -1.00, 193.1, 292.0)">a</text><text xml:space="preserve" font-family="GillSans-Light" font-size="46.0" fill="#525252" transform="matrix(1.00, 0.00, -0.00, -1.00, 212.7, 292.0)">t</text><text xml:space="preserve" font-family="GillSans-Light" font-size="46.0" fill="#525252" transform="matrix(1.00, 0.00, -0.00, -1.00, 226.6, 292.0)">e</text><text xml:space="preserve" font-family="GillSans-Light" font-size="46.0" fill="#525252" transform="matrix(1.00, 0.00, -0.00, -1.00, 248.6, 292.0)"> </text><text xml:space="preserve" font-family="GillSans-Light" font-size="46.0" fill="#525252" transform="matrix(1.00, 0.00, -0.00, -1.00, 261.4, 292.0)">i</text><text xml:space="preserve" font-family="GillSans-Light" font-size="46.0" fill="#525252" transform="matrix(1.00, 0.00, -0.00, -1.00, 270.0, 292.0)">s</text><text xml:space="preserve" font-family="GillSans-Light" font-size="46.0" fill="#525252" transform="matrix(1.00, 0.00, -0.00, -1.00, 286.3, 292.0)"> </text><text xml:space="preserve" font-family="GillSans-Light" font-size="46.0" fill="#525252" transform="matrix(1.00, 0.00, -0.00, -1.00, 299.1, 292.0)">c</text><text xml:space="preserve" font-family="GillSans-Light" font-size="46.0" fill="#525252" transform="matrix(1.00, 0.00, -0.00, -1.00, 318.3, 292.0)">r</text><text xml:space="preserve" font-family="GillSans-Light" font-size="46.0" fill="#525252" transform="matrix(1.00, 0.00, -0.00, -1.00, 333.6, 292.0)">e</text><text xml:space="preserve" font-family="GillSans-Light" font-size="46.0" fill="#525252" transform="matrix(1.00, 0.00, -0.00, -1.00, 355.6, 292.0)">a</text><text xml:space="preserve" font-family="GillSans-Light" font-size="46.0" fill="#525252" transform="matrix(1.00, 0.00, -0.00, -1.00, 375.2, 292.0)">t</text><text xml:space="preserve" font-family="GillSans-Light" font-size="46.0" fill="#525252" transform="matrix(1.00, 0.00, -0.00, -1.00, 389.1, 292.0)">e</text><text xml:space="preserve" font-family="GillSans-Light" font-size="46.0" fill="#525252" transform="matrix(1.00, 0.00, -0.00, -1.00, 411.2, 292.0)">d</text><text xml:space="preserve" font-family="GillSans-Light" font-size="46.0" fill="#525252" transform="matrix(1.00, 0.00, -0.00, -1.00, 434.6, 292.0)"> </text><text xml:space="preserve" font-family="GillSans-Light" font-size="46.0" fill="#525252" transform="matrix(1.00, 0.00, -0.00, -1.00, 447.4, 292.0)">b</text><text xml:space="preserve" font-family="GillSans-Light" font-size="46.0" fill="#525252" transform="matrix(1.00, 0.00, -0.00, -1.00, 470.1, 292.0)">y</text><text xml:space="preserve" font-family="GillSans-Light" font-size="46.0" fill="#525252" transform="matrix(1.00, 0.00, -0.00, -1.00, 489.3, 292.0)"> </text><text xml:space="preserve" font-family="GillSans-Light" font-size="46.0" fill="#525252" transform="matrix(1.00, 0.00, -0.00, -1.00, 502.1, 292.0)">t</text><text xml:space="preserve" font-family="GillSans-Light" font-size="46.0" fill="#525252" transform="matrix(1.00, 0.00, -0.00, -1.00, 515.9, 292.0)">h</text><text xml:space="preserve" font-family="GillSans-Light" font-size="46.0" fill="#525252" transform="matrix(1.00, 0.00, -0.00, -1.00, 538.5, 292.0)">e</text><text xml:space="preserve" font-family="GillSans-Light" font-size="46.0" fill="#525252" transform="matrix(1.00, 0.00, -0.00, -1.00, 560.5, 292.0)"> </text><text xml:space="preserve" font-family="GillSans-Light" font-size="46.0" fill="#525252" transform="matrix(1.00, 0.00, -0.00, -1.00, 573.3, 292.0)">r</text><text xml:space="preserve" font-family="GillSans-Light" font-size="46.0" fill="#525252" transform="matrix(1.00, 0.00, -0.00, -1.00, 588.6, 292.0)">e</text><text xml:space="preserve" font-family="GillSans-Light" font-size="46.0" fill="#525252" transform="matrix(1.00, 0.00, -0.00, -1.00, 610.6, 292.0)">d</text><text xml:space="preserve" font-family="GillSans-Light" font-size="46.0" fill="#525252" transform="matrix(1.00, 0.00, -0.00, -1.00, 634.1, 292.0)">u</text><text xml:space="preserve" font-family="GillSans-Light" font-size="46.0" fill="#525252" transform="matrix(1.00, 0.00, -0.00, -1.00, 656.6, 292.0)">c</text><text xml:space="preserve" font-family="GillSans-Light" font-size="46.0" fill="#525252" transform="matrix(1.00, 0.00, -0.00, -1.00, 675.8, 292.0)">e</text><text xml:space="preserve" font-family="GillSans-Light" font-size="46.0" fill="#525252" transform="matrix(1.00, 0.00, -0.00, -1.00, 697.9, 292.0)">r</text></g></svg>