<?xml version="1.0" encoding="UTF-8" standalone="no"?><svg xmlns="http://www.w3.org/2000/svg" xmlns:xlink="http://www.w3.org/1999/xlink" clip-rule="evenodd" stroke-miterlimit="4.00" viewBox="0 0 108 23"><desc>SVG generated by Keynote</desc><defs></defs><g transform="matrix(1.00, 0.00, -0.00, -1.00, 0.0, 23.0)"><text xml:space="preserve" font-family="GillSans-Light" font-size="26.0" fill="#525252" transform="matrix(1.00, 0.00, -0.00, -1.00, 1.0, 3.0)">2</text><text xml:space="preserve" font-family="GillSans-Light" font-size="26.0" fill="#525252" transform="matrix(1.00, 0.00, -0.00, -1.00, 14.0, 3.0)">/</text><text xml:space="preserve" font-family="GillSans-Light" font-size="26.0" fill="#525252" transform="matrix(1.00, 0.00, -0.00, -1.00, 21.3, 3.0)">1</text><text xml:space="preserve" font-family="GillSans-Light" font-size="26.0" fill="#525252" transform="matrix(1.00, 0.00, -0.00, -1.00, 34.3, 3.0)">0</text><text xml:space="preserve" font-family="GillSans-Light" font-size="26.0" fill="#525252" transform="matrix(1.00, 0.00, -0.00, -1.00, 47.3, 3.0)">/</text><text xml:space="preserve" font-family="GillSans-Light" font-size="26.0" fill="#525252" transform="matrix(1.00, 0.00, -0.00, -1.00, 54.6, 3.0)">2</text><text xml:space="preserve" font-family="GillSans-Light" font-size="26.0" fill="#525252" transform="matrix(1.00, 0.00, -0.00, -1.00, 67.6, 3.0)">0</text><text xml:space="preserve" font-family="GillSans-Light" font-size="26.0" fill="#525252" transform="matrix(1.00, 0.00, -0.00, -1.00, 80.6, 3.0)">1</text><text xml:space="preserve" font-family="GillSans-Light" font-size="26.0" fill="#525252" transform="matrix(1.00, 0.00, -0.00, -1.00, 93.6, 3.0)">6</text></g></svg>