<?xml version="1.0" encoding="UTF-8" standalone="no"?><svg xmlns="http://www.w3.org/2000/svg" xmlns:xlink="http://www.w3.org/1999/xlink" clip-rule="evenodd" stroke-miterlimit="4.00" viewBox="0 0 309 53"><desc>SVG generated by Keynote</desc><defs></defs><g transform="matrix(1.00, 0.00, -0.00, -1.00, 0.0, 53.0)"><g><clipPath id="clip-1"><path d="M 43.7 -5.7 L 314.0 -5.7 L 314.0 58.7 L 43.7 58.7 Z M 43.7 -5.7 "></path></clipPath><g clip-path="url(#clip-1)"><text xml:space="preserve" font-family="GillSans-SemiBold" font-weight="bold" font-size="36.0" fill="#525252" transform="matrix(1.00, 0.00, -0.00, -1.00, 55.0, 14.0)">M</text><text xml:space="preserve" font-family="GillSans-SemiBold" font-weight="bold" font-size="36.0" fill="#525252" transform="matrix(1.00, 0.00, -0.00, -1.00, 85.1, 14.0)">o</text><text xml:space="preserve" font-family="GillSans-SemiBold" font-weight="bold" font-size="36.0" fill="#525252" transform="matrix(1.00, 0.00, -0.00, -1.00, 105.7, 14.0)">r</text><text xml:space="preserve" font-family="GillSans-SemiBold" font-weight="bold" font-size="36.0" fill="#525252" transform="matrix(1.00, 0.00, -0.00, -1.00, 120.0, 14.0)">d</text><text xml:space="preserve" font-family="GillSans-SemiBold" font-weight="bold" font-size="36.0" fill="#525252" transform="matrix(1.00, 0.00, -0.00, -1.00, 139.7, 14.0)">y</text><text xml:space="preserve" font-family="GillSans-SemiBold" font-weight="bold" font-size="36.0" fill="#525252" transform="matrix(1.00, 0.00, -0.00, -1.00, 157.0, 14.0)"> </text><text xml:space="preserve" font-family="GillSans-SemiBold" font-weight="bold" font-size="36.0" fill="#525252" transform="matrix(1.00, 0.00, -0.00, -1.00, 164.4, 14.0)">T</text><text xml:space="preserve" font-family="GillSans-SemiBold" font-weight="bold" font-size="36.0" fill="#525252" transform="matrix(1.00, 0.00, -0.00, -1.00, 188.4, 14.0)">i</text><text xml:space="preserve" font-family="GillSans-SemiBold" font-weight="bold" font-size="36.0" fill="#525252" transform="matrix(1.00, 0.00, -0.00, -1.00, 197.3, 14.0)">k</text><text xml:space="preserve" font-family="GillSans-SemiBold" font-weight="bold" font-size="36.0" fill="#525252" transform="matrix(1.00, 0.00, -0.00, -1.00, 216.0, 14.0)">o</text><text xml:space="preserve" font-family="GillSans-SemiBold" font-weight="bold" font-size="36.0" fill="#525252" transform="matrix(1.00, 0.00, -0.00, -1.00, 236.6, 14.0)">t</text><text xml:space="preserve" font-family="GillSans-SemiBold" font-weight="bold" font-size="36.0" fill="#525252" transform="matrix(1.00, 0.00, -0.00, -1.00, 249.9, 14.0)">z</text><text xml:space="preserve" font-family="GillSans-SemiBold" font-weight="bold" font-size="36.0" fill="#525252" transform="matrix(1.00, 0.00, -0.00, -1.00, 267.0, 14.0)">k</text><text xml:space="preserve" font-family="GillSans-SemiBold" font-weight="bold" font-size="36.0" fill="#525252" transform="matrix(1.00, 0.00, -0.00, -1.00, 285.7, 14.0)">y</text></g></g><g><clipPath id="clip-2"><path d="M 0.7 9.9 L 1.0 43.1 C 1.0 47.0 3.9 50.0 7.8 50.0 L 40.9 50.0 C 44.9 50.0 48.0 47.0 48.0 43.1 L 48.0 9.9 C 48.0 6.0 44.9 3.0 40.9 3.0 L 7.8 3.0 C 3.9 3.0 0.7 6.0 0.7 9.9 Z M 0.7 9.9 "></path></clipPath><g clip-path="url(#clip-2)"><g><clipPath id="clip-3"><path d="M 0.7 2.8 L 48.0 2.8 L 48.0 50.2 L 0.7 50.2 Z M 0.7 2.8 "></path></clipPath><g clip-path="url(#clip-3)"><image xlink:href="A74A44228556990B72020E0DADEA7E0B.png" width="49.00" height="49.00" transform="matrix(1.00, 0.00, -0.00, -1.00, 0.0, 51.0)"></image></g></g></g></g></g></svg>