<?xml version="1.0" encoding="UTF-8" standalone="no"?><svg xmlns="http://www.w3.org/2000/svg" xmlns:xlink="http://www.w3.org/1999/xlink" clip-rule="evenodd" stroke-miterlimit="4.00" viewBox="0 0 713 49"><desc>SVG generated by Keynote</desc><defs></defs><g transform="matrix(1.00, 0.00, -0.00, -1.00, 0.0, 49.0)"><text xml:space="preserve" font-family="GillSans-Light" font-size="37.7" fill="#525252" transform="matrix(1.00, 0.00, -0.00, -1.00, 0.0, 14.5)">•</text><text xml:space="preserve" font-family="GillSans-Light" font-size="46.0" fill="#525252" transform="matrix(1.00, 0.00, -0.00, -1.00, 41.0, 12.0)">r</text><text xml:space="preserve" font-family="GillSans-Light" font-size="46.0" fill="#525252" transform="matrix(1.00, 0.00, -0.00, -1.00, 56.3, 12.0)">e</text><text xml:space="preserve" font-family="GillSans-Light" font-size="46.0" fill="#525252" transform="matrix(1.00, 0.00, -0.00, -1.00, 78.4, 12.0)">d</text><text xml:space="preserve" font-family="GillSans-Light" font-size="46.0" fill="#525252" transform="matrix(1.00, 0.00, -0.00, -1.00, 101.8, 12.0)">u</text><text xml:space="preserve" font-family="GillSans-Light" font-size="46.0" fill="#525252" transform="matrix(1.00, 0.00, -0.00, -1.00, 124.4, 12.0)">c</text><text xml:space="preserve" font-family="GillSans-Light" font-size="46.0" fill="#525252" transform="matrix(1.00, 0.00, -0.00, -1.00, 143.5, 12.0)">e</text><text xml:space="preserve" font-family="GillSans-Light" font-size="46.0" fill="#525252" transform="matrix(1.00, 0.00, -0.00, -1.00, 165.6, 12.0)">r</text><text xml:space="preserve" font-family="GillSans-Light" font-size="46.0" fill="#525252" transform="matrix(1.00, 0.00, -0.00, -1.00, 180.9, 12.0)"> </text><text xml:space="preserve" font-family="GillSans-Light" font-size="46.0" fill="#525252" transform="matrix(1.00, 0.00, -0.00, -1.00, 193.7, 12.0)">-</text><text xml:space="preserve" font-family="GillSans-Light" font-size="46.0" fill="#525252" transform="matrix(1.00, 0.00, -0.00, -1.00, 208.1, 12.0)"> </text><text xml:space="preserve" font-family="GillSans-Light" font-size="46.0" fill="#525252" transform="matrix(1.00, 0.00, -0.00, -1.00, 220.8, 12.0)">(</text><text xml:space="preserve" font-family="GillSans-Light" font-size="46.0" fill="#525252" transform="matrix(1.00, 0.00, -0.00, -1.00, 236.1, 12.0)">s</text><text xml:space="preserve" font-family="GillSans-Light" font-size="46.0" fill="#525252" transform="matrix(1.00, 0.00, -0.00, -1.00, 252.4, 12.0)">t</text><text xml:space="preserve" font-family="GillSans-Light" font-size="46.0" fill="#525252" transform="matrix(1.00, 0.00, -0.00, -1.00, 266.3, 12.0)">a</text><text xml:space="preserve" font-family="GillSans-Light" font-size="46.0" fill="#525252" transform="matrix(1.00, 0.00, -0.00, -1.00, 285.9, 12.0)">t</text><text xml:space="preserve" font-family="GillSans-Light" font-size="46.0" fill="#525252" transform="matrix(1.00, 0.00, -0.00, -1.00, 299.8, 12.0)">e</text><text xml:space="preserve" font-family="GillSans-Light" font-size="46.0" fill="#525252" transform="matrix(1.00, 0.00, -0.00, -1.00, 323.2, 12.0)">,</text><text xml:space="preserve" font-family="GillSans-Light" font-size="46.0" fill="#525252" transform="matrix(1.00, 0.00, -0.00, -1.00, 331.3, 12.0)">a</text><text xml:space="preserve" font-family="GillSans-Light" font-size="46.0" fill="#525252" transform="matrix(1.00, 0.00, -0.00, -1.00, 350.9, 12.0)">c</text><text xml:space="preserve" font-family="GillSans-Light" font-size="46.0" fill="#525252" transform="matrix(1.00, 0.00, -0.00, -1.00, 370.1, 12.0)">t</text><text xml:space="preserve" font-family="GillSans-Light" font-size="46.0" fill="#525252" transform="matrix(1.00, 0.00, -0.00, -1.00, 384.0, 12.0)">i</text><text xml:space="preserve" font-family="GillSans-Light" font-size="46.0" fill="#525252" transform="matrix(1.00, 0.00, -0.00, -1.00, 392.6, 12.0)">o</text><text xml:space="preserve" font-family="GillSans-Light" font-size="46.0" fill="#525252" transform="matrix(1.00, 0.00, -0.00, -1.00, 417.6, 12.0)">n</text><text xml:space="preserve" font-family="GillSans-Light" font-size="46.0" fill="#525252" transform="matrix(1.00, 0.00, -0.00, -1.00, 440.1, 12.0)">)</text><text xml:space="preserve" font-family="GillSans-Light" font-size="46.0" fill="#525252" transform="matrix(1.00, 0.00, -0.00, -1.00, 455.5, 12.0)"> </text><text xml:space="preserve" font-family="GillSans-Light" font-size="46.0" fill="#525252" transform="matrix(1.00, 0.00, -0.00, -1.00, 468.2, 12.0)">=</text><text xml:space="preserve" font-family="GillSans-Light" font-size="46.0" fill="#525252" transform="matrix(1.00, 0.00, -0.00, -1.00, 498.6, 12.0)">&gt;</text><text xml:space="preserve" font-family="GillSans-Light" font-size="46.0" fill="#525252" transform="matrix(1.00, 0.00, -0.00, -1.00, 529.0, 12.0)"> </text><text xml:space="preserve" font-family="GillSans-Light" font-size="46.0" fill="#525252" transform="matrix(1.00, 0.00, -0.00, -1.00, 541.7, 12.0)">n</text><text xml:space="preserve" font-family="GillSans-Light" font-size="46.0" fill="#525252" transform="matrix(1.00, 0.00, -0.00, -1.00, 564.3, 12.0)">e</text><text xml:space="preserve" font-family="GillSans-Light" font-size="46.0" fill="#525252" transform="matrix(1.00, 0.00, -0.00, -1.00, 586.3, 12.0)">x</text><text xml:space="preserve" font-family="GillSans-Light" font-size="46.0" fill="#525252" transform="matrix(1.00, 0.00, -0.00, -1.00, 608.4, 12.0)">t</text><text xml:space="preserve" font-family="GillSans-Light" font-size="46.0" fill="#525252" transform="matrix(1.00, 0.00, -0.00, -1.00, 622.2, 12.0)">S</text><text xml:space="preserve" font-family="GillSans-Light" font-size="46.0" fill="#525252" transform="matrix(1.00, 0.00, -0.00, -1.00, 643.8, 12.0)">t</text><text xml:space="preserve" font-family="GillSans-Light" font-size="46.0" fill="#525252" transform="matrix(1.00, 0.00, -0.00, -1.00, 657.7, 12.0)">a</text><text xml:space="preserve" font-family="GillSans-Light" font-size="46.0" fill="#525252" transform="matrix(1.00, 0.00, -0.00, -1.00, 677.3, 12.0)">t</text><text xml:space="preserve" font-family="GillSans-Light" font-size="46.0" fill="#525252" transform="matrix(1.00, 0.00, -0.00, -1.00, 691.2, 12.0)">e</text></g></svg>