<?xml version="1.0" encoding="UTF-8" standalone="no"?><svg xmlns="http://www.w3.org/2000/svg" xmlns:xlink="http://www.w3.org/1999/xlink" clip-rule="evenodd" stroke-miterlimit="4.00" viewBox="0 0 162 40"><desc>SVG generated by Keynote</desc><defs></defs><g transform="matrix(1.00, 0.00, -0.00, -1.00, 0.0, 40.0)"><text xml:space="preserve" font-family="GillSans-Light" font-size="33.9" fill="#525252" transform="matrix(1.00, 0.00, -0.00, -1.00, 0.0, 8.8)">•</text><text xml:space="preserve" font-family="GillSans-Light" font-size="41.4" fill="#525252" transform="matrix(1.00, 0.00, -0.00, -1.00, 37.0, 6.0)">T</text><text xml:space="preserve" font-family="GillSans-Light" font-size="41.4" fill="#525252" transform="matrix(1.00, 0.00, -0.00, -1.00, 60.3, 6.0)">h</text><text xml:space="preserve" font-family="GillSans-Light" font-size="41.4" fill="#525252" transform="matrix(1.00, 0.00, -0.00, -1.00, 80.2, 6.0)">a</text><text xml:space="preserve" font-family="GillSans-Light" font-size="41.4" fill="#525252" transform="matrix(1.00, 0.00, -0.00, -1.00, 97.5, 6.0)">t</text><text xml:space="preserve" font-family="GillSans-Light" font-size="41.4" fill="#525252" transform="matrix(1.00, 0.00, -0.00, -1.00, 109.6, 6.0)">s</text><text xml:space="preserve" font-family="GillSans-Light" font-size="41.4" fill="#525252" transform="matrix(1.00, 0.00, -0.00, -1.00, 123.8, 6.0)"> </text><text xml:space="preserve" font-family="GillSans-Light" font-size="41.4" fill="#525252" transform="matrix(1.00, 0.00, -0.00, -1.00, 134.9, 6.0)">I</text><text xml:space="preserve" font-family="GillSans-Light" font-size="41.4" fill="#525252" transform="matrix(1.00, 0.00, -0.00, -1.00, 143.1, 6.0)">t</text><text xml:space="preserve" font-family="GillSans-Light" font-size="41.4" fill="#525252" transform="matrix(1.00, 0.00, -0.00, -1.00, 155.2, 6.0)">.</text></g></svg>