<?xml version="1.0" encoding="UTF-8" standalone="no"?><svg xmlns="http://www.w3.org/2000/svg" xmlns:xlink="http://www.w3.org/1999/xlink" clip-rule="evenodd" stroke-miterlimit="4.00" viewBox="0 0 195 45"><desc>SVG generated by Keynote</desc><defs></defs><g transform="matrix(1.00, 0.00, -0.00, -1.00, 0.0, 45.0)"><text xml:space="preserve" font-family="GillSans-Light" font-size="33.9" fill="#525252" transform="matrix(1.00, 0.00, -0.00, -1.00, 0.0, 14.0)">•</text><text xml:space="preserve" font-family="GillSans-Light" font-size="41.4" fill="#525252" transform="matrix(1.00, 0.00, -0.00, -1.00, 37.0, 11.0)">N</text><text xml:space="preserve" font-family="GillSans-Light" font-size="41.4" fill="#525252" transform="matrix(1.00, 0.00, -0.00, -1.00, 68.5, 11.0)">o</text><text xml:space="preserve" font-family="GillSans-Light" font-size="41.4" fill="#525252" transform="matrix(1.00, 0.00, -0.00, -1.00, 90.5, 11.0)"> </text><text xml:space="preserve" font-family="GillSans-Light" font-size="41.4" fill="#525252" transform="matrix(1.00, 0.00, -0.00, -1.00, 101.6, 11.0)">R</text><text xml:space="preserve" font-family="GillSans-Light" font-size="41.4" fill="#525252" transform="matrix(1.00, 0.00, -0.00, -1.00, 124.9, 11.0)">e</text><text xml:space="preserve" font-family="GillSans-Light" font-size="41.4" fill="#525252" transform="matrix(1.00, 0.00, -0.00, -1.00, 144.4, 11.0)">a</text><text xml:space="preserve" font-family="GillSans-Light" font-size="41.4" fill="#525252" transform="matrix(1.00, 0.00, -0.00, -1.00, 161.6, 11.0)">l</text><text xml:space="preserve" font-family="GillSans-Light" font-size="41.4" fill="#525252" transform="matrix(1.00, 0.00, -0.00, -1.00, 169.0, 11.0)">l</text><text xml:space="preserve" font-family="GillSans-Light" font-size="41.4" fill="#525252" transform="matrix(1.00, 0.00, -0.00, -1.00, 175.9, 11.0)">y</text><text xml:space="preserve" font-family="GillSans-Light" font-size="41.4" fill="#525252" transform="matrix(1.00, 0.00, -0.00, -1.00, 189.1, 11.0)">.</text><text xml:space="preserve" font-family="GillSans-Light" font-size="41.4" fill="#525252" transform="matrix(1.00, 0.00, -0.00, -1.00, 192.6, 11.0)"> </text></g></svg>