<?xml version="1.0" encoding="UTF-8" standalone="no"?><svg xmlns="http://www.w3.org/2000/svg" xmlns:xlink="http://www.w3.org/1999/xlink" clip-rule="evenodd" stroke-miterlimit="4.00" viewBox="0 0 513 44"><desc>SVG generated by Keynote</desc><defs></defs><g transform="matrix(1.00, 0.00, -0.00, -1.00, 0.0, 44.0)"><text xml:space="preserve" font-family="GillSans-Light" font-size="33.9" fill="#525252" transform="matrix(1.00, 0.00, -0.00, -1.00, 0.0, 13.6)">•</text><text xml:space="preserve" font-family="GillSans-Light" font-size="41.4" fill="#525252" transform="matrix(1.00, 0.00, -0.00, -1.00, 37.0, 11.0)">A</text><text xml:space="preserve" font-family="GillSans-Light" font-size="41.4" fill="#525252" transform="matrix(1.00, 0.00, -0.00, -1.00, 64.2, 11.0)">l</text><text xml:space="preserve" font-family="GillSans-Light" font-size="41.4" fill="#525252" transform="matrix(1.00, 0.00, -0.00, -1.00, 71.6, 11.0)">l</text><text xml:space="preserve" font-family="GillSans-Light" font-size="41.4" fill="#525252" transform="matrix(1.00, 0.00, -0.00, -1.00, 78.9, 11.0)"> </text><text xml:space="preserve" font-family="GillSans-Light" font-size="41.4" fill="#525252" transform="matrix(1.00, 0.00, -0.00, -1.00, 90.0, 11.0)">d</text><text xml:space="preserve" font-family="GillSans-Light" font-size="41.4" fill="#525252" transform="matrix(1.00, 0.00, -0.00, -1.00, 110.7, 11.0)">a</text><text xml:space="preserve" font-family="GillSans-Light" font-size="41.4" fill="#525252" transform="matrix(1.00, 0.00, -0.00, -1.00, 128.0, 11.0)">t</text><text xml:space="preserve" font-family="GillSans-Light" font-size="41.4" fill="#525252" transform="matrix(1.00, 0.00, -0.00, -1.00, 140.0, 11.0)">a</text><text xml:space="preserve" font-family="GillSans-Light" font-size="41.4" fill="#525252" transform="matrix(1.00, 0.00, -0.00, -1.00, 157.3, 11.0)"> </text><text xml:space="preserve" font-family="GillSans-Light" font-size="41.4" fill="#525252" transform="matrix(1.00, 0.00, -0.00, -1.00, 168.4, 11.0)">l</text><text xml:space="preserve" font-family="GillSans-Light" font-size="41.4" fill="#525252" transform="matrix(1.00, 0.00, -0.00, -1.00, 175.8, 11.0)">i</text><text xml:space="preserve" font-family="GillSans-Light" font-size="41.4" fill="#525252" transform="matrix(1.00, 0.00, -0.00, -1.00, 183.1, 11.0)">v</text><text xml:space="preserve" font-family="GillSans-Light" font-size="41.4" fill="#525252" transform="matrix(1.00, 0.00, -0.00, -1.00, 199.8, 11.0)">e</text><text xml:space="preserve" font-family="GillSans-Light" font-size="41.4" fill="#525252" transform="matrix(1.00, 0.00, -0.00, -1.00, 219.2, 11.0)">s</text><text xml:space="preserve" font-family="GillSans-Light" font-size="41.4" fill="#525252" transform="matrix(1.00, 0.00, -0.00, -1.00, 233.4, 11.0)"> </text><text xml:space="preserve" font-family="GillSans-Light" font-size="41.4" fill="#525252" transform="matrix(1.00, 0.00, -0.00, -1.00, 244.5, 11.0)">i</text><text xml:space="preserve" font-family="GillSans-Light" font-size="41.4" fill="#525252" transform="matrix(1.00, 0.00, -0.00, -1.00, 251.9, 11.0)">n</text><text xml:space="preserve" font-family="GillSans-Light" font-size="41.4" fill="#525252" transform="matrix(1.00, 0.00, -0.00, -1.00, 271.8, 11.0)"> </text><text xml:space="preserve" font-family="GillSans-Light" font-size="41.4" fill="#525252" transform="matrix(1.00, 0.00, -0.00, -1.00, 282.8, 11.0)">a</text><text xml:space="preserve" font-family="GillSans-Light" font-size="41.4" fill="#525252" transform="matrix(1.00, 0.00, -0.00, -1.00, 300.1, 11.0)"> </text><text xml:space="preserve" font-family="GillSans-Light" font-size="41.4" fill="#525252" transform="matrix(1.00, 0.00, -0.00, -1.00, 311.2, 11.0)">s</text><text xml:space="preserve" font-family="GillSans-Light" font-size="41.4" fill="#525252" transform="matrix(1.00, 0.00, -0.00, -1.00, 325.4, 11.0)">i</text><text xml:space="preserve" font-family="GillSans-Light" font-size="41.4" fill="#525252" transform="matrix(1.00, 0.00, -0.00, -1.00, 332.8, 11.0)">n</text><text xml:space="preserve" font-family="GillSans-Light" font-size="41.4" fill="#525252" transform="matrix(1.00, 0.00, -0.00, -1.00, 352.7, 11.0)">g</text><text xml:space="preserve" font-family="GillSans-Light" font-size="41.4" fill="#525252" transform="matrix(1.00, 0.00, -0.00, -1.00, 369.9, 11.0)">l</text><text xml:space="preserve" font-family="GillSans-Light" font-size="41.4" fill="#525252" transform="matrix(1.00, 0.00, -0.00, -1.00, 377.3, 11.0)">e</text><text xml:space="preserve" font-family="GillSans-Light" font-size="41.4" fill="#525252" transform="matrix(1.00, 0.00, -0.00, -1.00, 396.7, 11.0)"> </text><text xml:space="preserve" font-family="GillSans-Light" font-size="41.4" fill="#525252" transform="matrix(1.00, 0.00, -0.00, -1.00, 407.8, 11.0)">o</text><text xml:space="preserve" font-family="GillSans-Light" font-size="41.4" fill="#525252" transform="matrix(1.00, 0.00, -0.00, -1.00, 429.8, 11.0)">b</text><text xml:space="preserve" font-family="GillSans-Light" font-size="41.4" fill="#525252" transform="matrix(1.00, 0.00, -0.00, -1.00, 450.5, 11.0)">j</text><text xml:space="preserve" font-family="GillSans-Light" font-size="41.4" fill="#525252" transform="matrix(1.00, 0.00, -0.00, -1.00, 457.9, 11.0)">e</text><text xml:space="preserve" font-family="GillSans-Light" font-size="41.4" fill="#525252" transform="matrix(1.00, 0.00, -0.00, -1.00, 477.3, 11.0)">c</text><text xml:space="preserve" font-family="GillSans-Light" font-size="41.4" fill="#525252" transform="matrix(1.00, 0.00, -0.00, -1.00, 494.2, 11.0)">t</text><text xml:space="preserve" font-family="GillSans-Light" font-size="41.4" fill="#525252" transform="matrix(1.00, 0.00, -0.00, -1.00, 506.2, 11.0)">.</text></g></svg>