<?xml version="1.0" encoding="UTF-8" standalone="no"?><svg xmlns="http://www.w3.org/2000/svg" xmlns:xlink="http://www.w3.org/1999/xlink" clip-rule="evenodd" stroke-miterlimit="4.00" viewBox="0 0 372 45"><desc>SVG generated by Keynote</desc><defs></defs><g transform="matrix(1.00, 0.00, -0.00, -1.00, 0.0, 45.0)"><text xml:space="preserve" font-family="GillSans-Light" font-size="33.9" fill="#525252" transform="matrix(1.00, 0.00, -0.00, -1.00, 0.0, 14.0)">•</text><text xml:space="preserve" font-family="GillSans-Light" font-size="41.4" fill="#525252" transform="matrix(1.00, 0.00, -0.00, -1.00, 37.0, 11.0)">E</text><text xml:space="preserve" font-family="GillSans-Light" font-size="41.4" fill="#525252" transform="matrix(1.00, 0.00, -0.00, -1.00, 56.9, 11.0)">a</text><text xml:space="preserve" font-family="GillSans-Light" font-size="41.4" fill="#525252" transform="matrix(1.00, 0.00, -0.00, -1.00, 74.2, 11.0)">s</text><text xml:space="preserve" font-family="GillSans-Light" font-size="41.4" fill="#525252" transform="matrix(1.00, 0.00, -0.00, -1.00, 88.4, 11.0)">y</text><text xml:space="preserve" font-family="GillSans-Light" font-size="41.4" fill="#525252" transform="matrix(1.00, 0.00, -0.00, -1.00, 105.3, 11.0)"> </text><text xml:space="preserve" font-family="GillSans-Light" font-size="41.4" fill="#525252" transform="matrix(1.00, 0.00, -0.00, -1.00, 116.4, 11.0)">t</text><text xml:space="preserve" font-family="GillSans-Light" font-size="41.4" fill="#525252" transform="matrix(1.00, 0.00, -0.00, -1.00, 128.4, 11.0)">o</text><text xml:space="preserve" font-family="GillSans-Light" font-size="41.4" fill="#525252" transform="matrix(1.00, 0.00, -0.00, -1.00, 150.5, 11.0)"> </text><text xml:space="preserve" font-family="GillSans-Light" font-size="41.4" fill="#525252" transform="matrix(1.00, 0.00, -0.00, -1.00, 161.6, 11.0)">r</text><text xml:space="preserve" font-family="GillSans-Light" font-size="41.4" fill="#525252" transform="matrix(1.00, 0.00, -0.00, -1.00, 175.0, 11.0)">e</text><text xml:space="preserve" font-family="GillSans-Light" font-size="41.4" fill="#525252" transform="matrix(1.00, 0.00, -0.00, -1.00, 194.4, 11.0)">a</text><text xml:space="preserve" font-family="GillSans-Light" font-size="41.4" fill="#525252" transform="matrix(1.00, 0.00, -0.00, -1.00, 211.6, 11.0)">s</text><text xml:space="preserve" font-family="GillSans-Light" font-size="41.4" fill="#525252" transform="matrix(1.00, 0.00, -0.00, -1.00, 225.9, 11.0)">o</text><text xml:space="preserve" font-family="GillSans-Light" font-size="41.4" fill="#525252" transform="matrix(1.00, 0.00, -0.00, -1.00, 247.9, 11.0)">n</text><text xml:space="preserve" font-family="GillSans-Light" font-size="41.4" fill="#525252" transform="matrix(1.00, 0.00, -0.00, -1.00, 267.8, 11.0)"> </text><text xml:space="preserve" font-family="GillSans-Light" font-size="41.4" fill="#525252" transform="matrix(1.00, 0.00, -0.00, -1.00, 278.9, 11.0)">a</text><text xml:space="preserve" font-family="GillSans-Light" font-size="41.4" fill="#525252" transform="matrix(1.00, 0.00, -0.00, -1.00, 296.2, 11.0)">b</text><text xml:space="preserve" font-family="GillSans-Light" font-size="41.4" fill="#525252" transform="matrix(1.00, 0.00, -0.00, -1.00, 316.9, 11.0)">o</text><text xml:space="preserve" font-family="GillSans-Light" font-size="41.4" fill="#525252" transform="matrix(1.00, 0.00, -0.00, -1.00, 338.9, 11.0)">u</text><text xml:space="preserve" font-family="GillSans-Light" font-size="41.4" fill="#525252" transform="matrix(1.00, 0.00, -0.00, -1.00, 358.8, 11.0)">t</text></g></svg>