<?xml version="1.0" encoding="UTF-8" standalone="no"?><svg xmlns="http://www.w3.org/2000/svg" xmlns:xlink="http://www.w3.org/1999/xlink" clip-rule="evenodd" stroke-miterlimit="4.00" viewBox="0 0 913 44"><desc>SVG generated by Keynote</desc><defs></defs><g transform="matrix(1.00, 0.00, -0.00, -1.00, 0.0, 44.0)"><text xml:space="preserve" font-family="GillSans-Light" font-size="33.9" fill="#525252" transform="matrix(1.00, 0.00, -0.00, -1.00, 0.0, 13.4)">•</text><text xml:space="preserve" font-family="GillSans-Light" font-size="41.4" fill="#525252" transform="matrix(1.00, 0.00, -0.00, -1.00, 37.0, 11.0)">E</text><text xml:space="preserve" font-family="GillSans-Light" font-size="41.4" fill="#525252" transform="matrix(1.00, 0.00, -0.00, -1.00, 56.9, 11.0)">a</text><text xml:space="preserve" font-family="GillSans-Light" font-size="41.4" fill="#525252" transform="matrix(1.00, 0.00, -0.00, -1.00, 74.2, 11.0)">s</text><text xml:space="preserve" font-family="GillSans-Light" font-size="41.4" fill="#525252" transform="matrix(1.00, 0.00, -0.00, -1.00, 88.4, 11.0)">y</text><text xml:space="preserve" font-family="GillSans-Light" font-size="41.4" fill="#525252" transform="matrix(1.00, 0.00, -0.00, -1.00, 105.3, 11.0)"> </text><text xml:space="preserve" font-family="GillSans-Light" font-size="41.4" fill="#525252" transform="matrix(1.00, 0.00, -0.00, -1.00, 116.4, 11.0)">t</text><text xml:space="preserve" font-family="GillSans-Light" font-size="41.4" fill="#525252" transform="matrix(1.00, 0.00, -0.00, -1.00, 128.4, 11.0)">o</text><text xml:space="preserve" font-family="GillSans-Light" font-size="41.4" fill="#525252" transform="matrix(1.00, 0.00, -0.00, -1.00, 150.5, 11.0)"> </text><text xml:space="preserve" font-family="GillSans-Light" font-size="41.4" fill="#525252" transform="matrix(1.00, 0.00, -0.00, -1.00, 161.6, 11.0)">r</text><text xml:space="preserve" font-family="GillSans-Light" font-size="41.4" fill="#525252" transform="matrix(1.00, 0.00, -0.00, -1.00, 175.0, 11.0)">e</text><text xml:space="preserve" font-family="GillSans-Light" font-size="41.4" fill="#525252" transform="matrix(1.00, 0.00, -0.00, -1.00, 194.4, 11.0)">p</text><text xml:space="preserve" font-family="GillSans-Light" font-size="41.4" fill="#525252" transform="matrix(1.00, 0.00, -0.00, -1.00, 215.1, 11.0)">r</text><text xml:space="preserve" font-family="GillSans-Light" font-size="41.4" fill="#525252" transform="matrix(1.00, 0.00, -0.00, -1.00, 228.5, 11.0)">o</text><text xml:space="preserve" font-family="GillSans-Light" font-size="41.4" fill="#525252" transform="matrix(1.00, 0.00, -0.00, -1.00, 250.5, 11.0)">d</text><text xml:space="preserve" font-family="GillSans-Light" font-size="41.4" fill="#525252" transform="matrix(1.00, 0.00, -0.00, -1.00, 271.2, 11.0)">u</text><text xml:space="preserve" font-family="GillSans-Light" font-size="41.4" fill="#525252" transform="matrix(1.00, 0.00, -0.00, -1.00, 291.1, 11.0)">c</text><text xml:space="preserve" font-family="GillSans-Light" font-size="41.4" fill="#525252" transform="matrix(1.00, 0.00, -0.00, -1.00, 307.9, 11.0)">e</text><text xml:space="preserve" font-family="GillSans-Light" font-size="41.4" fill="#525252" transform="matrix(1.00, 0.00, -0.00, -1.00, 327.4, 11.0)"> </text><text xml:space="preserve" font-family="GillSans-Light" font-size="41.4" fill="#525252" transform="matrix(1.00, 0.00, -0.00, -1.00, 338.5, 11.0)">a</text><text xml:space="preserve" font-family="GillSans-Light" font-size="41.4" fill="#525252" transform="matrix(1.00, 0.00, -0.00, -1.00, 355.7, 11.0)">n</text><text xml:space="preserve" font-family="GillSans-Light" font-size="41.4" fill="#525252" transform="matrix(1.00, 0.00, -0.00, -1.00, 375.6, 11.0)"> </text><text xml:space="preserve" font-family="GillSans-Light" font-size="41.4" fill="#525252" transform="matrix(1.00, 0.00, -0.00, -1.00, 386.7, 11.0)">e</text><text xml:space="preserve" font-family="GillSans-Light" font-size="41.4" fill="#525252" transform="matrix(1.00, 0.00, -0.00, -1.00, 406.1, 11.0)">r</text><text xml:space="preserve" font-family="GillSans-Light" font-size="41.4" fill="#525252" transform="matrix(1.00, 0.00, -0.00, -1.00, 420.5, 11.0)">r</text><text xml:space="preserve" font-family="GillSans-Light" font-size="41.4" fill="#525252" transform="matrix(1.00, 0.00, -0.00, -1.00, 433.9, 11.0)">o</text><text xml:space="preserve" font-family="GillSans-Light" font-size="41.4" fill="#525252" transform="matrix(1.00, 0.00, -0.00, -1.00, 456.0, 11.0)">r</text><text xml:space="preserve" font-family="GillSans-Light" font-size="41.4" fill="#525252" transform="matrix(1.00, 0.00, -0.00, -1.00, 469.3, 11.0)"> </text><text xml:space="preserve" font-family="GillSans-Light" font-size="41.4" fill="#525252" transform="matrix(1.00, 0.00, -0.00, -1.00, 480.4, 11.0)">(</text><text xml:space="preserve" font-family="GillSans-Light" font-size="41.4" fill="#525252" transform="matrix(1.00, 0.00, -0.00, -1.00, 493.8, 11.0)">j</text><text xml:space="preserve" font-family="GillSans-Light" font-size="41.4" fill="#525252" transform="matrix(1.00, 0.00, -0.00, -1.00, 501.2, 11.0)">u</text><text xml:space="preserve" font-family="GillSans-Light" font-size="41.4" fill="#525252" transform="matrix(1.00, 0.00, -0.00, -1.00, 521.1, 11.0)">s</text><text xml:space="preserve" font-family="GillSans-Light" font-size="41.4" fill="#525252" transform="matrix(1.00, 0.00, -0.00, -1.00, 535.3, 11.0)">t</text><text xml:space="preserve" font-family="GillSans-Light" font-size="41.4" fill="#525252" transform="matrix(1.00, 0.00, -0.00, -1.00, 547.4, 11.0)"> </text><text xml:space="preserve" font-family="GillSans-Light" font-size="41.4" fill="#525252" transform="matrix(1.00, 0.00, -0.00, -1.00, 558.5, 11.0)">c</text><text xml:space="preserve" font-family="GillSans-Light" font-size="41.4" fill="#525252" transform="matrix(1.00, 0.00, -0.00, -1.00, 575.4, 11.0)">o</text><text xml:space="preserve" font-family="GillSans-Light" font-size="41.4" fill="#525252" transform="matrix(1.00, 0.00, -0.00, -1.00, 597.4, 11.0)">p</text><text xml:space="preserve" font-family="GillSans-Light" font-size="41.4" fill="#525252" transform="matrix(1.00, 0.00, -0.00, -1.00, 617.2, 11.0)">y</text><text xml:space="preserve" font-family="GillSans-Light" font-size="41.4" fill="#525252" transform="matrix(1.00, 0.00, -0.00, -1.00, 634.1, 11.0)"> </text><text xml:space="preserve" font-family="GillSans-Light" font-size="41.4" fill="#525252" transform="matrix(1.00, 0.00, -0.00, -1.00, 645.2, 11.0)">s</text><text xml:space="preserve" font-family="GillSans-Light" font-size="41.4" fill="#525252" transform="matrix(1.00, 0.00, -0.00, -1.00, 659.4, 11.0)">t</text><text xml:space="preserve" font-family="GillSans-Light" font-size="41.4" fill="#525252" transform="matrix(1.00, 0.00, -0.00, -1.00, 671.5, 11.0)">a</text><text xml:space="preserve" font-family="GillSans-Light" font-size="41.4" fill="#525252" transform="matrix(1.00, 0.00, -0.00, -1.00, 688.8, 11.0)">t</text><text xml:space="preserve" font-family="GillSans-Light" font-size="41.4" fill="#525252" transform="matrix(1.00, 0.00, -0.00, -1.00, 700.9, 11.0)">e</text><text xml:space="preserve" font-family="GillSans-Light" font-size="41.4" fill="#525252" transform="matrix(1.00, 0.00, -0.00, -1.00, 720.3, 11.0)"> </text><text xml:space="preserve" font-family="GillSans-Light" font-size="41.4" fill="#525252" transform="matrix(1.00, 0.00, -0.00, -1.00, 731.4, 11.0)">t</text><text xml:space="preserve" font-family="GillSans-Light" font-size="41.4" fill="#525252" transform="matrix(1.00, 0.00, -0.00, -1.00, 743.5, 11.0)">o</text><text xml:space="preserve" font-family="GillSans-Light" font-size="41.4" fill="#525252" transform="matrix(1.00, 0.00, -0.00, -1.00, 765.5, 11.0)"> </text><text xml:space="preserve" font-family="GillSans-Light" font-size="41.4" fill="#525252" transform="matrix(1.00, 0.00, -0.00, -1.00, 776.6, 11.0)">d</text><text xml:space="preserve" font-family="GillSans-Light" font-size="41.4" fill="#525252" transform="matrix(1.00, 0.00, -0.00, -1.00, 797.3, 11.0)">e</text><text xml:space="preserve" font-family="GillSans-Light" font-size="41.4" fill="#525252" transform="matrix(1.00, 0.00, -0.00, -1.00, 816.7, 11.0)">v</text><text xml:space="preserve" font-family="GillSans-Light" font-size="41.4" fill="#525252" transform="matrix(1.00, 0.00, -0.00, -1.00, 834.0, 11.0)"> </text><text xml:space="preserve" font-family="GillSans-Light" font-size="41.4" fill="#525252" transform="matrix(1.00, 0.00, -0.00, -1.00, 845.1, 11.0)">e</text><text xml:space="preserve" font-family="GillSans-Light" font-size="41.4" fill="#525252" transform="matrix(1.00, 0.00, -0.00, -1.00, 864.5, 11.0)">n</text><text xml:space="preserve" font-family="GillSans-Light" font-size="41.4" fill="#525252" transform="matrix(1.00, 0.00, -0.00, -1.00, 883.8, 11.0)">v</text><text xml:space="preserve" font-family="GillSans-Light" font-size="41.4" fill="#525252" transform="matrix(1.00, 0.00, -0.00, -1.00, 901.1, 11.0)">)</text></g></svg>