<?xml version="1.0" encoding="UTF-8" standalone="no"?><svg xmlns="http://www.w3.org/2000/svg" xmlns:xlink="http://www.w3.org/1999/xlink" clip-rule="evenodd" stroke-miterlimit="4.00" viewBox="0 0 482 40"><desc>SVG generated by Keynote</desc><defs></defs><g transform="matrix(1.00, 0.00, -0.00, -1.00, 0.0, 40.0)"><text xml:space="preserve" font-family="GillSans-Light" font-size="40.0" fill="#525252" transform="matrix(1.00, 0.00, -0.00, -1.00, 1.0, 11.0)">s</text><text xml:space="preserve" font-family="GillSans-Light" font-size="40.0" fill="#525252" transform="matrix(1.00, 0.00, -0.00, -1.00, 15.2, 11.0)">i</text><text xml:space="preserve" font-family="GillSans-Light" font-size="40.0" fill="#525252" transform="matrix(1.00, 0.00, -0.00, -1.00, 22.7, 11.0)">m</text><text xml:space="preserve" font-family="GillSans-Light" font-size="40.0" fill="#525252" transform="matrix(1.00, 0.00, -0.00, -1.00, 53.5, 11.0)">i</text><text xml:space="preserve" font-family="GillSans-Light" font-size="40.0" fill="#525252" transform="matrix(1.00, 0.00, -0.00, -1.00, 61.0, 11.0)">l</text><text xml:space="preserve" font-family="GillSans-Light" font-size="40.0" fill="#525252" transform="matrix(1.00, 0.00, -0.00, -1.00, 68.6, 11.0)">a</text><text xml:space="preserve" font-family="GillSans-Light" font-size="40.0" fill="#525252" transform="matrix(1.00, 0.00, -0.00, -1.00, 85.6, 11.0)">r</text><text xml:space="preserve" font-family="GillSans-Light" font-size="40.0" fill="#525252" transform="matrix(1.00, 0.00, -0.00, -1.00, 98.9, 11.0)"> </text><text xml:space="preserve" font-family="GillSans-Light" font-size="40.0" fill="#525252" transform="matrix(1.00, 0.00, -0.00, -1.00, 110.0, 11.0)">t</text><text xml:space="preserve" font-family="GillSans-Light" font-size="40.0" fill="#525252" transform="matrix(1.00, 0.00, -0.00, -1.00, 122.1, 11.0)">o</text><text xml:space="preserve" font-family="GillSans-Light" font-size="40.0" fill="#525252" transform="matrix(1.00, 0.00, -0.00, -1.00, 143.8, 11.0)"> </text><text xml:space="preserve" font-family="GillSans-Light" font-size="40.0" fill="#525252" transform="matrix(1.00, 0.00, -0.00, -1.00, 154.9, 11.0)">h</text><text xml:space="preserve" font-family="GillSans-Light" font-size="40.0" fill="#525252" transform="matrix(1.00, 0.00, -0.00, -1.00, 174.5, 11.0)">o</text><text xml:space="preserve" font-family="GillSans-Light" font-size="40.0" fill="#525252" transform="matrix(1.00, 0.00, -0.00, -1.00, 195.6, 11.0)">w</text><text xml:space="preserve" font-family="GillSans-Light" font-size="40.0" fill="#525252" transform="matrix(1.00, 0.00, -0.00, -1.00, 223.9, 11.0)"> </text><text xml:space="preserve" font-family="GillSans-Light" font-size="40.0" fill="#525252" transform="matrix(1.00, 0.00, -0.00, -1.00, 235.0, 11.0)">[</text><text xml:space="preserve" font-family="GillSans-Light" font-size="40.0" fill="#525252" transform="matrix(1.00, 0.00, -0.00, -1.00, 247.1, 11.0)">]</text><text xml:space="preserve" font-family="GillSans-Light" font-size="40.0" fill="#525252" transform="matrix(1.00, 0.00, -0.00, -1.00, 259.1, 11.0)">.</text><text xml:space="preserve" font-family="GillSans-Light" font-size="40.0" fill="#525252" transform="matrix(1.00, 0.00, -0.00, -1.00, 266.2, 11.0)">r</text><text xml:space="preserve" font-family="GillSans-Light" font-size="40.0" fill="#525252" transform="matrix(1.00, 0.00, -0.00, -1.00, 279.5, 11.0)">e</text><text xml:space="preserve" font-family="GillSans-Light" font-size="40.0" fill="#525252" transform="matrix(1.00, 0.00, -0.00, -1.00, 298.7, 11.0)">d</text><text xml:space="preserve" font-family="GillSans-Light" font-size="40.0" fill="#525252" transform="matrix(1.00, 0.00, -0.00, -1.00, 319.1, 11.0)">u</text><text xml:space="preserve" font-family="GillSans-Light" font-size="40.0" fill="#525252" transform="matrix(1.00, 0.00, -0.00, -1.00, 338.7, 11.0)">c</text><text xml:space="preserve" font-family="GillSans-Light" font-size="40.0" fill="#525252" transform="matrix(1.00, 0.00, -0.00, -1.00, 355.4, 11.0)">e</text><text xml:space="preserve" font-family="GillSans-Light" font-size="40.0" fill="#525252" transform="matrix(1.00, 0.00, -0.00, -1.00, 374.5, 11.0)"> </text><text xml:space="preserve" font-family="GillSans-Light" font-size="40.0" fill="#525252" transform="matrix(1.00, 0.00, -0.00, -1.00, 385.6, 11.0)">w</text><text xml:space="preserve" font-family="GillSans-Light" font-size="40.0" fill="#525252" transform="matrix(1.00, 0.00, -0.00, -1.00, 413.3, 11.0)">o</text><text xml:space="preserve" font-family="GillSans-Light" font-size="40.0" fill="#525252" transform="matrix(1.00, 0.00, -0.00, -1.00, 435.0, 11.0)">r</text><text xml:space="preserve" font-family="GillSans-Light" font-size="40.0" fill="#525252" transform="matrix(1.00, 0.00, -0.00, -1.00, 449.9, 11.0)">k</text><text xml:space="preserve" font-family="GillSans-Light" font-size="40.0" fill="#525252" transform="matrix(1.00, 0.00, -0.00, -1.00, 467.0, 11.0)">s</text></g></svg>