<?xml version="1.0" encoding="UTF-8" standalone="no"?><svg xmlns="http://www.w3.org/2000/svg" xmlns:xlink="http://www.w3.org/1999/xlink" clip-rule="evenodd" stroke-miterlimit="4.00" viewBox="0 0 1024 768"><desc>SVG generated by Keynote</desc><defs></defs><g transform="matrix(1.00, 0.00, -0.00, -1.00, 0.0, 768.0)"><g><clipPath id="clip-45"><path d="M 0.0 768.0 L 1024.0 768.0 L 1024.0 0.0 L 0.0 0.0 Z M 0.0 768.0 "></path></clipPath><g clip-path="url(#clip-45)"><image xlink:href="../../293415CD-D1BA-41BB-8703-BAEDA9FFCE27/assets/D3CB8578D364082F6943B53F933CCC32.jpeg" width="1024.00" height="768.00" transform="matrix(1.00, 0.00, -0.00, -1.00, 0.0, 768.0)"></image></g></g><text xml:space="preserve" font-family="GillSans-Light" font-size="72.0" fill="#525252" transform="matrix(1.00, 0.00, -0.00, -1.00, 403.0, 628.0)">r</text><text xml:space="preserve" font-family="GillSans-Light" font-size="72.0" fill="#525252" transform="matrix(1.00, 0.00, -0.00, -1.00, 427.0, 628.0)">e</text><text xml:space="preserve" font-family="GillSans-Light" font-size="72.0" fill="#525252" transform="matrix(1.00, 0.00, -0.00, -1.00, 461.5, 628.0)">d</text><text xml:space="preserve" font-family="GillSans-Light" font-size="72.0" fill="#525252" transform="matrix(1.00, 0.00, -0.00, -1.00, 498.2, 628.0)">u</text><text xml:space="preserve" font-family="GillSans-Light" font-size="72.0" fill="#525252" transform="matrix(1.00, 0.00, -0.00, -1.00, 533.5, 628.0)">c</text><text xml:space="preserve" font-family="GillSans-Light" font-size="72.0" fill="#525252" transform="matrix(1.00, 0.00, -0.00, -1.00, 563.5, 628.0)">e</text><text xml:space="preserve" font-family="GillSans-Light" font-size="72.0" fill="#525252" transform="matrix(1.00, 0.00, -0.00, -1.00, 598.0, 628.0)">r</text><text xml:space="preserve" font-family="GillSans-Light" font-size="40.0" fill="#525252" transform="matrix(1.00, 0.00, -0.00, -1.00, 183.0, 543.0)">a</text><text xml:space="preserve" font-family="GillSans-Light" font-size="40.0" fill="#525252" transform="matrix(1.00, 0.00, -0.00, -1.00, 200.1, 543.0)"> </text><text xml:space="preserve" font-family="GillSans-Light" font-size="40.0" fill="#525252" transform="matrix(1.00, 0.00, -0.00, -1.00, 211.2, 543.0)">f</text><text xml:space="preserve" font-family="GillSans-Light" font-size="40.0" fill="#525252" transform="matrix(1.00, 0.00, -0.00, -1.00, 220.8, 543.0)">u</text><text xml:space="preserve" font-family="GillSans-Light" font-size="40.0" fill="#525252" transform="matrix(1.00, 0.00, -0.00, -1.00, 240.4, 543.0)">n</text><text xml:space="preserve" font-family="GillSans-Light" font-size="40.0" fill="#525252" transform="matrix(1.00, 0.00, -0.00, -1.00, 260.0, 543.0)">c</text><text xml:space="preserve" font-family="GillSans-Light" font-size="40.0" fill="#525252" transform="matrix(1.00, 0.00, -0.00, -1.00, 276.7, 543.0)">t</text><text xml:space="preserve" font-family="GillSans-Light" font-size="40.0" fill="#525252" transform="matrix(1.00, 0.00, -0.00, -1.00, 288.8, 543.0)">i</text><text xml:space="preserve" font-family="GillSans-Light" font-size="40.0" fill="#525252" transform="matrix(1.00, 0.00, -0.00, -1.00, 296.3, 543.0)">o</text><text xml:space="preserve" font-family="GillSans-Light" font-size="40.0" fill="#525252" transform="matrix(1.00, 0.00, -0.00, -1.00, 318.0, 543.0)">n</text><text xml:space="preserve" font-family="GillSans-Light" font-size="40.0" fill="#525252" transform="matrix(1.00, 0.00, -0.00, -1.00, 337.6, 543.0)"> </text><text xml:space="preserve" font-family="GillSans-Light" font-size="40.0" fill="#525252" transform="matrix(1.00, 0.00, -0.00, -1.00, 348.7, 543.0)">w</text><text xml:space="preserve" font-family="GillSans-Light" font-size="40.0" fill="#525252" transform="matrix(1.00, 0.00, -0.00, -1.00, 377.0, 543.0)">h</text><text xml:space="preserve" font-family="GillSans-Light" font-size="40.0" fill="#525252" transform="matrix(1.00, 0.00, -0.00, -1.00, 396.6, 543.0)">i</text><text xml:space="preserve" font-family="GillSans-Light" font-size="40.0" fill="#525252" transform="matrix(1.00, 0.00, -0.00, -1.00, 404.1, 543.0)">c</text><text xml:space="preserve" font-family="GillSans-Light" font-size="40.0" fill="#525252" transform="matrix(1.00, 0.00, -0.00, -1.00, 420.8, 543.0)">h</text><text xml:space="preserve" font-family="GillSans-Light" font-size="40.0" fill="#525252" transform="matrix(1.00, 0.00, -0.00, -1.00, 440.4, 543.0)"> </text><text xml:space="preserve" font-family="GillSans-Light" font-size="40.0" fill="#525252" transform="matrix(1.00, 0.00, -0.00, -1.00, 447.5, 543.0)">“</text><text xml:space="preserve" font-family="GillSans-Light" font-size="40.0" fill="#525252" transform="matrix(1.00, 0.00, -0.00, -1.00, 463.4, 543.0)">r</text><text xml:space="preserve" font-family="GillSans-Light" font-size="40.0" fill="#525252" transform="matrix(1.00, 0.00, -0.00, -1.00, 476.7, 543.0)">e</text><text xml:space="preserve" font-family="GillSans-Light" font-size="40.0" fill="#525252" transform="matrix(1.00, 0.00, -0.00, -1.00, 495.9, 543.0)">d</text><text xml:space="preserve" font-family="GillSans-Light" font-size="40.0" fill="#525252" transform="matrix(1.00, 0.00, -0.00, -1.00, 516.2, 543.0)">u</text><text xml:space="preserve" font-family="GillSans-Light" font-size="40.0" fill="#525252" transform="matrix(1.00, 0.00, -0.00, -1.00, 535.9, 543.0)">c</text><text xml:space="preserve" font-family="GillSans-Light" font-size="40.0" fill="#525252" transform="matrix(1.00, 0.00, -0.00, -1.00, 552.5, 543.0)">e</text><text xml:space="preserve" font-family="GillSans-Light" font-size="40.0" fill="#525252" transform="matrix(1.00, 0.00, -0.00, -1.00, 571.7, 543.0)">s</text><text xml:space="preserve" font-family="GillSans-Light" font-size="40.0" fill="#525252" transform="matrix(1.00, 0.00, -0.00, -1.00, 585.9, 543.0)">”</text><text xml:space="preserve" font-family="GillSans-Light" font-size="40.0" fill="#525252" transform="matrix(1.00, 0.00, -0.00, -1.00, 598.5, 543.0)"> </text><text xml:space="preserve" font-family="GillSans-Light" font-size="40.0" fill="#525252" transform="matrix(1.00, 0.00, -0.00, -1.00, 609.6, 543.0)">a</text><text xml:space="preserve" font-family="GillSans-Light" font-size="40.0" fill="#525252" transform="matrix(1.00, 0.00, -0.00, -1.00, 626.7, 543.0)"> </text><text xml:space="preserve" font-family="GillSans-Light" font-size="40.0" fill="#525252" transform="matrix(1.00, 0.00, -0.00, -1.00, 637.8, 543.0)">l</text><text xml:space="preserve" font-family="GillSans-Light" font-size="40.0" fill="#525252" transform="matrix(1.00, 0.00, -0.00, -1.00, 645.3, 543.0)">i</text><text xml:space="preserve" font-family="GillSans-Light" font-size="40.0" fill="#525252" transform="matrix(1.00, 0.00, -0.00, -1.00, 652.8, 543.0)">s</text><text xml:space="preserve" font-family="GillSans-Light" font-size="40.0" fill="#525252" transform="matrix(1.00, 0.00, -0.00, -1.00, 667.0, 543.0)">t</text><text xml:space="preserve" font-family="GillSans-Light" font-size="40.0" fill="#525252" transform="matrix(1.00, 0.00, -0.00, -1.00, 679.0, 543.0)"> </text><text xml:space="preserve" font-family="GillSans-Light" font-size="40.0" fill="#525252" transform="matrix(1.00, 0.00, -0.00, -1.00, 690.1, 543.0)">o</text><text xml:space="preserve" font-family="GillSans-Light" font-size="40.0" fill="#525252" transform="matrix(1.00, 0.00, -0.00, -1.00, 711.8, 543.0)">f</text><text xml:space="preserve" font-family="GillSans-Light" font-size="40.0" fill="#525252" transform="matrix(1.00, 0.00, -0.00, -1.00, 721.4, 543.0)"> </text><text xml:space="preserve" font-family="GillSans-Light" font-size="40.0" fill="#525252" transform="matrix(1.00, 0.00, -0.00, -1.00, 732.5, 543.0)">a</text><text xml:space="preserve" font-family="GillSans-Light" font-size="40.0" fill="#525252" transform="matrix(1.00, 0.00, -0.00, -1.00, 749.6, 543.0)">c</text><text xml:space="preserve" font-family="GillSans-Light" font-size="40.0" fill="#525252" transform="matrix(1.00, 0.00, -0.00, -1.00, 766.3, 543.0)">t</text><text xml:space="preserve" font-family="GillSans-Light" font-size="40.0" fill="#525252" transform="matrix(1.00, 0.00, -0.00, -1.00, 778.3, 543.0)">i</text><text xml:space="preserve" font-family="GillSans-Light" font-size="40.0" fill="#525252" transform="matrix(1.00, 0.00, -0.00, -1.00, 785.9, 543.0)">o</text><text xml:space="preserve" font-family="GillSans-Light" font-size="40.0" fill="#525252" transform="matrix(1.00, 0.00, -0.00, -1.00, 807.5, 543.0)">n</text><text xml:space="preserve" font-family="GillSans-Light" font-size="40.0" fill="#525252" transform="matrix(1.00, 0.00, -0.00, -1.00, 827.2, 543.0)">s</text><text xml:space="preserve" font-family="GillSans-Light" font-size="40.0" fill="#525252" transform="matrix(1.00, 0.00, -0.00, -1.00, 841.3, 543.0)"> </text><text xml:space="preserve" font-family="GillSans-Light" font-size="40.0" fill="#525252" transform="matrix(1.00, 0.00, -0.00, -1.00, 336.0, 487.0)">i</text><text xml:space="preserve" font-family="GillSans-Light" font-size="40.0" fill="#525252" transform="matrix(1.00, 0.00, -0.00, -1.00, 343.5, 487.0)">n</text><text xml:space="preserve" font-family="GillSans-Light" font-size="40.0" fill="#525252" transform="matrix(1.00, 0.00, -0.00, -1.00, 363.1, 487.0)">t</text><text xml:space="preserve" font-family="GillSans-Light" font-size="40.0" fill="#525252" transform="matrix(1.00, 0.00, -0.00, -1.00, 375.2, 487.0)">o</text><text xml:space="preserve" font-family="GillSans-Light" font-size="40.0" fill="#525252" transform="matrix(1.00, 0.00, -0.00, -1.00, 396.9, 487.0)"> </text><text xml:space="preserve" font-family="GillSans-Light" font-size="40.0" fill="#525252" transform="matrix(1.00, 0.00, -0.00, -1.00, 408.0, 487.0)">s</text><text xml:space="preserve" font-family="GillSans-Light" font-size="40.0" fill="#525252" transform="matrix(1.00, 0.00, -0.00, -1.00, 422.1, 487.0)">i</text><text xml:space="preserve" font-family="GillSans-Light" font-size="40.0" fill="#525252" transform="matrix(1.00, 0.00, -0.00, -1.00, 429.7, 487.0)">n</text><text xml:space="preserve" font-family="GillSans-Light" font-size="40.0" fill="#525252" transform="matrix(1.00, 0.00, -0.00, -1.00, 449.3, 487.0)">g</text><text xml:space="preserve" font-family="GillSans-Light" font-size="40.0" fill="#525252" transform="matrix(1.00, 0.00, -0.00, -1.00, 466.3, 487.0)">l</text><text xml:space="preserve" font-family="GillSans-Light" font-size="40.0" fill="#525252" transform="matrix(1.00, 0.00, -0.00, -1.00, 473.9, 487.0)">e</text><text xml:space="preserve" font-family="GillSans-Light" font-size="40.0" fill="#525252" transform="matrix(1.00, 0.00, -0.00, -1.00, 493.0, 487.0)"> </text><text xml:space="preserve" font-family="GillSans-Light" font-size="40.0" fill="#525252" transform="matrix(1.00, 0.00, -0.00, -1.00, 504.1, 487.0)">s</text><text xml:space="preserve" font-family="GillSans-Light" font-size="40.0" fill="#525252" transform="matrix(1.00, 0.00, -0.00, -1.00, 518.3, 487.0)">t</text><text xml:space="preserve" font-family="GillSans-Light" font-size="40.0" fill="#525252" transform="matrix(1.00, 0.00, -0.00, -1.00, 530.4, 487.0)">a</text><text xml:space="preserve" font-family="GillSans-Light" font-size="40.0" fill="#525252" transform="matrix(1.00, 0.00, -0.00, -1.00, 547.4, 487.0)">t</text><text xml:space="preserve" font-family="GillSans-Light" font-size="40.0" fill="#525252" transform="matrix(1.00, 0.00, -0.00, -1.00, 559.5, 487.0)">e</text><text xml:space="preserve" font-family="GillSans-Light" font-size="40.0" fill="#525252" transform="matrix(1.00, 0.00, -0.00, -1.00, 578.6, 487.0)"> </text><text xml:space="preserve" font-family="GillSans-Light" font-size="40.0" fill="#525252" transform="matrix(1.00, 0.00, -0.00, -1.00, 589.7, 487.0)">o</text><text xml:space="preserve" font-family="GillSans-Light" font-size="40.0" fill="#525252" transform="matrix(1.00, 0.00, -0.00, -1.00, 611.4, 487.0)">b</text><text xml:space="preserve" font-family="GillSans-Light" font-size="40.0" fill="#525252" transform="matrix(1.00, 0.00, -0.00, -1.00, 631.8, 487.0)">j</text><text xml:space="preserve" font-family="GillSans-Light" font-size="40.0" fill="#525252" transform="matrix(1.00, 0.00, -0.00, -1.00, 639.3, 487.0)">e</text><text xml:space="preserve" font-family="GillSans-Light" font-size="40.0" fill="#525252" transform="matrix(1.00, 0.00, -0.00, -1.00, 658.5, 487.0)">c</text><text xml:space="preserve" font-family="GillSans-Light" font-size="40.0" fill="#525252" transform="matrix(1.00, 0.00, -0.00, -1.00, 675.2, 487.0)">t</text><text xml:space="preserve" font-family="GillSans-Light" font-size="40.0" fill="#525252" transform="matrix(1.00, 0.00, -0.00, -1.00, 272.0, 383.0)">s</text><text xml:space="preserve" font-family="GillSans-Light" font-size="40.0" fill="#525252" transform="matrix(1.00, 0.00, -0.00, -1.00, 286.2, 383.0)">i</text><text xml:space="preserve" font-family="GillSans-Light" font-size="40.0" fill="#525252" transform="matrix(1.00, 0.00, -0.00, -1.00, 293.7, 383.0)">m</text><text xml:space="preserve" font-family="GillSans-Light" font-size="40.0" fill="#525252" transform="matrix(1.00, 0.00, -0.00, -1.00, 324.5, 383.0)">i</text><text xml:space="preserve" font-family="GillSans-Light" font-size="40.0" fill="#525252" transform="matrix(1.00, 0.00, -0.00, -1.00, 332.0, 383.0)">l</text><text xml:space="preserve" font-family="GillSans-Light" font-size="40.0" fill="#525252" transform="matrix(1.00, 0.00, -0.00, -1.00, 339.6, 383.0)">a</text><text xml:space="preserve" font-family="GillSans-Light" font-size="40.0" fill="#525252" transform="matrix(1.00, 0.00, -0.00, -1.00, 356.6, 383.0)">r</text><text xml:space="preserve" font-family="GillSans-Light" font-size="40.0" fill="#525252" transform="matrix(1.00, 0.00, -0.00, -1.00, 369.9, 383.0)"> </text><text xml:space="preserve" font-family="GillSans-Light" font-size="40.0" fill="#525252" transform="matrix(1.00, 0.00, -0.00, -1.00, 381.0, 383.0)">t</text><text xml:space="preserve" font-family="GillSans-Light" font-size="40.0" fill="#525252" transform="matrix(1.00, 0.00, -0.00, -1.00, 393.1, 383.0)">o</text><text xml:space="preserve" font-family="GillSans-Light" font-size="40.0" fill="#525252" transform="matrix(1.00, 0.00, -0.00, -1.00, 414.8, 383.0)"> </text><text xml:space="preserve" font-family="GillSans-Light" font-size="40.0" fill="#525252" transform="matrix(1.00, 0.00, -0.00, -1.00, 425.9, 383.0)">h</text><text xml:space="preserve" font-family="GillSans-Light" font-size="40.0" fill="#525252" transform="matrix(1.00, 0.00, -0.00, -1.00, 445.5, 383.0)">o</text><text xml:space="preserve" font-family="GillSans-Light" font-size="40.0" fill="#525252" transform="matrix(1.00, 0.00, -0.00, -1.00, 466.6, 383.0)">w</text><text xml:space="preserve" font-family="GillSans-Light" font-size="40.0" fill="#525252" transform="matrix(1.00, 0.00, -0.00, -1.00, 494.9, 383.0)"> </text><text xml:space="preserve" font-family="GillSans-Light" font-size="40.0" fill="#525252" transform="matrix(1.00, 0.00, -0.00, -1.00, 506.0, 383.0)">[</text><text xml:space="preserve" font-family="GillSans-Light" font-size="40.0" fill="#525252" transform="matrix(1.00, 0.00, -0.00, -1.00, 518.1, 383.0)">]</text><text xml:space="preserve" font-family="GillSans-Light" font-size="40.0" fill="#525252" transform="matrix(1.00, 0.00, -0.00, -1.00, 530.1, 383.0)">.</text><text xml:space="preserve" font-family="GillSans-Light" font-size="40.0" fill="#525252" transform="matrix(1.00, 0.00, -0.00, -1.00, 537.2, 383.0)">r</text><text xml:space="preserve" font-family="GillSans-Light" font-size="40.0" fill="#525252" transform="matrix(1.00, 0.00, -0.00, -1.00, 550.5, 383.0)">e</text><text xml:space="preserve" font-family="GillSans-Light" font-size="40.0" fill="#525252" transform="matrix(1.00, 0.00, -0.00, -1.00, 569.7, 383.0)">d</text><text xml:space="preserve" font-family="GillSans-Light" font-size="40.0" fill="#525252" transform="matrix(1.00, 0.00, -0.00, -1.00, 590.1, 383.0)">u</text><text xml:space="preserve" font-family="GillSans-Light" font-size="40.0" fill="#525252" transform="matrix(1.00, 0.00, -0.00, -1.00, 609.7, 383.0)">c</text><text xml:space="preserve" font-family="GillSans-Light" font-size="40.0" fill="#525252" transform="matrix(1.00, 0.00, -0.00, -1.00, 626.4, 383.0)">e</text><text xml:space="preserve" font-family="GillSans-Light" font-size="40.0" fill="#525252" transform="matrix(1.00, 0.00, -0.00, -1.00, 645.5, 383.0)"> </text><text xml:space="preserve" font-family="GillSans-Light" font-size="40.0" fill="#525252" transform="matrix(1.00, 0.00, -0.00, -1.00, 656.6, 383.0)">w</text><text xml:space="preserve" font-family="GillSans-Light" font-size="40.0" fill="#525252" transform="matrix(1.00, 0.00, -0.00, -1.00, 684.3, 383.0)">o</text><text xml:space="preserve" font-family="GillSans-Light" font-size="40.0" fill="#525252" transform="matrix(1.00, 0.00, -0.00, -1.00, 706.0, 383.0)">r</text><text xml:space="preserve" font-family="GillSans-Light" font-size="40.0" fill="#525252" transform="matrix(1.00, 0.00, -0.00, -1.00, 720.9, 383.0)">k</text><text xml:space="preserve" font-family="GillSans-Light" font-size="40.0" fill="#525252" transform="matrix(1.00, 0.00, -0.00, -1.00, 738.0, 383.0)">s</text><path d="M 110.1 342.0 L 913.9 342.0 L 913.9 268.0 L 110.1 268.0 Z M 110.1 342.0 " fill="#3D4453"></path><g><clipPath id="clip-46"><path d="M 104.6 268.0 L 919.4 268.0 L 919.4 342.0 L 104.6 342.0 Z M 104.6 268.0 "></path></clipPath><g clip-path="url(#clip-46)"><text xml:space="preserve" font-family="GillSans-SemiBold" font-weight="bold" font-size="32.0" fill="#FEFFFF" transform="matrix(1.00, 0.00, -0.00, -1.00, 148.0, 294.0)">[</text><text xml:space="preserve" font-family="GillSans-SemiBold" font-weight="bold" font-size="32.0" fill="#E5493C" transform="matrix(1.00, 0.00, -0.00, -1.00, 160.5, 294.0)">1</text><text xml:space="preserve" font-family="GillSans-SemiBold" font-weight="bold" font-size="32.0" fill="#FEFFFF" transform="matrix(1.00, 0.00, -0.00, -1.00, 177.4, 294.0)">,</text><text xml:space="preserve" font-family="GillSans-SemiBold" font-weight="bold" font-size="32.0" fill="#000000" transform="matrix(1.00, 0.00, -0.00, -1.00, 185.3, 294.0)"> </text><text xml:space="preserve" font-family="GillSans-SemiBold" font-weight="bold" font-size="32.0" fill="#E5493C" transform="matrix(1.00, 0.00, -0.00, -1.00, 194.2, 294.0)">2</text><text xml:space="preserve" font-family="GillSans-SemiBold" font-weight="bold" font-size="32.0" fill="#FEFFFF" transform="matrix(1.00, 0.00, -0.00, -1.00, 211.1, 294.0)">,</text><text xml:space="preserve" font-family="GillSans-SemiBold" font-weight="bold" font-size="32.0" fill="#000000" transform="matrix(1.00, 0.00, -0.00, -1.00, 218.9, 294.0)"> </text><text xml:space="preserve" font-family="GillSans-SemiBold" font-weight="bold" font-size="32.0" fill="#E5493C" transform="matrix(1.00, 0.00, -0.00, -1.00, 227.8, 294.0)">3</text><text xml:space="preserve" font-family="GillSans-SemiBold" font-weight="bold" font-size="32.0" fill="#FEFFFF" transform="matrix(1.00, 0.00, -0.00, -1.00, 244.7, 294.0)">]</text><text xml:space="preserve" font-family="GillSans-SemiBold" font-weight="bold" font-size="32.0" fill="#FEFFFF" transform="matrix(1.00, 0.00, -0.00, -1.00, 257.2, 294.0)">.</text><text xml:space="preserve" font-family="GillSans-SemiBold" font-weight="bold" font-size="32.0" fill="#FEFFFF" transform="matrix(1.00, 0.00, -0.00, -1.00, 265.1, 294.0)">r</text><text xml:space="preserve" font-family="GillSans-SemiBold" font-weight="bold" font-size="32.0" fill="#FEFFFF" transform="matrix(1.00, 0.00, -0.00, -1.00, 277.8, 294.0)">e</text><text xml:space="preserve" font-family="GillSans-SemiBold" font-weight="bold" font-size="32.0" fill="#FEFFFF" transform="matrix(1.00, 0.00, -0.00, -1.00, 294.4, 294.0)">d</text><text xml:space="preserve" font-family="GillSans-SemiBold" font-weight="bold" font-size="32.0" fill="#FEFFFF" transform="matrix(1.00, 0.00, -0.00, -1.00, 311.9, 294.0)">u</text><text xml:space="preserve" font-family="GillSans-SemiBold" font-weight="bold" font-size="32.0" fill="#FEFFFF" transform="matrix(1.00, 0.00, -0.00, -1.00, 329.2, 294.0)">c</text><text xml:space="preserve" font-family="GillSans-SemiBold" font-weight="bold" font-size="32.0" fill="#FEFFFF" transform="matrix(1.00, 0.00, -0.00, -1.00, 343.9, 294.0)">e</text><text xml:space="preserve" font-family="GillSans-SemiBold" font-weight="bold" font-size="32.0" fill="#FEFFFF" transform="matrix(1.00, 0.00, -0.00, -1.00, 360.4, 294.0)">(</text><text xml:space="preserve" font-family="GillSans-SemiBold" font-weight="bold" font-size="32.0" fill="#FEFFFF" transform="matrix(1.00, 0.00, -0.00, -1.00, 371.9, 294.0)">(</text><text xml:space="preserve" font-family="GillSans-SemiBold" font-weight="bold" font-size="32.0" fill="#94A4A6" transform="matrix(1.00, 0.00, -0.00, -1.00, 383.3, 294.0)">s</text><text xml:space="preserve" font-family="GillSans-SemiBold" font-weight="bold" font-size="32.0" fill="#94A4A6" transform="matrix(1.00, 0.00, -0.00, -1.00, 396.3, 294.0)">u</text><text xml:space="preserve" font-family="GillSans-SemiBold" font-weight="bold" font-size="32.0" fill="#94A4A6" transform="matrix(1.00, 0.00, -0.00, -1.00, 413.5, 294.0)">m</text><text xml:space="preserve" font-family="GillSans-SemiBold" font-weight="bold" font-size="32.0" fill="#FEFFFF" transform="matrix(1.00, 0.00, -0.00, -1.00, 440.6, 294.0)">,</text><text xml:space="preserve" font-family="GillSans-SemiBold" font-weight="bold" font-size="32.0" fill="#000000" transform="matrix(1.00, 0.00, -0.00, -1.00, 448.5, 294.0)"> </text><text xml:space="preserve" font-family="GillSans-SemiBold" font-weight="bold" font-size="32.0" fill="#94A4A6" transform="matrix(1.00, 0.00, -0.00, -1.00, 457.4, 294.0)">n</text><text xml:space="preserve" font-family="GillSans-SemiBold" font-weight="bold" font-size="32.0" fill="#94A4A6" transform="matrix(1.00, 0.00, -0.00, -1.00, 474.7, 294.0)">u</text><text xml:space="preserve" font-family="GillSans-SemiBold" font-weight="bold" font-size="32.0" fill="#94A4A6" transform="matrix(1.00, 0.00, -0.00, -1.00, 492.0, 294.0)">m</text><text xml:space="preserve" font-family="GillSans-SemiBold" font-weight="bold" font-size="32.0" fill="#FEFFFF" transform="matrix(1.00, 0.00, -0.00, -1.00, 519.1, 294.0)">)</text><text xml:space="preserve" font-family="GillSans-SemiBold" font-weight="bold" font-size="32.0" fill="#FEFFFF" transform="matrix(1.00, 0.00, -0.00, -1.00, 530.5, 294.0)"> </text><text xml:space="preserve" font-family="GillSans-SemiBold" font-weight="bold" font-size="32.0" fill="#FEFFFF" transform="matrix(1.00, 0.00, -0.00, -1.00, 539.4, 294.0)">=</text><text xml:space="preserve" font-family="GillSans-SemiBold" font-weight="bold" font-size="32.0" fill="#FEFFFF" transform="matrix(1.00, 0.00, -0.00, -1.00, 558.1, 294.0)">&gt;</text><text xml:space="preserve" font-family="GillSans-SemiBold" font-weight="bold" font-size="32.0" fill="#000000" transform="matrix(1.00, 0.00, -0.00, -1.00, 576.8, 294.0)"> </text><text xml:space="preserve" font-family="GillSans-SemiBold" font-weight="bold" font-size="32.0" fill="#94A4A6" transform="matrix(1.00, 0.00, -0.00, -1.00, 585.7, 294.0)">n</text><text xml:space="preserve" font-family="GillSans-SemiBold" font-weight="bold" font-size="32.0" fill="#94A4A6" transform="matrix(1.00, 0.00, -0.00, -1.00, 603.0, 294.0)">u</text><text xml:space="preserve" font-family="GillSans-SemiBold" font-weight="bold" font-size="32.0" fill="#94A4A6" transform="matrix(1.00, 0.00, -0.00, -1.00, 620.3, 294.0)">m</text><text xml:space="preserve" font-family="GillSans-SemiBold" font-weight="bold" font-size="32.0" fill="#000000" transform="matrix(1.00, 0.00, -0.00, -1.00, 647.3, 294.0)"> </text><text xml:space="preserve" font-family="GillSans-SemiBold" font-weight="bold" font-size="32.0" fill="#FEFFFF" transform="matrix(1.00, 0.00, -0.00, -1.00, 656.2, 294.0)">+</text><text xml:space="preserve" font-family="GillSans-SemiBold" font-weight="bold" font-size="32.0" fill="#000000" transform="matrix(1.00, 0.00, -0.00, -1.00, 674.9, 294.0)"> </text><text xml:space="preserve" font-family="GillSans-SemiBold" font-weight="bold" font-size="32.0" fill="#94A4A6" transform="matrix(1.00, 0.00, -0.00, -1.00, 683.8, 294.0)">s</text><text xml:space="preserve" font-family="GillSans-SemiBold" font-weight="bold" font-size="32.0" fill="#94A4A6" transform="matrix(1.00, 0.00, -0.00, -1.00, 696.7, 294.0)">u</text><text xml:space="preserve" font-family="GillSans-SemiBold" font-weight="bold" font-size="32.0" fill="#94A4A6" transform="matrix(1.00, 0.00, -0.00, -1.00, 714.0, 294.0)">m</text><text xml:space="preserve" font-family="GillSans-SemiBold" font-weight="bold" font-size="32.0" fill="#FEFFFF" transform="matrix(1.00, 0.00, -0.00, -1.00, 741.1, 294.0)">,</text><text xml:space="preserve" font-family="GillSans-SemiBold" font-weight="bold" font-size="32.0" fill="#000000" transform="matrix(1.00, 0.00, -0.00, -1.00, 749.0, 294.0)"> </text><text xml:space="preserve" font-family="GillSans-SemiBold" font-weight="bold" font-size="32.0" fill="#E5493C" transform="matrix(1.00, 0.00, -0.00, -1.00, 757.9, 294.0)">0</text><text xml:space="preserve" font-family="GillSans-SemiBold" font-weight="bold" font-size="32.0" fill="#FEFFFF" transform="matrix(1.00, 0.00, -0.00, -1.00, 774.8, 294.0)">)</text><text xml:space="preserve" font-family="GillSans-SemiBold" font-weight="bold" font-size="32.0" fill="#FEFFFF" transform="matrix(1.00, 0.00, -0.00, -1.00, 786.2, 294.0)"> </text><text xml:space="preserve" font-family="GillSans-SemiBold" font-weight="bold" font-size="32.0" fill="#FEFFFF" transform="matrix(1.00, 0.00, -0.00, -1.00, 795.1, 294.0)">=</text><text xml:space="preserve" font-family="GillSans-SemiBold" font-weight="bold" font-size="32.0" fill="#FEFFFF" transform="matrix(1.00, 0.00, -0.00, -1.00, 813.8, 294.0)">=</text><text xml:space="preserve" font-family="GillSans-SemiBold" font-weight="bold" font-size="32.0" fill="#FEFFFF" transform="matrix(1.00, 0.00, -0.00, -1.00, 832.5, 294.0)">=</text><text xml:space="preserve" font-family="GillSans-SemiBold" font-weight="bold" font-size="32.0" fill="#000000" transform="matrix(1.00, 0.00, -0.00, -1.00, 851.2, 294.0)"> </text><text xml:space="preserve" font-family="GillSans-SemiBold" font-weight="bold" font-size="32.0" fill="#E5493C" transform="matrix(1.00, 0.00, -0.00, -1.00, 860.0, 294.0)">6</text><text xml:space="preserve" font-family="GillSans-SemiBold" font-weight="bold" font-size="32.0" fill="#E5493C" transform="matrix(1.00, 0.00, -0.00, -1.00, 876.9, 294.0)"> </text></g></g><path d="M 110.1 230.5 L 913.9 230.5 L 913.9 58.5 L 110.1 58.5 Z M 110.1 230.5 " fill="#3D4453"></path><g><clipPath id="clip-47"><path d="M 105.6 58.5 L 918.4 58.5 L 918.4 230.5 L 105.6 230.5 Z M 105.6 58.5 "></path></clipPath><g clip-path="url(#clip-47)"><text xml:space="preserve" font-family="CourierNewPS-BoldMT" font-weight="bold" font-size="30.0" fill="#D6601A" transform="matrix(1.00, 0.00, -0.00, -1.00, 114.0, 188.0)">f</text><text xml:space="preserve" font-family="CourierNewPS-BoldMT" font-weight="bold" font-size="30.0" fill="#D6601A" transform="matrix(1.00, 0.00, -0.00, -1.00, 132.0, 188.0)">u</text><text xml:space="preserve" font-family="CourierNewPS-BoldMT" font-weight="bold" font-size="30.0" fill="#D6601A" transform="matrix(1.00, 0.00, -0.00, -1.00, 150.0, 188.0)">n</text><text xml:space="preserve" font-family="CourierNewPS-BoldMT" font-weight="bold" font-size="30.0" fill="#D6601A" transform="matrix(1.00, 0.00, -0.00, -1.00, 168.0, 188.0)">c</text><text xml:space="preserve" font-family="CourierNewPS-BoldMT" font-weight="bold" font-size="30.0" fill="#D6601A" transform="matrix(1.00, 0.00, -0.00, -1.00, 186.0, 188.0)">t</text><text xml:space="preserve" font-family="CourierNewPS-BoldMT" font-weight="bold" font-size="30.0" fill="#D6601A" transform="matrix(1.00, 0.00, -0.00, -1.00, 204.0, 188.0)">i</text><text xml:space="preserve" font-family="CourierNewPS-BoldMT" font-weight="bold" font-size="30.0" fill="#D6601A" transform="matrix(1.00, 0.00, -0.00, -1.00, 222.0, 188.0)">o</text><text xml:space="preserve" font-family="CourierNewPS-BoldMT" font-weight="bold" font-size="30.0" fill="#D6601A" transform="matrix(1.00, 0.00, -0.00, -1.00, 240.0, 188.0)">n</text><text xml:space="preserve" font-family="CourierNewPS-BoldMT" font-weight="bold" font-size="30.0" fill="#000000" transform="matrix(1.00, 0.00, -0.00, -1.00, 258.0, 188.0)"> </text><text xml:space="preserve" font-family="CourierNewPS-BoldMT" font-weight="bold" font-size="30.0" fill="#A3B0B0" transform="matrix(1.00, 0.00, -0.00, -1.00, 276.0, 188.0)">r</text><text xml:space="preserve" font-family="CourierNewPS-BoldMT" font-weight="bold" font-size="30.0" fill="#A3B0B0" transform="matrix(1.00, 0.00, -0.00, -1.00, 294.0, 188.0)">e</text><text xml:space="preserve" font-family="CourierNewPS-BoldMT" font-weight="bold" font-size="30.0" fill="#A3B0B0" transform="matrix(1.00, 0.00, -0.00, -1.00, 312.0, 188.0)">d</text><text xml:space="preserve" font-family="CourierNewPS-BoldMT" font-weight="bold" font-size="30.0" fill="#A3B0B0" transform="matrix(1.00, 0.00, -0.00, -1.00, 330.0, 188.0)">u</text><text xml:space="preserve" font-family="CourierNewPS-BoldMT" font-weight="bold" font-size="30.0" fill="#A3B0B0" transform="matrix(1.00, 0.00, -0.00, -1.00, 348.1, 188.0)">c</text><text xml:space="preserve" font-family="CourierNewPS-BoldMT" font-weight="bold" font-size="30.0" fill="#A3B0B0" transform="matrix(1.00, 0.00, -0.00, -1.00, 366.1, 188.0)">e</text><text xml:space="preserve" font-family="CourierNewPS-BoldMT" font-weight="bold" font-size="30.0" fill="#A3B0B0" transform="matrix(1.00, 0.00, -0.00, -1.00, 384.1, 188.0)">r</text><text xml:space="preserve" font-family="CourierNewPS-BoldMT" font-weight="bold" font-size="30.0" fill="#A3B0B0" transform="matrix(1.00, 0.00, -0.00, -1.00, 402.1, 188.0)">(</text><text xml:space="preserve" font-family="CourierNewPS-BoldMT" font-weight="bold" font-size="30.0" fill="#94A4A6" transform="matrix(1.00, 0.00, -0.00, -1.00, 420.0, 188.0)">c</text><text xml:space="preserve" font-family="CourierNewPS-BoldMT" font-weight="bold" font-size="30.0" fill="#94A4A6" transform="matrix(1.00, 0.00, -0.00, -1.00, 438.1, 188.0)">u</text><text xml:space="preserve" font-family="CourierNewPS-BoldMT" font-weight="bold" font-size="30.0" fill="#94A4A6" transform="matrix(1.00, 0.00, -0.00, -1.00, 456.1, 188.0)">r</text><text xml:space="preserve" font-family="CourierNewPS-BoldMT" font-weight="bold" font-size="30.0" fill="#94A4A6" transform="matrix(1.00, 0.00, -0.00, -1.00, 474.1, 188.0)">r</text><text xml:space="preserve" font-family="CourierNewPS-BoldMT" font-weight="bold" font-size="30.0" fill="#94A4A6" transform="matrix(1.00, 0.00, -0.00, -1.00, 492.1, 188.0)">e</text><text xml:space="preserve" font-family="CourierNewPS-BoldMT" font-weight="bold" font-size="30.0" fill="#94A4A6" transform="matrix(1.00, 0.00, -0.00, -1.00, 510.1, 188.0)">n</text><text xml:space="preserve" font-family="CourierNewPS-BoldMT" font-weight="bold" font-size="30.0" fill="#94A4A6" transform="matrix(1.00, 0.00, -0.00, -1.00, 528.1, 188.0)">t</text><text xml:space="preserve" font-family="CourierNewPS-BoldMT" font-weight="bold" font-size="30.0" fill="#94A4A6" transform="matrix(1.00, 0.00, -0.00, -1.00, 546.1, 188.0)">S</text><text xml:space="preserve" font-family="CourierNewPS-BoldMT" font-weight="bold" font-size="30.0" fill="#94A4A6" transform="matrix(1.00, 0.00, -0.00, -1.00, 564.1, 188.0)">t</text><text xml:space="preserve" font-family="CourierNewPS-BoldMT" font-weight="bold" font-size="30.0" fill="#94A4A6" transform="matrix(1.00, 0.00, -0.00, -1.00, 582.1, 188.0)">a</text><text xml:space="preserve" font-family="CourierNewPS-BoldMT" font-weight="bold" font-size="30.0" fill="#94A4A6" transform="matrix(1.00, 0.00, -0.00, -1.00, 600.1, 188.0)">t</text><text xml:space="preserve" font-family="CourierNewPS-BoldMT" font-weight="bold" font-size="30.0" fill="#94A4A6" transform="matrix(1.00, 0.00, -0.00, -1.00, 618.1, 188.0)">e</text><text xml:space="preserve" font-family="CourierNewPS-BoldMT" font-weight="bold" font-size="30.0" fill="#A3B0B0" transform="matrix(1.00, 0.00, -0.00, -1.00, 636.1, 188.0)">,</text><text xml:space="preserve" font-family="CourierNewPS-BoldMT" font-weight="bold" font-size="30.0" fill="#000000" transform="matrix(1.00, 0.00, -0.00, -1.00, 654.1, 188.0)"> </text><text xml:space="preserve" font-family="CourierNewPS-BoldMT" font-weight="bold" font-size="30.0" fill="#94A4A6" transform="matrix(1.00, 0.00, -0.00, -1.00, 672.1, 188.0)">a</text><text xml:space="preserve" font-family="CourierNewPS-BoldMT" font-weight="bold" font-size="30.0" fill="#94A4A6" transform="matrix(1.00, 0.00, -0.00, -1.00, 690.1, 188.0)">c</text><text xml:space="preserve" font-family="CourierNewPS-BoldMT" font-weight="bold" font-size="30.0" fill="#94A4A6" transform="matrix(1.00, 0.00, -0.00, -1.00, 708.1, 188.0)">t</text><text xml:space="preserve" font-family="CourierNewPS-BoldMT" font-weight="bold" font-size="30.0" fill="#94A4A6" transform="matrix(1.00, 0.00, -0.00, -1.00, 726.1, 188.0)">i</text><text xml:space="preserve" font-family="CourierNewPS-BoldMT" font-weight="bold" font-size="30.0" fill="#94A4A6" transform="matrix(1.00, 0.00, -0.00, -1.00, 744.1, 188.0)">o</text><text xml:space="preserve" font-family="CourierNewPS-BoldMT" font-weight="bold" font-size="30.0" fill="#94A4A6" transform="matrix(1.00, 0.00, -0.00, -1.00, 762.1, 188.0)">n</text><text xml:space="preserve" font-family="CourierNewPS-BoldMT" font-weight="bold" font-size="30.0" fill="#A3B0B0" transform="matrix(1.00, 0.00, -0.00, -1.00, 780.1, 188.0)">)</text><text xml:space="preserve" font-family="CourierNewPS-BoldMT" font-weight="bold" font-size="30.0" fill="#A3B0B0" transform="matrix(1.00, 0.00, -0.00, -1.00, 798.1, 188.0)"> </text><text xml:space="preserve" font-family="CourierNewPS-BoldMT" font-weight="bold" font-size="30.0" fill="#A3B0B0" transform="matrix(1.00, 0.00, -0.00, -1.00, 816.1, 188.0)">{</text><text xml:space="preserve" font-family="CourierNewPS-BoldMT" font-weight="bold" font-size="30.0" fill="#000000" transform="matrix(1.00, 0.00, -0.00, -1.00, 834.1, 188.0)"> </text><text xml:space="preserve" font-family="CourierNewPS-BoldMT" font-weight="bold" font-size="30.0" fill="#000000" transform="matrix(1.00, 0.00, -0.00, -1.00, 114.0, 154.0)"> </text><text xml:space="preserve" font-family="CourierNewPS-BoldMT" font-weight="bold" font-size="30.0" fill="#000000" transform="matrix(1.00, 0.00, -0.00, -1.00, 132.0, 154.0)"> </text><text xml:space="preserve" font-family="CourierNewPS-BoldMT" font-weight="bold" font-size="30.0" fill="#6A8188" transform="matrix(1.00, 0.00, -0.00, -1.00, 150.0, 154.0)">/</text><text xml:space="preserve" font-family="CourierNewPS-BoldMT" font-weight="bold" font-size="30.0" fill="#6A8188" transform="matrix(1.00, 0.00, -0.00, -1.00, 168.0, 154.0)">/</text><text xml:space="preserve" font-family="CourierNewPS-BoldMT" font-weight="bold" font-size="30.0" fill="#6A8188" transform="matrix(1.00, 0.00, -0.00, -1.00, 186.0, 154.0)"> </text><text xml:space="preserve" font-family="CourierNewPS-BoldMT" font-weight="bold" font-size="30.0" fill="#6A8188" transform="matrix(1.00, 0.00, -0.00, -1.00, 204.0, 154.0)">d</text><text xml:space="preserve" font-family="CourierNewPS-BoldMT" font-weight="bold" font-size="30.0" fill="#6A8188" transform="matrix(1.00, 0.00, -0.00, -1.00, 222.0, 154.0)">o</text><text xml:space="preserve" font-family="CourierNewPS-BoldMT" font-weight="bold" font-size="30.0" fill="#6A8188" transform="matrix(1.00, 0.00, -0.00, -1.00, 240.0, 154.0)"> </text><text xml:space="preserve" font-family="CourierNewPS-BoldMT" font-weight="bold" font-size="30.0" fill="#6A8188" transform="matrix(1.00, 0.00, -0.00, -1.00, 258.0, 154.0)">s</text><text xml:space="preserve" font-family="CourierNewPS-BoldMT" font-weight="bold" font-size="30.0" fill="#6A8188" transform="matrix(1.00, 0.00, -0.00, -1.00, 276.0, 154.0)">o</text><text xml:space="preserve" font-family="CourierNewPS-BoldMT" font-weight="bold" font-size="30.0" fill="#6A8188" transform="matrix(1.00, 0.00, -0.00, -1.00, 294.1, 154.0)">m</text><text xml:space="preserve" font-family="CourierNewPS-BoldMT" font-weight="bold" font-size="30.0" fill="#6A8188" transform="matrix(1.00, 0.00, -0.00, -1.00, 312.1, 154.0)">e</text><text xml:space="preserve" font-family="CourierNewPS-BoldMT" font-weight="bold" font-size="30.0" fill="#6A8188" transform="matrix(1.00, 0.00, -0.00, -1.00, 330.1, 154.0)">t</text><text xml:space="preserve" font-family="CourierNewPS-BoldMT" font-weight="bold" font-size="30.0" fill="#6A8188" transform="matrix(1.00, 0.00, -0.00, -1.00, 348.1, 154.0)">h</text><text xml:space="preserve" font-family="CourierNewPS-BoldMT" font-weight="bold" font-size="30.0" fill="#6A8188" transform="matrix(1.00, 0.00, -0.00, -1.00, 366.1, 154.0)">i</text><text xml:space="preserve" font-family="CourierNewPS-BoldMT" font-weight="bold" font-size="30.0" fill="#6A8188" transform="matrix(1.00, 0.00, -0.00, -1.00, 384.1, 154.0)">n</text><text xml:space="preserve" font-family="CourierNewPS-BoldMT" font-weight="bold" font-size="30.0" fill="#6A8188" transform="matrix(1.00, 0.00, -0.00, -1.00, 402.1, 154.0)">g</text><text xml:space="preserve" font-family="CourierNewPS-BoldMT" font-weight="bold" font-size="30.0" fill="#000000" transform="matrix(1.00, 0.00, -0.00, -1.00, 420.0, 154.0)"> </text><text xml:space="preserve" font-family="CourierNewPS-BoldMT" font-weight="bold" font-size="30.0" fill="#000000" transform="matrix(1.00, 0.00, -0.00, -1.00, 114.0, 120.0)"> </text><text xml:space="preserve" font-family="CourierNewPS-BoldMT" font-weight="bold" font-size="30.0" fill="#000000" transform="matrix(1.00, 0.00, -0.00, -1.00, 132.0, 120.0)"> </text><text xml:space="preserve" font-family="CourierNewPS-BoldMT" font-weight="bold" font-size="30.0" fill="#D6601A" transform="matrix(1.00, 0.00, -0.00, -1.00, 150.0, 120.0)">r</text><text xml:space="preserve" font-family="CourierNewPS-BoldMT" font-weight="bold" font-size="30.0" fill="#D6601A" transform="matrix(1.00, 0.00, -0.00, -1.00, 168.0, 120.0)">e</text><text xml:space="preserve" font-family="CourierNewPS-BoldMT" font-weight="bold" font-size="30.0" fill="#D6601A" transform="matrix(1.00, 0.00, -0.00, -1.00, 186.0, 120.0)">t</text><text xml:space="preserve" font-family="CourierNewPS-BoldMT" font-weight="bold" font-size="30.0" fill="#D6601A" transform="matrix(1.00, 0.00, -0.00, -1.00, 204.0, 120.0)">u</text><text xml:space="preserve" font-family="CourierNewPS-BoldMT" font-weight="bold" font-size="30.0" fill="#D6601A" transform="matrix(1.00, 0.00, -0.00, -1.00, 222.0, 120.0)">r</text><text xml:space="preserve" font-family="CourierNewPS-BoldMT" font-weight="bold" font-size="30.0" fill="#D6601A" transform="matrix(1.00, 0.00, -0.00, -1.00, 240.0, 120.0)">n</text><text xml:space="preserve" font-family="CourierNewPS-BoldMT" font-weight="bold" font-size="30.0" fill="#000000" transform="matrix(1.00, 0.00, -0.00, -1.00, 258.0, 120.0)"> </text><text xml:space="preserve" font-family="CourierNewPS-BoldMT" font-weight="bold" font-size="30.0" fill="#94A4A6" transform="matrix(1.00, 0.00, -0.00, -1.00, 276.0, 120.0)">n</text><text xml:space="preserve" font-family="CourierNewPS-BoldMT" font-weight="bold" font-size="30.0" fill="#94A4A6" transform="matrix(1.00, 0.00, -0.00, -1.00, 294.0, 120.0)">e</text><text xml:space="preserve" font-family="CourierNewPS-BoldMT" font-weight="bold" font-size="30.0" fill="#94A4A6" transform="matrix(1.00, 0.00, -0.00, -1.00, 312.0, 120.0)">w</text><text xml:space="preserve" font-family="CourierNewPS-BoldMT" font-weight="bold" font-size="30.0" fill="#94A4A6" transform="matrix(1.00, 0.00, -0.00, -1.00, 330.0, 120.0)">S</text><text xml:space="preserve" font-family="CourierNewPS-BoldMT" font-weight="bold" font-size="30.0" fill="#94A4A6" transform="matrix(1.00, 0.00, -0.00, -1.00, 348.1, 120.0)">t</text><text xml:space="preserve" font-family="CourierNewPS-BoldMT" font-weight="bold" font-size="30.0" fill="#94A4A6" transform="matrix(1.00, 0.00, -0.00, -1.00, 366.1, 120.0)">a</text><text xml:space="preserve" font-family="CourierNewPS-BoldMT" font-weight="bold" font-size="30.0" fill="#94A4A6" transform="matrix(1.00, 0.00, -0.00, -1.00, 384.1, 120.0)">t</text><text xml:space="preserve" font-family="CourierNewPS-BoldMT" font-weight="bold" font-size="30.0" fill="#94A4A6" transform="matrix(1.00, 0.00, -0.00, -1.00, 402.1, 120.0)">e</text><text xml:space="preserve" font-family="CourierNewPS-BoldMT" font-weight="bold" font-size="30.0" fill="#A3B0B0" transform="matrix(1.00, 0.00, -0.00, -1.00, 420.0, 120.0)">;</text><text xml:space="preserve" font-family="CourierNewPS-BoldMT" font-weight="bold" font-size="30.0" fill="#000000" transform="matrix(1.00, 0.00, -0.00, -1.00, 438.1, 120.0)"> </text><text xml:space="preserve" font-family="CourierNewPS-BoldMT" font-weight="bold" font-size="30.0" fill="#A3B0B0" transform="matrix(1.00, 0.00, -0.00, -1.00, 114.0, 86.0)">}</text><text xml:space="preserve" font-family="CourierNewPS-BoldMT" font-weight="bold" font-size="30.0" fill="#A3B0B0" transform="matrix(1.00, 0.00, -0.00, -1.00, 132.0, 86.0)"> </text></g></g></g></svg>