<?xml version="1.0" encoding="UTF-8" standalone="no"?><svg xmlns="http://www.w3.org/2000/svg" xmlns:xlink="http://www.w3.org/1999/xlink" clip-rule="evenodd" stroke-miterlimit="4.00" viewBox="0 0 1024 768"><desc>SVG generated by Keynote</desc><defs></defs><g transform="matrix(1.00, 0.00, -0.00, -1.00, 0.0, 768.0)"><g><clipPath id="clip-37"><path d="M 0.0 768.0 L 1024.0 768.0 L 1024.0 0.0 L 0.0 0.0 Z M 0.0 768.0 "></path></clipPath><g clip-path="url(#clip-37)"><image xlink:href="../../293415CD-D1BA-41BB-8703-BAEDA9FFCE27/assets/D3CB8578D364082F6943B53F933CCC32.jpeg" width="1024.00" height="768.00" transform="matrix(1.00, 0.00, -0.00, -1.00, 0.0, 768.0)"></image></g></g><text xml:space="preserve" font-family="GillSans-Light" font-size="72.0" fill="#525252" transform="matrix(1.00, 0.00, -0.00, -1.00, 228.0, 628.0)">W</text><text xml:space="preserve" font-family="GillSans-Light" font-size="72.0" fill="#525252" transform="matrix(1.00, 0.00, -0.00, -1.00, 302.2, 628.0)">h</text><text xml:space="preserve" font-family="GillSans-Light" font-size="72.0" fill="#525252" transform="matrix(1.00, 0.00, -0.00, -1.00, 337.5, 628.0)">a</text><text xml:space="preserve" font-family="GillSans-Light" font-size="72.0" fill="#525252" transform="matrix(1.00, 0.00, -0.00, -1.00, 368.2, 628.0)">t</text><text xml:space="preserve" font-family="GillSans-Light" font-size="72.0" fill="#525252" transform="matrix(1.00, 0.00, -0.00, -1.00, 389.9, 628.0)"> </text><text xml:space="preserve" font-family="GillSans-Light" font-size="72.0" fill="#525252" transform="matrix(1.00, 0.00, -0.00, -1.00, 409.9, 628.0)">i</text><text xml:space="preserve" font-family="GillSans-Light" font-size="72.0" fill="#525252" transform="matrix(1.00, 0.00, -0.00, -1.00, 423.5, 628.0)">s</text><text xml:space="preserve" font-family="GillSans-Light" font-size="72.0" fill="#525252" transform="matrix(1.00, 0.00, -0.00, -1.00, 448.9, 628.0)"> </text><text xml:space="preserve" font-family="GillSans-Light" font-size="72.0" fill="#525252" transform="matrix(1.00, 0.00, -0.00, -1.00, 468.9, 628.0)">a</text><text xml:space="preserve" font-family="GillSans-Light" font-size="72.0" fill="#525252" transform="matrix(1.00, 0.00, -0.00, -1.00, 499.7, 628.0)">n</text><text xml:space="preserve" font-family="GillSans-Light" font-size="72.0" fill="#525252" transform="matrix(1.00, 0.00, -0.00, -1.00, 535.0, 628.0)"> </text><text xml:space="preserve" font-family="GillSans-Light" font-size="72.0" fill="#525252" transform="matrix(1.00, 0.00, -0.00, -1.00, 547.7, 628.0)">“</text><text xml:space="preserve" font-family="GillSans-Light" font-size="72.0" fill="#525252" transform="matrix(1.00, 0.00, -0.00, -1.00, 576.3, 628.0)">a</text><text xml:space="preserve" font-family="GillSans-Light" font-size="72.0" fill="#525252" transform="matrix(1.00, 0.00, -0.00, -1.00, 607.0, 628.0)">c</text><text xml:space="preserve" font-family="GillSans-Light" font-size="72.0" fill="#525252" transform="matrix(1.00, 0.00, -0.00, -1.00, 637.0, 628.0)">t</text><text xml:space="preserve" font-family="GillSans-Light" font-size="72.0" fill="#525252" transform="matrix(1.00, 0.00, -0.00, -1.00, 658.7, 628.0)">i</text><text xml:space="preserve" font-family="GillSans-Light" font-size="72.0" fill="#525252" transform="matrix(1.00, 0.00, -0.00, -1.00, 672.2, 628.0)">o</text><text xml:space="preserve" font-family="GillSans-Light" font-size="72.0" fill="#525252" transform="matrix(1.00, 0.00, -0.00, -1.00, 711.3, 628.0)">n</text><text xml:space="preserve" font-family="GillSans-Light" font-size="72.0" fill="#525252" transform="matrix(1.00, 0.00, -0.00, -1.00, 746.6, 628.0)">”</text><text xml:space="preserve" font-family="GillSans-Light" font-size="72.0" fill="#525252" transform="matrix(1.00, 0.00, -0.00, -1.00, 775.1, 628.0)">?</text><text xml:space="preserve" font-family="GillSans-Light" font-size="46.0" fill="#525252" transform="matrix(1.00, 0.00, -0.00, -1.00, 188.0, 508.0)">A</text><text xml:space="preserve" font-family="GillSans-Light" font-size="46.0" fill="#525252" transform="matrix(1.00, 0.00, -0.00, -1.00, 218.7, 508.0)">n</text><text xml:space="preserve" font-family="GillSans-Light" font-size="46.0" fill="#525252" transform="matrix(1.00, 0.00, -0.00, -1.00, 241.2, 508.0)"> </text><text xml:space="preserve" font-family="GillSans-Light" font-size="46.0" fill="#525252" transform="matrix(1.00, 0.00, -0.00, -1.00, 254.0, 508.0)">o</text><text xml:space="preserve" font-family="GillSans-Light" font-size="46.0" fill="#525252" transform="matrix(1.00, 0.00, -0.00, -1.00, 278.9, 508.0)">b</text><text xml:space="preserve" font-family="GillSans-Light" font-size="46.0" fill="#525252" transform="matrix(1.00, 0.00, -0.00, -1.00, 302.4, 508.0)">j</text><text xml:space="preserve" font-family="GillSans-Light" font-size="46.0" fill="#525252" transform="matrix(1.00, 0.00, -0.00, -1.00, 311.0, 508.0)">e</text><text xml:space="preserve" font-family="GillSans-Light" font-size="46.0" fill="#525252" transform="matrix(1.00, 0.00, -0.00, -1.00, 333.1, 508.0)">c</text><text xml:space="preserve" font-family="GillSans-Light" font-size="46.0" fill="#525252" transform="matrix(1.00, 0.00, -0.00, -1.00, 352.2, 508.0)">t</text><text xml:space="preserve" font-family="GillSans-Light" font-size="46.0" fill="#525252" transform="matrix(1.00, 0.00, -0.00, -1.00, 366.1, 508.0)"> </text><text xml:space="preserve" font-family="GillSans-Light" font-size="46.0" fill="#525252" transform="matrix(1.00, 0.00, -0.00, -1.00, 378.9, 508.0)">t</text><text xml:space="preserve" font-family="GillSans-Light" font-size="46.0" fill="#525252" transform="matrix(1.00, 0.00, -0.00, -1.00, 392.8, 508.0)">h</text><text xml:space="preserve" font-family="GillSans-Light" font-size="46.0" fill="#525252" transform="matrix(1.00, 0.00, -0.00, -1.00, 415.3, 508.0)">a</text><text xml:space="preserve" font-family="GillSans-Light" font-size="46.0" fill="#525252" transform="matrix(1.00, 0.00, -0.00, -1.00, 434.9, 508.0)">t</text><text xml:space="preserve" font-family="GillSans-Light" font-size="46.0" fill="#525252" transform="matrix(1.00, 0.00, -0.00, -1.00, 448.8, 508.0)"> </text><text xml:space="preserve" font-family="GillSans-Light" font-size="46.0" fill="#525252" transform="matrix(1.00, 0.00, -0.00, -1.00, 461.6, 508.0)">d</text><text xml:space="preserve" font-family="GillSans-Light" font-size="46.0" fill="#525252" transform="matrix(1.00, 0.00, -0.00, -1.00, 485.0, 508.0)">e</text><text xml:space="preserve" font-family="GillSans-Light" font-size="46.0" fill="#525252" transform="matrix(1.00, 0.00, -0.00, -1.00, 507.1, 508.0)">s</text><text xml:space="preserve" font-family="GillSans-Light" font-size="46.0" fill="#525252" transform="matrix(1.00, 0.00, -0.00, -1.00, 523.3, 508.0)">c</text><text xml:space="preserve" font-family="GillSans-Light" font-size="46.0" fill="#525252" transform="matrix(1.00, 0.00, -0.00, -1.00, 542.5, 508.0)">r</text><text xml:space="preserve" font-family="GillSans-Light" font-size="46.0" fill="#525252" transform="matrix(1.00, 0.00, -0.00, -1.00, 559.0, 508.0)">i</text><text xml:space="preserve" font-family="GillSans-Light" font-size="46.0" fill="#525252" transform="matrix(1.00, 0.00, -0.00, -1.00, 567.6, 508.0)">b</text><text xml:space="preserve" font-family="GillSans-Light" font-size="46.0" fill="#525252" transform="matrix(1.00, 0.00, -0.00, -1.00, 591.1, 508.0)">e</text><text xml:space="preserve" font-family="GillSans-Light" font-size="46.0" fill="#525252" transform="matrix(1.00, 0.00, -0.00, -1.00, 613.1, 508.0)">s</text><text xml:space="preserve" font-family="GillSans-Light" font-size="46.0" fill="#525252" transform="matrix(1.00, 0.00, -0.00, -1.00, 629.4, 508.0)"> </text><text xml:space="preserve" font-family="GillSans-Light" font-size="46.0" fill="#525252" transform="matrix(1.00, 0.00, -0.00, -1.00, 642.2, 508.0)">a</text><text xml:space="preserve" font-family="GillSans-Light" font-size="46.0" fill="#525252" transform="matrix(1.00, 0.00, -0.00, -1.00, 661.8, 508.0)"> </text><text xml:space="preserve" font-family="GillSans-Light" font-size="46.0" fill="#525252" transform="matrix(1.00, 0.00, -0.00, -1.00, 674.6, 508.0)">m</text><text xml:space="preserve" font-family="GillSans-Light" font-size="46.0" fill="#525252" transform="matrix(1.00, 0.00, -0.00, -1.00, 709.3, 508.0)">u</text><text xml:space="preserve" font-family="GillSans-Light" font-size="46.0" fill="#525252" transform="matrix(1.00, 0.00, -0.00, -1.00, 731.9, 508.0)">t</text><text xml:space="preserve" font-family="GillSans-Light" font-size="46.0" fill="#525252" transform="matrix(1.00, 0.00, -0.00, -1.00, 745.8, 508.0)">a</text><text xml:space="preserve" font-family="GillSans-Light" font-size="46.0" fill="#525252" transform="matrix(1.00, 0.00, -0.00, -1.00, 765.4, 508.0)">t</text><text xml:space="preserve" font-family="GillSans-Light" font-size="46.0" fill="#525252" transform="matrix(1.00, 0.00, -0.00, -1.00, 779.3, 508.0)">i</text><text xml:space="preserve" font-family="GillSans-Light" font-size="46.0" fill="#525252" transform="matrix(1.00, 0.00, -0.00, -1.00, 787.9, 508.0)">o</text><text xml:space="preserve" font-family="GillSans-Light" font-size="46.0" fill="#525252" transform="matrix(1.00, 0.00, -0.00, -1.00, 812.8, 508.0)">n</text><path d="M 287.4 469.2 L 736.6 469.2 L 736.6 128.6 L 287.4 128.6 Z M 287.4 469.2 " fill="#3D4453"></path><g><clipPath id="clip-38"><path d="M 285.2 128.6 L 738.8 128.6 L 738.8 469.2 L 285.2 469.2 Z M 285.2 128.6 "></path></clipPath><g clip-path="url(#clip-38)"><text xml:space="preserve" font-family="CourierNewPS-BoldMT" font-weight="bold" font-size="22.0" fill="#6A8188" transform="matrix(1.00, 0.00, -0.00, -1.00, 291.0, 443.0)">/</text><text xml:space="preserve" font-family="CourierNewPS-BoldMT" font-weight="bold" font-size="22.0" fill="#6A8188" transform="matrix(1.00, 0.00, -0.00, -1.00, 304.2, 443.0)">/</text><text xml:space="preserve" font-family="CourierNewPS-BoldMT" font-weight="bold" font-size="22.0" fill="#6A8188" transform="matrix(1.00, 0.00, -0.00, -1.00, 317.4, 443.0)"> </text><text xml:space="preserve" font-family="CourierNewPS-BoldMT" font-weight="bold" font-size="22.0" fill="#6A8188" transform="matrix(1.00, 0.00, -0.00, -1.00, 330.6, 443.0)">s</text><text xml:space="preserve" font-family="CourierNewPS-BoldMT" font-weight="bold" font-size="22.0" fill="#6A8188" transform="matrix(1.00, 0.00, -0.00, -1.00, 343.8, 443.0)">t</text><text xml:space="preserve" font-family="CourierNewPS-BoldMT" font-weight="bold" font-size="22.0" fill="#6A8188" transform="matrix(1.00, 0.00, -0.00, -1.00, 357.0, 443.0)">a</text><text xml:space="preserve" font-family="CourierNewPS-BoldMT" font-weight="bold" font-size="22.0" fill="#6A8188" transform="matrix(1.00, 0.00, -0.00, -1.00, 370.2, 443.0)">r</text><text xml:space="preserve" font-family="CourierNewPS-BoldMT" font-weight="bold" font-size="22.0" fill="#6A8188" transform="matrix(1.00, 0.00, -0.00, -1.00, 383.4, 443.0)">t</text><text xml:space="preserve" font-family="CourierNewPS-BoldMT" font-weight="bold" font-size="22.0" fill="#6A8188" transform="matrix(1.00, 0.00, -0.00, -1.00, 396.6, 443.0)">i</text><text xml:space="preserve" font-family="CourierNewPS-BoldMT" font-weight="bold" font-size="22.0" fill="#6A8188" transform="matrix(1.00, 0.00, -0.00, -1.00, 409.8, 443.0)">n</text><text xml:space="preserve" font-family="CourierNewPS-BoldMT" font-weight="bold" font-size="22.0" fill="#6A8188" transform="matrix(1.00, 0.00, -0.00, -1.00, 423.0, 443.0)">g</text><text xml:space="preserve" font-family="CourierNewPS-BoldMT" font-weight="bold" font-size="22.0" fill="#6A8188" transform="matrix(1.00, 0.00, -0.00, -1.00, 436.2, 443.0)"> </text><text xml:space="preserve" font-family="CourierNewPS-BoldMT" font-weight="bold" font-size="22.0" fill="#6A8188" transform="matrix(1.00, 0.00, -0.00, -1.00, 449.5, 443.0)">s</text><text xml:space="preserve" font-family="CourierNewPS-BoldMT" font-weight="bold" font-size="22.0" fill="#6A8188" transform="matrix(1.00, 0.00, -0.00, -1.00, 462.7, 443.0)">t</text><text xml:space="preserve" font-family="CourierNewPS-BoldMT" font-weight="bold" font-size="22.0" fill="#6A8188" transform="matrix(1.00, 0.00, -0.00, -1.00, 475.9, 443.0)">a</text><text xml:space="preserve" font-family="CourierNewPS-BoldMT" font-weight="bold" font-size="22.0" fill="#6A8188" transform="matrix(1.00, 0.00, -0.00, -1.00, 489.1, 443.0)">t</text><text xml:space="preserve" font-family="CourierNewPS-BoldMT" font-weight="bold" font-size="22.0" fill="#6A8188" transform="matrix(1.00, 0.00, -0.00, -1.00, 502.3, 443.0)">e</text><text xml:space="preserve" font-family="CourierNewPS-BoldMT" font-weight="bold" font-size="22.0" fill="#000000" transform="matrix(1.00, 0.00, -0.00, -1.00, 515.4, 443.0)"> </text><text xml:space="preserve" font-family="CourierNewPS-BoldMT" font-weight="bold" font-size="22.0" fill="#A3B0B0" transform="matrix(1.00, 0.00, -0.00, -1.00, 291.0, 418.0)">{</text><text xml:space="preserve" font-family="CourierNewPS-BoldMT" font-weight="bold" font-size="22.0" fill="#000000" transform="matrix(1.00, 0.00, -0.00, -1.00, 304.2, 418.0)"> </text><text xml:space="preserve" font-family="CourierNewPS-BoldMT" font-weight="bold" font-size="22.0" fill="#94A4A6" transform="matrix(1.00, 0.00, -0.00, -1.00, 291.0, 393.0)"> </text><text xml:space="preserve" font-family="CourierNewPS-BoldMT" font-weight="bold" font-size="22.0" fill="#94A4A6" transform="matrix(1.00, 0.00, -0.00, -1.00, 304.2, 393.0)"> </text><text xml:space="preserve" font-family="CourierNewPS-BoldMT" font-weight="bold" font-size="22.0" fill="#94A4A6" transform="matrix(1.00, 0.00, -0.00, -1.00, 317.4, 393.0)">c</text><text xml:space="preserve" font-family="CourierNewPS-BoldMT" font-weight="bold" font-size="22.0" fill="#94A4A6" transform="matrix(1.00, 0.00, -0.00, -1.00, 330.6, 393.0)">o</text><text xml:space="preserve" font-family="CourierNewPS-BoldMT" font-weight="bold" font-size="22.0" fill="#94A4A6" transform="matrix(1.00, 0.00, -0.00, -1.00, 343.8, 393.0)">u</text><text xml:space="preserve" font-family="CourierNewPS-BoldMT" font-weight="bold" font-size="22.0" fill="#94A4A6" transform="matrix(1.00, 0.00, -0.00, -1.00, 357.0, 393.0)">n</text><text xml:space="preserve" font-family="CourierNewPS-BoldMT" font-weight="bold" font-size="22.0" fill="#94A4A6" transform="matrix(1.00, 0.00, -0.00, -1.00, 370.2, 393.0)">t</text><text xml:space="preserve" font-family="CourierNewPS-BoldMT" font-weight="bold" font-size="22.0" fill="#94A4A6" transform="matrix(1.00, 0.00, -0.00, -1.00, 383.4, 393.0)">e</text><text xml:space="preserve" font-family="CourierNewPS-BoldMT" font-weight="bold" font-size="22.0" fill="#94A4A6" transform="matrix(1.00, 0.00, -0.00, -1.00, 396.6, 393.0)">r</text><text xml:space="preserve" font-family="CourierNewPS-BoldMT" font-weight="bold" font-size="22.0" fill="#A3B0B0" transform="matrix(1.00, 0.00, -0.00, -1.00, 409.8, 393.0)">:</text><text xml:space="preserve" font-family="CourierNewPS-BoldMT" font-weight="bold" font-size="22.0" fill="#000000" transform="matrix(1.00, 0.00, -0.00, -1.00, 423.0, 393.0)"> </text><text xml:space="preserve" font-family="CourierNewPS-BoldMT" font-weight="bold" font-size="22.0" fill="#E5493C" transform="matrix(1.00, 0.00, -0.00, -1.00, 436.2, 393.0)">0</text><text xml:space="preserve" font-family="CourierNewPS-BoldMT" font-weight="bold" font-size="22.0" fill="#000000" transform="matrix(1.00, 0.00, -0.00, -1.00, 449.4, 393.0)"> </text><text xml:space="preserve" font-family="CourierNewPS-BoldMT" font-weight="bold" font-size="22.0" fill="#A3B0B0" transform="matrix(1.00, 0.00, -0.00, -1.00, 291.0, 368.0)">}</text><text xml:space="preserve" font-family="CourierNewPS-BoldMT" font-weight="bold" font-size="22.0" fill="#000000" transform="matrix(1.00, 0.00, -0.00, -1.00, 304.2, 368.0)"> </text><text xml:space="preserve" font-family="CourierNewPS-BoldMT" font-weight="bold" font-size="22.0" fill="#6A8188" transform="matrix(1.00, 0.00, -0.00, -1.00, 291.0, 318.0)">/</text><text xml:space="preserve" font-family="CourierNewPS-BoldMT" font-weight="bold" font-size="22.0" fill="#6A8188" transform="matrix(1.00, 0.00, -0.00, -1.00, 304.2, 318.0)">/</text><text xml:space="preserve" font-family="CourierNewPS-BoldMT" font-weight="bold" font-size="22.0" fill="#6A8188" transform="matrix(1.00, 0.00, -0.00, -1.00, 317.4, 318.0)"> </text><text xml:space="preserve" font-family="CourierNewPS-BoldMT" font-weight="bold" font-size="22.0" fill="#6A8188" transform="matrix(1.00, 0.00, -0.00, -1.00, 330.6, 318.0)">a</text><text xml:space="preserve" font-family="CourierNewPS-BoldMT" font-weight="bold" font-size="22.0" fill="#6A8188" transform="matrix(1.00, 0.00, -0.00, -1.00, 343.8, 318.0)">c</text><text xml:space="preserve" font-family="CourierNewPS-BoldMT" font-weight="bold" font-size="22.0" fill="#6A8188" transform="matrix(1.00, 0.00, -0.00, -1.00, 357.0, 318.0)">t</text><text xml:space="preserve" font-family="CourierNewPS-BoldMT" font-weight="bold" font-size="22.0" fill="#6A8188" transform="matrix(1.00, 0.00, -0.00, -1.00, 370.2, 318.0)">i</text><text xml:space="preserve" font-family="CourierNewPS-BoldMT" font-weight="bold" font-size="22.0" fill="#6A8188" transform="matrix(1.00, 0.00, -0.00, -1.00, 383.4, 318.0)">o</text><text xml:space="preserve" font-family="CourierNewPS-BoldMT" font-weight="bold" font-size="22.0" fill="#6A8188" transform="matrix(1.00, 0.00, -0.00, -1.00, 396.6, 318.0)">n</text><text xml:space="preserve" font-family="CourierNewPS-BoldMT" font-weight="bold" font-size="22.0" fill="#000000" transform="matrix(1.00, 0.00, -0.00, -1.00, 409.8, 318.0)"> </text><text xml:space="preserve" font-family="CourierNewPS-BoldMT" font-weight="bold" font-size="22.0" fill="#A3B0B0" transform="matrix(1.00, 0.00, -0.00, -1.00, 291.0, 293.0)">{</text><text xml:space="preserve" font-family="CourierNewPS-BoldMT" font-weight="bold" font-size="22.0" fill="#000000" transform="matrix(1.00, 0.00, -0.00, -1.00, 304.2, 293.0)"> </text><text xml:space="preserve" font-family="CourierNewPS-BoldMT" font-weight="bold" font-size="22.0" fill="#94A4A6" transform="matrix(1.00, 0.00, -0.00, -1.00, 317.4, 293.0)">t</text><text xml:space="preserve" font-family="CourierNewPS-BoldMT" font-weight="bold" font-size="22.0" fill="#94A4A6" transform="matrix(1.00, 0.00, -0.00, -1.00, 330.6, 293.0)">y</text><text xml:space="preserve" font-family="CourierNewPS-BoldMT" font-weight="bold" font-size="22.0" fill="#94A4A6" transform="matrix(1.00, 0.00, -0.00, -1.00, 343.8, 293.0)">p</text><text xml:space="preserve" font-family="CourierNewPS-BoldMT" font-weight="bold" font-size="22.0" fill="#94A4A6" transform="matrix(1.00, 0.00, -0.00, -1.00, 357.0, 293.0)">e</text><text xml:space="preserve" font-family="CourierNewPS-BoldMT" font-weight="bold" font-size="22.0" fill="#A3B0B0" transform="matrix(1.00, 0.00, -0.00, -1.00, 370.2, 293.0)">:</text><text xml:space="preserve" font-family="CourierNewPS-BoldMT" font-weight="bold" font-size="22.0" fill="#000000" transform="matrix(1.00, 0.00, -0.00, -1.00, 383.4, 293.0)"> </text><text xml:space="preserve" font-family="CourierNewPS-BoldMT" font-weight="bold" font-size="22.0" fill="#E5493C" transform="matrix(1.00, 0.00, -0.00, -1.00, 396.6, 293.0)">'</text><text xml:space="preserve" font-family="CourierNewPS-BoldMT" font-weight="bold" font-size="22.0" fill="#E5493C" transform="matrix(1.00, 0.00, -0.00, -1.00, 409.8, 293.0)">I</text><text xml:space="preserve" font-family="CourierNewPS-BoldMT" font-weight="bold" font-size="22.0" fill="#E5493C" transform="matrix(1.00, 0.00, -0.00, -1.00, 423.0, 293.0)">N</text><text xml:space="preserve" font-family="CourierNewPS-BoldMT" font-weight="bold" font-size="22.0" fill="#E5493C" transform="matrix(1.00, 0.00, -0.00, -1.00, 436.2, 293.0)">C</text><text xml:space="preserve" font-family="CourierNewPS-BoldMT" font-weight="bold" font-size="22.0" fill="#E5493C" transform="matrix(1.00, 0.00, -0.00, -1.00, 449.4, 293.0)">R</text><text xml:space="preserve" font-family="CourierNewPS-BoldMT" font-weight="bold" font-size="22.0" fill="#E5493C" transform="matrix(1.00, 0.00, -0.00, -1.00, 462.6, 293.0)">E</text><text xml:space="preserve" font-family="CourierNewPS-BoldMT" font-weight="bold" font-size="22.0" fill="#E5493C" transform="matrix(1.00, 0.00, -0.00, -1.00, 475.8, 293.0)">M</text><text xml:space="preserve" font-family="CourierNewPS-BoldMT" font-weight="bold" font-size="22.0" fill="#E5493C" transform="matrix(1.00, 0.00, -0.00, -1.00, 489.0, 293.0)">E</text><text xml:space="preserve" font-family="CourierNewPS-BoldMT" font-weight="bold" font-size="22.0" fill="#E5493C" transform="matrix(1.00, 0.00, -0.00, -1.00, 502.3, 293.0)">N</text><text xml:space="preserve" font-family="CourierNewPS-BoldMT" font-weight="bold" font-size="22.0" fill="#E5493C" transform="matrix(1.00, 0.00, -0.00, -1.00, 515.5, 293.0)">T</text><text xml:space="preserve" font-family="CourierNewPS-BoldMT" font-weight="bold" font-size="22.0" fill="#E5493C" transform="matrix(1.00, 0.00, -0.00, -1.00, 528.7, 293.0)">'</text><text xml:space="preserve" font-family="CourierNewPS-BoldMT" font-weight="bold" font-size="22.0" fill="#000000" transform="matrix(1.00, 0.00, -0.00, -1.00, 541.8, 293.0)"> </text><text xml:space="preserve" font-family="CourierNewPS-BoldMT" font-weight="bold" font-size="22.0" fill="#A3B0B0" transform="matrix(1.00, 0.00, -0.00, -1.00, 555.0, 293.0)">}</text><text xml:space="preserve" font-family="CourierNewPS-BoldMT" font-weight="bold" font-size="22.0" fill="#000000" transform="matrix(1.00, 0.00, -0.00, -1.00, 568.2, 293.0)"> </text><text xml:space="preserve" font-family="CourierNewPS-BoldMT" font-weight="bold" font-size="22.0" fill="#6A8188" transform="matrix(1.00, 0.00, -0.00, -1.00, 291.0, 243.0)">/</text><text xml:space="preserve" font-family="CourierNewPS-BoldMT" font-weight="bold" font-size="22.0" fill="#6A8188" transform="matrix(1.00, 0.00, -0.00, -1.00, 304.2, 243.0)">/</text><text xml:space="preserve" font-family="CourierNewPS-BoldMT" font-weight="bold" font-size="22.0" fill="#6A8188" transform="matrix(1.00, 0.00, -0.00, -1.00, 317.4, 243.0)"> </text><text xml:space="preserve" font-family="CourierNewPS-BoldMT" font-weight="bold" font-size="22.0" fill="#6A8188" transform="matrix(1.00, 0.00, -0.00, -1.00, 330.6, 243.0)">n</text><text xml:space="preserve" font-family="CourierNewPS-BoldMT" font-weight="bold" font-size="22.0" fill="#6A8188" transform="matrix(1.00, 0.00, -0.00, -1.00, 343.8, 243.0)">e</text><text xml:space="preserve" font-family="CourierNewPS-BoldMT" font-weight="bold" font-size="22.0" fill="#6A8188" transform="matrix(1.00, 0.00, -0.00, -1.00, 357.0, 243.0)">x</text><text xml:space="preserve" font-family="CourierNewPS-BoldMT" font-weight="bold" font-size="22.0" fill="#6A8188" transform="matrix(1.00, 0.00, -0.00, -1.00, 370.2, 243.0)">t</text><text xml:space="preserve" font-family="CourierNewPS-BoldMT" font-weight="bold" font-size="22.0" fill="#6A8188" transform="matrix(1.00, 0.00, -0.00, -1.00, 383.4, 243.0)"> </text><text xml:space="preserve" font-family="CourierNewPS-BoldMT" font-weight="bold" font-size="22.0" fill="#6A8188" transform="matrix(1.00, 0.00, -0.00, -1.00, 396.6, 243.0)">s</text><text xml:space="preserve" font-family="CourierNewPS-BoldMT" font-weight="bold" font-size="22.0" fill="#6A8188" transform="matrix(1.00, 0.00, -0.00, -1.00, 409.8, 243.0)">t</text><text xml:space="preserve" font-family="CourierNewPS-BoldMT" font-weight="bold" font-size="22.0" fill="#6A8188" transform="matrix(1.00, 0.00, -0.00, -1.00, 423.0, 243.0)">a</text><text xml:space="preserve" font-family="CourierNewPS-BoldMT" font-weight="bold" font-size="22.0" fill="#6A8188" transform="matrix(1.00, 0.00, -0.00, -1.00, 436.2, 243.0)">t</text><text xml:space="preserve" font-family="CourierNewPS-BoldMT" font-weight="bold" font-size="22.0" fill="#6A8188" transform="matrix(1.00, 0.00, -0.00, -1.00, 449.5, 243.0)">e</text><text xml:space="preserve" font-family="CourierNewPS-BoldMT" font-weight="bold" font-size="22.0" fill="#000000" transform="matrix(1.00, 0.00, -0.00, -1.00, 462.6, 243.0)"> </text><text xml:space="preserve" font-family="CourierNewPS-BoldMT" font-weight="bold" font-size="22.0" fill="#A3B0B0" transform="matrix(1.00, 0.00, -0.00, -1.00, 291.0, 218.0)">{</text><text xml:space="preserve" font-family="CourierNewPS-BoldMT" font-weight="bold" font-size="22.0" fill="#000000" transform="matrix(1.00, 0.00, -0.00, -1.00, 304.2, 218.0)"> </text><text xml:space="preserve" font-family="CourierNewPS-BoldMT" font-weight="bold" font-size="22.0" fill="#94A4A6" transform="matrix(1.00, 0.00, -0.00, -1.00, 291.0, 193.0)"> </text><text xml:space="preserve" font-family="CourierNewPS-BoldMT" font-weight="bold" font-size="22.0" fill="#94A4A6" transform="matrix(1.00, 0.00, -0.00, -1.00, 304.2, 193.0)"> </text><text xml:space="preserve" font-family="CourierNewPS-BoldMT" font-weight="bold" font-size="22.0" fill="#94A4A6" transform="matrix(1.00, 0.00, -0.00, -1.00, 317.4, 193.0)">c</text><text xml:space="preserve" font-family="CourierNewPS-BoldMT" font-weight="bold" font-size="22.0" fill="#94A4A6" transform="matrix(1.00, 0.00, -0.00, -1.00, 330.6, 193.0)">o</text><text xml:space="preserve" font-family="CourierNewPS-BoldMT" font-weight="bold" font-size="22.0" fill="#94A4A6" transform="matrix(1.00, 0.00, -0.00, -1.00, 343.8, 193.0)">u</text><text xml:space="preserve" font-family="CourierNewPS-BoldMT" font-weight="bold" font-size="22.0" fill="#94A4A6" transform="matrix(1.00, 0.00, -0.00, -1.00, 357.0, 193.0)">n</text><text xml:space="preserve" font-family="CourierNewPS-BoldMT" font-weight="bold" font-size="22.0" fill="#94A4A6" transform="matrix(1.00, 0.00, -0.00, -1.00, 370.2, 193.0)">t</text><text xml:space="preserve" font-family="CourierNewPS-BoldMT" font-weight="bold" font-size="22.0" fill="#94A4A6" transform="matrix(1.00, 0.00, -0.00, -1.00, 383.4, 193.0)">e</text><text xml:space="preserve" font-family="CourierNewPS-BoldMT" font-weight="bold" font-size="22.0" fill="#94A4A6" transform="matrix(1.00, 0.00, -0.00, -1.00, 396.6, 193.0)">r</text><text xml:space="preserve" font-family="CourierNewPS-BoldMT" font-weight="bold" font-size="22.0" fill="#A3B0B0" transform="matrix(1.00, 0.00, -0.00, -1.00, 409.8, 193.0)">:</text><text xml:space="preserve" font-family="CourierNewPS-BoldMT" font-weight="bold" font-size="22.0" fill="#000000" transform="matrix(1.00, 0.00, -0.00, -1.00, 423.0, 193.0)"> </text><text xml:space="preserve" font-family="CourierNewPS-BoldMT" font-weight="bold" font-size="22.0" fill="#E5493C" transform="matrix(1.00, 0.00, -0.00, -1.00, 436.2, 193.0)">1</text><text xml:space="preserve" font-family="CourierNewPS-BoldMT" font-weight="bold" font-size="22.0" fill="#000000" transform="matrix(1.00, 0.00, -0.00, -1.00, 449.4, 193.0)"> </text><text xml:space="preserve" font-family="CourierNewPS-BoldMT" font-weight="bold" font-size="22.0" fill="#A3B0B0" transform="matrix(1.00, 0.00, -0.00, -1.00, 291.0, 168.0)">}</text><text xml:space="preserve" font-family="CourierNewPS-BoldMT" font-weight="bold" font-size="22.0" fill="#000000" transform="matrix(1.00, 0.00, -0.00, -1.00, 304.2, 168.0)"> </text></g></g></g></svg>