<?xml version="1.0" encoding="UTF-8" standalone="no"?><svg xmlns="http://www.w3.org/2000/svg" xmlns:xlink="http://www.w3.org/1999/xlink" clip-rule="evenodd" stroke-miterlimit="4.00" viewBox="0 0 452 344"><desc>SVG generated by Keynote</desc><defs></defs><g transform="matrix(1.00, 0.00, -0.00, -1.00, 0.0, 344.0)"><path d="M 1.4 342.2 L 450.6 342.2 L 450.6 1.6 L 1.4 1.6 Z M 1.4 342.2 " fill="#3D4453"></path><g><clipPath id="clip-36"><path d="M -0.8 1.6 L 452.8 1.6 L 452.8 342.2 L -0.8 342.2 Z M -0.8 1.6 "></path></clipPath><g clip-path="url(#clip-36)"><text xml:space="preserve" font-family="CourierNewPS-BoldMT" font-weight="bold" font-size="22.0" fill="#6A8188" transform="matrix(1.00, 0.00, -0.00, -1.00, 5.0, 316.0)">/</text><text xml:space="preserve" font-family="CourierNewPS-BoldMT" font-weight="bold" font-size="22.0" fill="#6A8188" transform="matrix(1.00, 0.00, -0.00, -1.00, 18.2, 316.0)">/</text><text xml:space="preserve" font-family="CourierNewPS-BoldMT" font-weight="bold" font-size="22.0" fill="#6A8188" transform="matrix(1.00, 0.00, -0.00, -1.00, 31.4, 316.0)"> </text><text xml:space="preserve" font-family="CourierNewPS-BoldMT" font-weight="bold" font-size="22.0" fill="#6A8188" transform="matrix(1.00, 0.00, -0.00, -1.00, 44.6, 316.0)">s</text><text xml:space="preserve" font-family="CourierNewPS-BoldMT" font-weight="bold" font-size="22.0" fill="#6A8188" transform="matrix(1.00, 0.00, -0.00, -1.00, 57.8, 316.0)">t</text><text xml:space="preserve" font-family="CourierNewPS-BoldMT" font-weight="bold" font-size="22.0" fill="#6A8188" transform="matrix(1.00, 0.00, -0.00, -1.00, 71.0, 316.0)">a</text><text xml:space="preserve" font-family="CourierNewPS-BoldMT" font-weight="bold" font-size="22.0" fill="#6A8188" transform="matrix(1.00, 0.00, -0.00, -1.00, 84.2, 316.0)">r</text><text xml:space="preserve" font-family="CourierNewPS-BoldMT" font-weight="bold" font-size="22.0" fill="#6A8188" transform="matrix(1.00, 0.00, -0.00, -1.00, 97.4, 316.0)">t</text><text xml:space="preserve" font-family="CourierNewPS-BoldMT" font-weight="bold" font-size="22.0" fill="#6A8188" transform="matrix(1.00, 0.00, -0.00, -1.00, 110.6, 316.0)">i</text><text xml:space="preserve" font-family="CourierNewPS-BoldMT" font-weight="bold" font-size="22.0" fill="#6A8188" transform="matrix(1.00, 0.00, -0.00, -1.00, 123.8, 316.0)">n</text><text xml:space="preserve" font-family="CourierNewPS-BoldMT" font-weight="bold" font-size="22.0" fill="#6A8188" transform="matrix(1.00, 0.00, -0.00, -1.00, 137.0, 316.0)">g</text><text xml:space="preserve" font-family="CourierNewPS-BoldMT" font-weight="bold" font-size="22.0" fill="#6A8188" transform="matrix(1.00, 0.00, -0.00, -1.00, 150.2, 316.0)"> </text><text xml:space="preserve" font-family="CourierNewPS-BoldMT" font-weight="bold" font-size="22.0" fill="#6A8188" transform="matrix(1.00, 0.00, -0.00, -1.00, 163.5, 316.0)">s</text><text xml:space="preserve" font-family="CourierNewPS-BoldMT" font-weight="bold" font-size="22.0" fill="#6A8188" transform="matrix(1.00, 0.00, -0.00, -1.00, 176.7, 316.0)">t</text><text xml:space="preserve" font-family="CourierNewPS-BoldMT" font-weight="bold" font-size="22.0" fill="#6A8188" transform="matrix(1.00, 0.00, -0.00, -1.00, 189.9, 316.0)">a</text><text xml:space="preserve" font-family="CourierNewPS-BoldMT" font-weight="bold" font-size="22.0" fill="#6A8188" transform="matrix(1.00, 0.00, -0.00, -1.00, 203.1, 316.0)">t</text><text xml:space="preserve" font-family="CourierNewPS-BoldMT" font-weight="bold" font-size="22.0" fill="#6A8188" transform="matrix(1.00, 0.00, -0.00, -1.00, 216.3, 316.0)">e</text><text xml:space="preserve" font-family="CourierNewPS-BoldMT" font-weight="bold" font-size="22.0" fill="#000000" transform="matrix(1.00, 0.00, -0.00, -1.00, 229.4, 316.0)"> </text><text xml:space="preserve" font-family="CourierNewPS-BoldMT" font-weight="bold" font-size="22.0" fill="#A3B0B0" transform="matrix(1.00, 0.00, -0.00, -1.00, 5.0, 291.0)">{</text><text xml:space="preserve" font-family="CourierNewPS-BoldMT" font-weight="bold" font-size="22.0" fill="#000000" transform="matrix(1.00, 0.00, -0.00, -1.00, 18.2, 291.0)"> </text><text xml:space="preserve" font-family="CourierNewPS-BoldMT" font-weight="bold" font-size="22.0" fill="#94A4A6" transform="matrix(1.00, 0.00, -0.00, -1.00, 5.0, 266.0)"> </text><text xml:space="preserve" font-family="CourierNewPS-BoldMT" font-weight="bold" font-size="22.0" fill="#94A4A6" transform="matrix(1.00, 0.00, -0.00, -1.00, 18.2, 266.0)"> </text><text xml:space="preserve" font-family="CourierNewPS-BoldMT" font-weight="bold" font-size="22.0" fill="#94A4A6" transform="matrix(1.00, 0.00, -0.00, -1.00, 31.4, 266.0)">c</text><text xml:space="preserve" font-family="CourierNewPS-BoldMT" font-weight="bold" font-size="22.0" fill="#94A4A6" transform="matrix(1.00, 0.00, -0.00, -1.00, 44.6, 266.0)">o</text><text xml:space="preserve" font-family="CourierNewPS-BoldMT" font-weight="bold" font-size="22.0" fill="#94A4A6" transform="matrix(1.00, 0.00, -0.00, -1.00, 57.8, 266.0)">u</text><text xml:space="preserve" font-family="CourierNewPS-BoldMT" font-weight="bold" font-size="22.0" fill="#94A4A6" transform="matrix(1.00, 0.00, -0.00, -1.00, 71.0, 266.0)">n</text><text xml:space="preserve" font-family="CourierNewPS-BoldMT" font-weight="bold" font-size="22.0" fill="#94A4A6" transform="matrix(1.00, 0.00, -0.00, -1.00, 84.2, 266.0)">t</text><text xml:space="preserve" font-family="CourierNewPS-BoldMT" font-weight="bold" font-size="22.0" fill="#94A4A6" transform="matrix(1.00, 0.00, -0.00, -1.00, 97.4, 266.0)">e</text><text xml:space="preserve" font-family="CourierNewPS-BoldMT" font-weight="bold" font-size="22.0" fill="#94A4A6" transform="matrix(1.00, 0.00, -0.00, -1.00, 110.6, 266.0)">r</text><text xml:space="preserve" font-family="CourierNewPS-BoldMT" font-weight="bold" font-size="22.0" fill="#A3B0B0" transform="matrix(1.00, 0.00, -0.00, -1.00, 123.8, 266.0)">:</text><text xml:space="preserve" font-family="CourierNewPS-BoldMT" font-weight="bold" font-size="22.0" fill="#000000" transform="matrix(1.00, 0.00, -0.00, -1.00, 137.0, 266.0)"> </text><text xml:space="preserve" font-family="CourierNewPS-BoldMT" font-weight="bold" font-size="22.0" fill="#E5493C" transform="matrix(1.00, 0.00, -0.00, -1.00, 150.2, 266.0)">0</text><text xml:space="preserve" font-family="CourierNewPS-BoldMT" font-weight="bold" font-size="22.0" fill="#000000" transform="matrix(1.00, 0.00, -0.00, -1.00, 163.4, 266.0)"> </text><text xml:space="preserve" font-family="CourierNewPS-BoldMT" font-weight="bold" font-size="22.0" fill="#A3B0B0" transform="matrix(1.00, 0.00, -0.00, -1.00, 5.0, 241.0)">}</text><text xml:space="preserve" font-family="CourierNewPS-BoldMT" font-weight="bold" font-size="22.0" fill="#000000" transform="matrix(1.00, 0.00, -0.00, -1.00, 18.2, 241.0)"> </text><text xml:space="preserve" font-family="CourierNewPS-BoldMT" font-weight="bold" font-size="22.0" fill="#6A8188" transform="matrix(1.00, 0.00, -0.00, -1.00, 5.0, 191.0)">/</text><text xml:space="preserve" font-family="CourierNewPS-BoldMT" font-weight="bold" font-size="22.0" fill="#6A8188" transform="matrix(1.00, 0.00, -0.00, -1.00, 18.2, 191.0)">/</text><text xml:space="preserve" font-family="CourierNewPS-BoldMT" font-weight="bold" font-size="22.0" fill="#6A8188" transform="matrix(1.00, 0.00, -0.00, -1.00, 31.4, 191.0)"> </text><text xml:space="preserve" font-family="CourierNewPS-BoldMT" font-weight="bold" font-size="22.0" fill="#6A8188" transform="matrix(1.00, 0.00, -0.00, -1.00, 44.6, 191.0)">a</text><text xml:space="preserve" font-family="CourierNewPS-BoldMT" font-weight="bold" font-size="22.0" fill="#6A8188" transform="matrix(1.00, 0.00, -0.00, -1.00, 57.8, 191.0)">c</text><text xml:space="preserve" font-family="CourierNewPS-BoldMT" font-weight="bold" font-size="22.0" fill="#6A8188" transform="matrix(1.00, 0.00, -0.00, -1.00, 71.0, 191.0)">t</text><text xml:space="preserve" font-family="CourierNewPS-BoldMT" font-weight="bold" font-size="22.0" fill="#6A8188" transform="matrix(1.00, 0.00, -0.00, -1.00, 84.2, 191.0)">i</text><text xml:space="preserve" font-family="CourierNewPS-BoldMT" font-weight="bold" font-size="22.0" fill="#6A8188" transform="matrix(1.00, 0.00, -0.00, -1.00, 97.4, 191.0)">o</text><text xml:space="preserve" font-family="CourierNewPS-BoldMT" font-weight="bold" font-size="22.0" fill="#6A8188" transform="matrix(1.00, 0.00, -0.00, -1.00, 110.6, 191.0)">n</text><text xml:space="preserve" font-family="CourierNewPS-BoldMT" font-weight="bold" font-size="22.0" fill="#000000" transform="matrix(1.00, 0.00, -0.00, -1.00, 123.8, 191.0)"> </text><text xml:space="preserve" font-family="CourierNewPS-BoldMT" font-weight="bold" font-size="22.0" fill="#A3B0B0" transform="matrix(1.00, 0.00, -0.00, -1.00, 5.0, 166.0)">{</text><text xml:space="preserve" font-family="CourierNewPS-BoldMT" font-weight="bold" font-size="22.0" fill="#000000" transform="matrix(1.00, 0.00, -0.00, -1.00, 18.2, 166.0)"> </text><text xml:space="preserve" font-family="CourierNewPS-BoldMT" font-weight="bold" font-size="22.0" fill="#94A4A6" transform="matrix(1.00, 0.00, -0.00, -1.00, 31.4, 166.0)">t</text><text xml:space="preserve" font-family="CourierNewPS-BoldMT" font-weight="bold" font-size="22.0" fill="#94A4A6" transform="matrix(1.00, 0.00, -0.00, -1.00, 44.6, 166.0)">y</text><text xml:space="preserve" font-family="CourierNewPS-BoldMT" font-weight="bold" font-size="22.0" fill="#94A4A6" transform="matrix(1.00, 0.00, -0.00, -1.00, 57.8, 166.0)">p</text><text xml:space="preserve" font-family="CourierNewPS-BoldMT" font-weight="bold" font-size="22.0" fill="#94A4A6" transform="matrix(1.00, 0.00, -0.00, -1.00, 71.0, 166.0)">e</text><text xml:space="preserve" font-family="CourierNewPS-BoldMT" font-weight="bold" font-size="22.0" fill="#A3B0B0" transform="matrix(1.00, 0.00, -0.00, -1.00, 84.2, 166.0)">:</text><text xml:space="preserve" font-family="CourierNewPS-BoldMT" font-weight="bold" font-size="22.0" fill="#000000" transform="matrix(1.00, 0.00, -0.00, -1.00, 97.4, 166.0)"> </text><text xml:space="preserve" font-family="CourierNewPS-BoldMT" font-weight="bold" font-size="22.0" fill="#E5493C" transform="matrix(1.00, 0.00, -0.00, -1.00, 110.6, 166.0)">'</text><text xml:space="preserve" font-family="CourierNewPS-BoldMT" font-weight="bold" font-size="22.0" fill="#E5493C" transform="matrix(1.00, 0.00, -0.00, -1.00, 123.8, 166.0)">I</text><text xml:space="preserve" font-family="CourierNewPS-BoldMT" font-weight="bold" font-size="22.0" fill="#E5493C" transform="matrix(1.00, 0.00, -0.00, -1.00, 137.0, 166.0)">N</text><text xml:space="preserve" font-family="CourierNewPS-BoldMT" font-weight="bold" font-size="22.0" fill="#E5493C" transform="matrix(1.00, 0.00, -0.00, -1.00, 150.2, 166.0)">C</text><text xml:space="preserve" font-family="CourierNewPS-BoldMT" font-weight="bold" font-size="22.0" fill="#E5493C" transform="matrix(1.00, 0.00, -0.00, -1.00, 163.4, 166.0)">R</text><text xml:space="preserve" font-family="CourierNewPS-BoldMT" font-weight="bold" font-size="22.0" fill="#E5493C" transform="matrix(1.00, 0.00, -0.00, -1.00, 176.6, 166.0)">E</text><text xml:space="preserve" font-family="CourierNewPS-BoldMT" font-weight="bold" font-size="22.0" fill="#E5493C" transform="matrix(1.00, 0.00, -0.00, -1.00, 189.8, 166.0)">M</text><text xml:space="preserve" font-family="CourierNewPS-BoldMT" font-weight="bold" font-size="22.0" fill="#E5493C" transform="matrix(1.00, 0.00, -0.00, -1.00, 203.0, 166.0)">E</text><text xml:space="preserve" font-family="CourierNewPS-BoldMT" font-weight="bold" font-size="22.0" fill="#E5493C" transform="matrix(1.00, 0.00, -0.00, -1.00, 216.3, 166.0)">N</text><text xml:space="preserve" font-family="CourierNewPS-BoldMT" font-weight="bold" font-size="22.0" fill="#E5493C" transform="matrix(1.00, 0.00, -0.00, -1.00, 229.5, 166.0)">T</text><text xml:space="preserve" font-family="CourierNewPS-BoldMT" font-weight="bold" font-size="22.0" fill="#E5493C" transform="matrix(1.00, 0.00, -0.00, -1.00, 242.7, 166.0)">'</text><text xml:space="preserve" font-family="CourierNewPS-BoldMT" font-weight="bold" font-size="22.0" fill="#000000" transform="matrix(1.00, 0.00, -0.00, -1.00, 255.8, 166.0)"> </text><text xml:space="preserve" font-family="CourierNewPS-BoldMT" font-weight="bold" font-size="22.0" fill="#A3B0B0" transform="matrix(1.00, 0.00, -0.00, -1.00, 269.0, 166.0)">}</text><text xml:space="preserve" font-family="CourierNewPS-BoldMT" font-weight="bold" font-size="22.0" fill="#000000" transform="matrix(1.00, 0.00, -0.00, -1.00, 282.2, 166.0)"> </text><text xml:space="preserve" font-family="CourierNewPS-BoldMT" font-weight="bold" font-size="22.0" fill="#6A8188" transform="matrix(1.00, 0.00, -0.00, -1.00, 5.0, 116.0)">/</text><text xml:space="preserve" font-family="CourierNewPS-BoldMT" font-weight="bold" font-size="22.0" fill="#6A8188" transform="matrix(1.00, 0.00, -0.00, -1.00, 18.2, 116.0)">/</text><text xml:space="preserve" font-family="CourierNewPS-BoldMT" font-weight="bold" font-size="22.0" fill="#6A8188" transform="matrix(1.00, 0.00, -0.00, -1.00, 31.4, 116.0)"> </text><text xml:space="preserve" font-family="CourierNewPS-BoldMT" font-weight="bold" font-size="22.0" fill="#6A8188" transform="matrix(1.00, 0.00, -0.00, -1.00, 44.6, 116.0)">n</text><text xml:space="preserve" font-family="CourierNewPS-BoldMT" font-weight="bold" font-size="22.0" fill="#6A8188" transform="matrix(1.00, 0.00, -0.00, -1.00, 57.8, 116.0)">e</text><text xml:space="preserve" font-family="CourierNewPS-BoldMT" font-weight="bold" font-size="22.0" fill="#6A8188" transform="matrix(1.00, 0.00, -0.00, -1.00, 71.0, 116.0)">x</text><text xml:space="preserve" font-family="CourierNewPS-BoldMT" font-weight="bold" font-size="22.0" fill="#6A8188" transform="matrix(1.00, 0.00, -0.00, -1.00, 84.2, 116.0)">t</text><text xml:space="preserve" font-family="CourierNewPS-BoldMT" font-weight="bold" font-size="22.0" fill="#6A8188" transform="matrix(1.00, 0.00, -0.00, -1.00, 97.4, 116.0)"> </text><text xml:space="preserve" font-family="CourierNewPS-BoldMT" font-weight="bold" font-size="22.0" fill="#6A8188" transform="matrix(1.00, 0.00, -0.00, -1.00, 110.6, 116.0)">s</text><text xml:space="preserve" font-family="CourierNewPS-BoldMT" font-weight="bold" font-size="22.0" fill="#6A8188" transform="matrix(1.00, 0.00, -0.00, -1.00, 123.8, 116.0)">t</text><text xml:space="preserve" font-family="CourierNewPS-BoldMT" font-weight="bold" font-size="22.0" fill="#6A8188" transform="matrix(1.00, 0.00, -0.00, -1.00, 137.0, 116.0)">a</text><text xml:space="preserve" font-family="CourierNewPS-BoldMT" font-weight="bold" font-size="22.0" fill="#6A8188" transform="matrix(1.00, 0.00, -0.00, -1.00, 150.2, 116.0)">t</text><text xml:space="preserve" font-family="CourierNewPS-BoldMT" font-weight="bold" font-size="22.0" fill="#6A8188" transform="matrix(1.00, 0.00, -0.00, -1.00, 163.5, 116.0)">e</text><text xml:space="preserve" font-family="CourierNewPS-BoldMT" font-weight="bold" font-size="22.0" fill="#000000" transform="matrix(1.00, 0.00, -0.00, -1.00, 176.6, 116.0)"> </text><text xml:space="preserve" font-family="CourierNewPS-BoldMT" font-weight="bold" font-size="22.0" fill="#A3B0B0" transform="matrix(1.00, 0.00, -0.00, -1.00, 5.0, 91.0)">{</text><text xml:space="preserve" font-family="CourierNewPS-BoldMT" font-weight="bold" font-size="22.0" fill="#000000" transform="matrix(1.00, 0.00, -0.00, -1.00, 18.2, 91.0)"> </text><text xml:space="preserve" font-family="CourierNewPS-BoldMT" font-weight="bold" font-size="22.0" fill="#94A4A6" transform="matrix(1.00, 0.00, -0.00, -1.00, 5.0, 66.0)"> </text><text xml:space="preserve" font-family="CourierNewPS-BoldMT" font-weight="bold" font-size="22.0" fill="#94A4A6" transform="matrix(1.00, 0.00, -0.00, -1.00, 18.2, 66.0)"> </text><text xml:space="preserve" font-family="CourierNewPS-BoldMT" font-weight="bold" font-size="22.0" fill="#94A4A6" transform="matrix(1.00, 0.00, -0.00, -1.00, 31.4, 66.0)">c</text><text xml:space="preserve" font-family="CourierNewPS-BoldMT" font-weight="bold" font-size="22.0" fill="#94A4A6" transform="matrix(1.00, 0.00, -0.00, -1.00, 44.6, 66.0)">o</text><text xml:space="preserve" font-family="CourierNewPS-BoldMT" font-weight="bold" font-size="22.0" fill="#94A4A6" transform="matrix(1.00, 0.00, -0.00, -1.00, 57.8, 66.0)">u</text><text xml:space="preserve" font-family="CourierNewPS-BoldMT" font-weight="bold" font-size="22.0" fill="#94A4A6" transform="matrix(1.00, 0.00, -0.00, -1.00, 71.0, 66.0)">n</text><text xml:space="preserve" font-family="CourierNewPS-BoldMT" font-weight="bold" font-size="22.0" fill="#94A4A6" transform="matrix(1.00, 0.00, -0.00, -1.00, 84.2, 66.0)">t</text><text xml:space="preserve" font-family="CourierNewPS-BoldMT" font-weight="bold" font-size="22.0" fill="#94A4A6" transform="matrix(1.00, 0.00, -0.00, -1.00, 97.4, 66.0)">e</text><text xml:space="preserve" font-family="CourierNewPS-BoldMT" font-weight="bold" font-size="22.0" fill="#94A4A6" transform="matrix(1.00, 0.00, -0.00, -1.00, 110.6, 66.0)">r</text><text xml:space="preserve" font-family="CourierNewPS-BoldMT" font-weight="bold" font-size="22.0" fill="#A3B0B0" transform="matrix(1.00, 0.00, -0.00, -1.00, 123.8, 66.0)">:</text><text xml:space="preserve" font-family="CourierNewPS-BoldMT" font-weight="bold" font-size="22.0" fill="#000000" transform="matrix(1.00, 0.00, -0.00, -1.00, 137.0, 66.0)"> </text><text xml:space="preserve" font-family="CourierNewPS-BoldMT" font-weight="bold" font-size="22.0" fill="#E5493C" transform="matrix(1.00, 0.00, -0.00, -1.00, 150.2, 66.0)">1</text><text xml:space="preserve" font-family="CourierNewPS-BoldMT" font-weight="bold" font-size="22.0" fill="#000000" transform="matrix(1.00, 0.00, -0.00, -1.00, 163.4, 66.0)"> </text><text xml:space="preserve" font-family="CourierNewPS-BoldMT" font-weight="bold" font-size="22.0" fill="#A3B0B0" transform="matrix(1.00, 0.00, -0.00, -1.00, 5.0, 41.0)">}</text><text xml:space="preserve" font-family="CourierNewPS-BoldMT" font-weight="bold" font-size="22.0" fill="#000000" transform="matrix(1.00, 0.00, -0.00, -1.00, 18.2, 41.0)"> </text></g></g></g></svg>