<?xml version="1.0" encoding="UTF-8" standalone="no"?><svg xmlns="http://www.w3.org/2000/svg" xmlns:xlink="http://www.w3.org/1999/xlink" clip-rule="evenodd" stroke-miterlimit="4.00" viewBox="0 0 902 103"><desc>SVG generated by Keynote</desc><defs></defs><g transform="matrix(1.00, 0.00, -0.00, -1.00, 0.0, 103.0)"><text xml:space="preserve" font-family="GillSans-Light" font-size="35.5" fill="#525252" transform="matrix(1.00, 0.00, -0.00, -1.00, 0.0, 22.9)">•</text><text xml:space="preserve" font-family="GillSans-Light" font-size="43.2" fill="#525252" transform="matrix(1.00, 0.00, -0.00, -1.00, 39.0, 20.0)">h</text><text xml:space="preserve" font-family="GillSans-Light" font-size="43.2" fill="#525252" transform="matrix(1.00, 0.00, -0.00, -1.00, 60.2, 20.0)">t</text><text xml:space="preserve" font-family="GillSans-Light" font-size="43.2" fill="#525252" transform="matrix(1.00, 0.00, -0.00, -1.00, 73.2, 20.0)">t</text><text xml:space="preserve" font-family="GillSans-Light" font-size="43.2" fill="#525252" transform="matrix(1.00, 0.00, -0.00, -1.00, 86.3, 20.0)">p</text><text xml:space="preserve" font-family="GillSans-Light" font-size="43.2" fill="#525252" transform="matrix(1.00, 0.00, -0.00, -1.00, 108.3, 20.0)">s</text><text xml:space="preserve" font-family="GillSans-Light" font-size="43.2" fill="#525252" transform="matrix(1.00, 0.00, -0.00, -1.00, 123.6, 20.0)">:</text><text xml:space="preserve" font-family="GillSans-Light" font-size="43.2" fill="#525252" transform="matrix(1.00, 0.00, -0.00, -1.00, 131.3, 20.0)">/</text><text xml:space="preserve" font-family="GillSans-Light" font-size="43.2" fill="#525252" transform="matrix(1.00, 0.00, -0.00, -1.00, 143.4, 20.0)">/</text><text xml:space="preserve" font-family="GillSans-Light" font-size="43.2" fill="#525252" transform="matrix(1.00, 0.00, -0.00, -1.00, 155.5, 20.0)">e</text><text xml:space="preserve" font-family="GillSans-Light" font-size="43.2" fill="#525252" transform="matrix(1.00, 0.00, -0.00, -1.00, 176.2, 20.0)">g</text><text xml:space="preserve" font-family="GillSans-Light" font-size="43.2" fill="#525252" transform="matrix(1.00, 0.00, -0.00, -1.00, 194.7, 20.0)">g</text><text xml:space="preserve" font-family="GillSans-Light" font-size="43.2" fill="#525252" transform="matrix(1.00, 0.00, -0.00, -1.00, 213.1, 20.0)">h</text><text xml:space="preserve" font-family="GillSans-Light" font-size="43.2" fill="#525252" transform="matrix(1.00, 0.00, -0.00, -1.00, 234.3, 20.0)">e</text><text xml:space="preserve" font-family="GillSans-Light" font-size="43.2" fill="#525252" transform="matrix(1.00, 0.00, -0.00, -1.00, 255.0, 20.0)">a</text><text xml:space="preserve" font-family="GillSans-Light" font-size="43.2" fill="#525252" transform="matrix(1.00, 0.00, -0.00, -1.00, 273.5, 20.0)">d</text><text xml:space="preserve" font-family="GillSans-Light" font-size="43.2" fill="#525252" transform="matrix(1.00, 0.00, -0.00, -1.00, 295.5, 20.0)">.</text><text xml:space="preserve" font-family="GillSans-Light" font-size="43.2" fill="#525252" transform="matrix(1.00, 0.00, -0.00, -1.00, 303.2, 20.0)">i</text><text xml:space="preserve" font-family="GillSans-Light" font-size="43.2" fill="#525252" transform="matrix(1.00, 0.00, -0.00, -1.00, 311.3, 20.0)">o</text><text xml:space="preserve" font-family="GillSans-Light" font-size="43.2" fill="#525252" transform="matrix(1.00, 0.00, -0.00, -1.00, 334.7, 20.0)">/</text><text xml:space="preserve" font-family="GillSans-Light" font-size="43.2" fill="#525252" transform="matrix(1.00, 0.00, -0.00, -1.00, 346.9, 20.0)">s</text><text xml:space="preserve" font-family="GillSans-Light" font-size="43.2" fill="#525252" transform="matrix(1.00, 0.00, -0.00, -1.00, 362.2, 20.0)">e</text><text xml:space="preserve" font-family="GillSans-Light" font-size="43.2" fill="#525252" transform="matrix(1.00, 0.00, -0.00, -1.00, 382.9, 20.0)">r</text><text xml:space="preserve" font-family="GillSans-Light" font-size="43.2" fill="#525252" transform="matrix(1.00, 0.00, -0.00, -1.00, 398.3, 20.0)">i</text><text xml:space="preserve" font-family="GillSans-Light" font-size="43.2" fill="#525252" transform="matrix(1.00, 0.00, -0.00, -1.00, 406.5, 20.0)">e</text><text xml:space="preserve" font-family="GillSans-Light" font-size="43.2" fill="#525252" transform="matrix(1.00, 0.00, -0.00, -1.00, 427.2, 20.0)">s</text><text xml:space="preserve" font-family="GillSans-Light" font-size="43.2" fill="#525252" transform="matrix(1.00, 0.00, -0.00, -1.00, 442.5, 20.0)">/</text><text xml:space="preserve" font-family="GillSans-Light" font-size="43.2" fill="#525252" transform="matrix(1.00, 0.00, -0.00, -1.00, 454.6, 20.0)">g</text><text xml:space="preserve" font-family="GillSans-Light" font-size="43.2" fill="#525252" transform="matrix(1.00, 0.00, -0.00, -1.00, 473.1, 20.0)">e</text><text xml:space="preserve" font-family="GillSans-Light" font-size="43.2" fill="#525252" transform="matrix(1.00, 0.00, -0.00, -1.00, 493.8, 20.0)">t</text><text xml:space="preserve" font-family="GillSans-Light" font-size="43.2" fill="#525252" transform="matrix(1.00, 0.00, -0.00, -1.00, 506.8, 20.0)">t</text><text xml:space="preserve" font-family="GillSans-Light" font-size="43.2" fill="#525252" transform="matrix(1.00, 0.00, -0.00, -1.00, 519.9, 20.0)">i</text><text xml:space="preserve" font-family="GillSans-Light" font-size="43.2" fill="#525252" transform="matrix(1.00, 0.00, -0.00, -1.00, 528.0, 20.0)">n</text><text xml:space="preserve" font-family="GillSans-Light" font-size="43.2" fill="#525252" transform="matrix(1.00, 0.00, -0.00, -1.00, 549.2, 20.0)">g</text><text xml:space="preserve" font-family="GillSans-Light" font-size="43.2" fill="#525252" transform="matrix(1.00, 0.00, -0.00, -1.00, 567.6, 20.0)">-</text><text xml:space="preserve" font-family="GillSans-Light" font-size="43.2" fill="#525252" transform="matrix(1.00, 0.00, -0.00, -1.00, 581.2, 20.0)">s</text><text xml:space="preserve" font-family="GillSans-Light" font-size="43.2" fill="#525252" transform="matrix(1.00, 0.00, -0.00, -1.00, 596.5, 20.0)">t</text><text xml:space="preserve" font-family="GillSans-Light" font-size="43.2" fill="#525252" transform="matrix(1.00, 0.00, -0.00, -1.00, 609.5, 20.0)">a</text><text xml:space="preserve" font-family="GillSans-Light" font-size="43.2" fill="#525252" transform="matrix(1.00, 0.00, -0.00, -1.00, 628.0, 20.0)">r</text><text xml:space="preserve" font-family="GillSans-Light" font-size="43.2" fill="#525252" transform="matrix(1.00, 0.00, -0.00, -1.00, 645.8, 20.0)">t</text><text xml:space="preserve" font-family="GillSans-Light" font-size="43.2" fill="#525252" transform="matrix(1.00, 0.00, -0.00, -1.00, 658.9, 20.0)">e</text><text xml:space="preserve" font-family="GillSans-Light" font-size="43.2" fill="#525252" transform="matrix(1.00, 0.00, -0.00, -1.00, 679.6, 20.0)">d</text><text xml:space="preserve" font-family="GillSans-Light" font-size="43.2" fill="#525252" transform="matrix(1.00, 0.00, -0.00, -1.00, 701.6, 20.0)">-</text><text xml:space="preserve" font-family="GillSans-Light" font-size="43.2" fill="#525252" transform="matrix(1.00, 0.00, -0.00, -1.00, 715.1, 20.0)">w</text><text xml:space="preserve" font-family="GillSans-Light" font-size="43.2" fill="#525252" transform="matrix(1.00, 0.00, -0.00, -1.00, 745.8, 20.0)">i</text><text xml:space="preserve" font-family="GillSans-Light" font-size="43.2" fill="#525252" transform="matrix(1.00, 0.00, -0.00, -1.00, 753.9, 20.0)">t</text><text xml:space="preserve" font-family="GillSans-Light" font-size="43.2" fill="#525252" transform="matrix(1.00, 0.00, -0.00, -1.00, 766.9, 20.0)">h</text><text xml:space="preserve" font-family="GillSans-Light" font-size="43.2" fill="#525252" transform="matrix(1.00, 0.00, -0.00, -1.00, 788.1, 20.0)">-</text><text xml:space="preserve" font-family="GillSans-Light" font-size="43.2" fill="#525252" transform="matrix(1.00, 0.00, -0.00, -1.00, 801.7, 20.0)">r</text><text xml:space="preserve" font-family="GillSans-Light" font-size="43.2" fill="#525252" transform="matrix(1.00, 0.00, -0.00, -1.00, 816.1, 20.0)">e</text><text xml:space="preserve" font-family="GillSans-Light" font-size="43.2" fill="#525252" transform="matrix(1.00, 0.00, -0.00, -1.00, 836.8, 20.0)">d</text><text xml:space="preserve" font-family="GillSans-Light" font-size="43.2" fill="#525252" transform="matrix(1.00, 0.00, -0.00, -1.00, 858.8, 20.0)">u</text><text xml:space="preserve" font-family="GillSans-Light" font-size="43.2" fill="#525252" transform="matrix(1.00, 0.00, -0.00, -1.00, 880.0, 20.0)">x</text><g><clipPath id="clip-63"><path d="M 37.5 14.9 L 900.4 14.9 L 900.4 19.1 L 37.5 19.1 Z M 37.5 14.9 "></path></clipPath><g clip-path="url(#clip-63)"><path d="M 42.5 159.0 L 904.4 159.0 " fill="none" stroke="#525252" stroke-width="2.15" stroke-miterlimit="0.00" transform="matrix(1.00, 0.00, 0.00, -1.00, -4.0, 176.0)"></path></g></g></g></svg>